<svg xmlns="http://www.w3.org/2000/svg" width="170" height="110" viewBox="0 0 170 110"><g fill-rule="evenodd" transform="translate(30 29)"><path d="M28.7094922,21.28476 L28.7094922,21.28476 C28.6608453,16.1279775 33.0715759,13.6487319 33.2725752,13.5285147 C30.7915812,10.0221492 26.9278485,9.54128035 25.5524628,9.48537264 C22.2632123,9.16373571 19.1347433,11.3540577 17.4694936,11.3540577 C15.8020917,11.3540577 13.2280185,9.53283386 10.5015929,9.58346811 C6.91611169,9.63302978 3.61412781,11.5944922 1.76585796,14.6917169 C-1.9551173,20.9283093 0.815785475,30.166176 4.44148447,35.2280361 C6.21573027,37.7020082 8.33063915,40.4891708 11.1067429,40.387947 C13.7824142,40.2856506 14.792791,38.7196537 18.0238445,38.7196537 C21.2570501,38.7196537 22.1647975,40.387947 24.9917452,40.3373127 C27.8684158,40.2856506 29.6944919,37.8116785 31.4549731,35.3292599 C33.4894464,32.4566493 34.3284603,29.6768606 34.375,29.5313486 C34.3136197,29.5049813 28.7687204,27.4527973 28.7094922,21.28476"/><path d="M22.6722307 6.5376804L22.671195 6.53871302C24.1514053 4.80763029 25.1491851 2.39856223 24.8771452 0 22.742391.0826548567 20.1612771 1.37303141 18.6310809 3.10303662 17.2581825 4.63495752 16.0574424 7.08645298 16.3815395 9.43729 18.7618096 9.61530548 21.1909396 8.26984065 22.6722307 6.5376804M58.9750081 20.6349424C57.1201803 22.1584916 54.5064336 22.920222 51.1347047 22.920222 50.2357525 22.920222 49.3935899 22.8847557 48.6061646 22.8117003 47.818784 22.7397063 47.1071972 22.6123901 46.4702888 22.4318744L46.4692628 22.4318744 46.4692628 6.04881117C46.9934843 5.94028946 47.6872268 5.84012578 48.5482598 5.74933724 49.4104527 5.65854871 50.4410068 5.613663 51.6389406 5.613663 53.1390233 5.613663 54.5064336 5.78586493 55.7443832 6.13018034 56.9812622 6.47560131 58.0486202 6.9827435 58.9476617 7.65474671 59.8490675 8.32918215 60.564134 9.21822877 61.0266587 10.2395445 61.5140763 11.2913737 61.7572052 12.5258413 61.7572052 13.9408246 61.7572052 16.8793572 60.8287652 19.1114374 58.9750081 20.6349424M63.6972842 9.58735293C63.2140154 8.42244714 62.4966292 7.36730127 61.5887994 6.48603779 60.5403118 5.50620263 59.2023893 4.75278603 57.5707047 4.22684932 55.9412061 3.70091262 54.0032237 3.43796638 51.7547056 3.43796638 50.3089142 3.43093502 48.8638366 3.50341549 47.4261644 3.6550098 46.2224758 3.78564269 45.0226684 3.94922126 43.828125 4.14548015L43.828125 40.390625 46.4702888 40.390625 46.4702888 24.717154C47.6682672 24.9707251 49.1483197 25.09698 50.9083942 25.09698 52.8579307 25.09698 54.6559243 24.8611421 56.3054086 24.3905276 57.9539115 23.9178346 59.3771298 23.2009015 60.5771603 22.2408779 61.7789753 21.2768744 62.7485464 20.0590344 63.4151655 18.6762892 64.1089081 17.2613059 64.453125 15.6104404 64.453125 13.7238254 64.453125 12.1637485 64.2025908 10.7842757 63.6972842 9.58735293M82.0863286 30.8254708C82.0863286 31.1449717 81.9928983 31.6578377 81.8080179 32.3660956 81.584806 33.0041055 81.2618265 33.6217612 80.8360428 34.2251863 80.410259 34.8255495 79.8847957 35.36692 79.255516 35.843088 78.6261482 36.3193423 77.8888712 36.699949 77.0383599 36.982795 76.1889049 37.2677541 75.2273158 37.4081206 74.155573 37.4081206 72.8242672 37.4081206 71.6227429 36.982795 70.5531566 36.1341275 69.4793894 35.2855031 68.9435401 33.9575628 68.9435401 32.155438 68.9435401 30.6331407 69.370336 29.41206 70.219791 28.4921958 71.0692461 27.5722886 72.1399326 26.8742509 73.4348873 26.3959699 74.7277736 25.9197587 76.1421677 25.6084082 77.6749451 25.4679554 79.1401253 25.3284945 80.6125668 25.2754528 82.0842602 25.3092184L82.0863286 25.3092184 82.0863286 30.8254708zM84.7458597 35.9764254C84.7084523 34.9506935 84.6908048 33.9240128 84.6908048 32.8982377L84.6929172 32.8982377 84.6929172 22.8670569C84.6903207 21.6819842 84.5692969 20.5000163 84.3315182 19.3381008 84.106634 18.1881305 83.6444111 17.0952986 82.9731911 16.1266619 82.3075161 15.1721697 81.3926202 14.3937071 80.2285033 13.7923088 79.0634182 13.1909538 77.5576181 12.890729 75.7091225 12.890729 74.3798411 12.8858129 73.0557968 13.0552015 71.7723284 13.3944528 70.5168055 13.7302543 69.2955653 14.2868474 68.1138449 15.0642751L68.9456085 16.922374C69.8698342 16.3199839 70.8947958 15.85188 72.0226056 15.5160784 73.1503273 15.1802769 74.2853986 15.0123977 75.4328802 15.0123977 76.946998 15.0123977 78.1495345 15.2779944 79.0363529 15.8091447 79.9232153 16.3393032 80.587834 16.9936137 81.0312212 17.7710415 81.4704715 18.534756 81.7623369 19.3712627 81.8921625 20.2386457 82.0209318 21.1046057 82.0863286 21.874918 82.0863286 22.5485479L82.0863286 23.2384352C76.7621616 23.1672385 72.7785862 23.9456581 70.1356905 25.5737801 67.4928388 27.2019021 66.171875 29.5189196 66.171875 32.5258676 66.1756597 33.3953637 66.3352351 34.2574425 66.6433397 35.0728188 66.9511362 35.9118267 67.4318868 36.6797672 68.0556655 37.3288168 68.683933 37.9830411 69.4877071 38.5131995 70.4669877 38.9202839 71.4482926 39.3272821 72.5854323 39.5308243 73.8783185 39.5308243 74.8433403 39.5395352 75.8047974 39.4145206 76.7340841 39.1594029 77.603299 38.9120905 78.3790396 38.5844824 79.0633742 38.1774411 79.7466966 37.7703999 80.3469306 37.3185965 80.8640763 36.8241011 81.381222 36.3295194 81.8059495 35.8349809 82.1382589 35.3383724L82.2514491 35.3383724 82.6388133 38.9477535 85.078125 38.9477535C84.8922765 37.9912345 84.7822108 37.0021143 84.7458597 35.9764254L84.7458597 35.9764254zM89.6348458 13.7520629L96.5539164 30.6046105C96.93967 31.5583511 97.2997128 32.5218353 97.6334592 33.4941416 97.9734196 34.4842235 98.2762769 35.3946003 98.5408156 36.2220679L98.6545109 36.2220679C98.9201303 35.4308538 99.221907 34.5390866 99.5619123 33.5479514 99.9029533 32.5588789 100.281187 31.5408388 100.696659 30.4947965L107.165226 13.7510534 110 13.7510534 102.116163 32.7660421C101.394321 34.603079 100.646949 36.4305477 99.8742705 38.2478339 99.2376217 39.7560871 98.5277575 41.2339241 97.7471095 42.6764293 97.0966371 43.8828914 96.3665554 45.0469991 95.5615474 46.1614667 94.8530791 47.1383815 94.0245215 48.0270324 93.0943811 48.807625 92.037172 49.7065902 91.0617786 50.3652549 90.1724333 50.7795374 89.2842138 51.1937759 88.6891707 51.4548366 88.3863584 51.5625L87.4768407 49.4559754C88.254877 49.1195547 89.012876 48.7409553 89.7474604 48.3218888 90.63577 47.8114862 91.4550068 47.1946052 92.185899 46.4856419 92.868071 45.8372915 93.6150382 44.9838846 94.427836 43.9192327 95.2406339 42.8576532 95.9684642 41.5703448 96.6123625 40.0571759 96.8386725 39.4813764 96.9523679 39.1022942 96.9523679 38.9221237 96.9523679 38.671465 96.8397532 38.2923828 96.6123625 37.788037L86.796875 13.75 89.6348458 13.75 89.6348458 13.7520629z"/></g></svg>