<svg width="609" height="561" viewBox="0 0 609 561" fill="none" xmlns="http://www.w3.org/2000/svg">
<path d="M551.135 373.878V213.563C551.135 194.976 537.27 177.669 513.549 163.008V92.7988C513.549 85.9265 507.632 80.2417 499.928 79.1665C505.582 76.9599 509.581 72.4064 509.581 66.9273C509.581 59.3257 492.813 34.7914 492.813 34.7914C492.813 34.7914 476.025 59.3164 476.025 66.9273C476.025 72.3316 479.933 76.8477 485.474 79.0917C477.334 79.8397 470.95 85.6647 470.95 92.7988V143.148C456.087 137.926 440.862 133.625 425.376 130.274C426.176 128.507 426.599 126.615 426.625 124.701C426.625 115.51 406.325 85.8611 406.325 85.8611C406.325 85.8611 387.75 113.013 386.187 123.392C366.303 120.69 345.141 119.119 323.308 118.483V51.1165C323.308 44.9361 318.111 39.7749 311.25 38.6436C315.929 36.6333 319.197 32.7437 319.197 28.1155C319.187 21.4583 304.5 0 304.5 0C304.5 0 289.813 21.4583 289.813 28.1155C289.813 32.6876 293 36.5398 297.588 38.5688C290.351 39.429 284.738 44.693 284.738 51.1165V118.493C263.392 119.147 242.697 120.699 223.229 123.336C221.321 112.724 203.122 86.1322 203.122 86.1322C203.122 86.1322 182.822 115.772 182.822 124.972C182.822 126.814 183.279 128.553 183.948 130.208C167.954 133.645 152.24 138.109 136.923 143.569V92.939C136.923 86.0761 130.996 80.3913 123.282 79.316C128.935 77.1094 132.955 72.5467 132.955 67.0676C132.955 59.466 116.167 34.9316 116.167 34.9316C116.167 34.9316 99.3786 59.4567 99.3786 67.0676C99.3786 72.4719 103.297 76.9879 108.838 79.2319C100.688 79.9893 94.3036 85.8143 94.3036 92.939V163.756C71.2936 178.267 57.8448 195.303 57.8448 213.573V373.907C21.4875 393.317 0 417.197 0 443.031C0 508.191 136.335 561 304.5 561C472.665 561 609 508.191 609 443.031C609 417.188 587.502 393.308 551.135 373.878V373.878ZM484.409 74.2671C484.409 70.4616 492.813 58.1944 492.813 58.1944C492.813 58.1944 501.217 70.4616 501.217 74.2671C501.199 75.1862 500.963 76.0906 500.526 76.9173C500.09 77.744 499.463 78.4732 498.69 79.0543C498.223 79.0169 497.766 78.9327 497.289 78.9327H487.22C487.088 78.9327 486.977 78.9607 486.845 78.9607C486.097 78.3848 485.493 77.6677 485.073 76.8579C484.652 76.0481 484.426 75.1645 484.409 74.2671ZM481.09 92.7988C481.09 90.3491 483.891 88.2921 487.22 88.2921H497.289C500.598 88.2921 503.399 90.3584 503.399 92.7988V193.751C503.382 194.741 502.962 195.688 502.222 196.406L498.487 198.164C498.095 198.228 497.697 198.263 497.299 198.267H487.23C483.911 198.267 481.1 196.191 481.1 193.751V92.7988H481.09ZM406.315 114.154C406.315 114.154 416.485 128.974 416.485 133.574C416.485 138.165 411.928 141.896 406.315 141.896C400.702 141.896 396.165 138.174 396.165 133.574C396.165 128.974 406.315 114.154 406.315 114.154V114.154ZM297.162 34.5295C297.162 31.2103 304.5 20.4859 304.5 20.4859C304.5 20.4859 311.859 31.2009 311.859 34.5295C311.84 35.2858 311.653 36.0304 311.309 36.7172C310.965 37.404 310.472 38.0184 309.859 38.522C309.372 38.4752 308.905 38.3911 308.408 38.3911H299.608C299.425 38.3911 299.263 38.4285 299.08 38.4379C298.49 37.9398 298.016 37.3366 297.686 36.6648C297.356 35.9931 297.178 35.2666 297.162 34.5295V34.5295ZM294.888 51.1165C294.888 49.2932 297.05 47.7505 299.608 47.7505H308.408C310.976 47.7505 313.148 49.2932 313.148 51.1165V139.455C313.137 140.132 312.855 140.781 312.356 141.279L309.26 142.746C308.978 142.784 308.693 142.803 308.408 142.803H299.608C297.05 142.803 294.888 141.269 294.888 139.455V51.1165V51.1165ZM203.122 114.407C203.122 114.407 213.272 129.236 213.272 133.836C213.272 138.417 208.735 142.157 203.122 142.157C197.509 142.157 192.972 138.427 192.972 133.836C192.972 129.236 203.122 114.407 203.122 114.407ZM107.783 74.3886C107.783 70.6019 116.167 58.3347 116.167 58.3347C116.167 58.3347 124.571 70.6019 124.571 74.3886C124.554 75.3117 124.318 76.2201 123.88 77.0503C123.441 77.8805 122.811 78.6124 122.033 79.1945C121.567 79.1571 121.12 79.073 120.643 79.073H110.574C110.452 79.073 110.341 79.101 110.219 79.101C109.472 78.5202 108.869 77.7995 108.449 76.9869C108.029 76.1742 107.802 75.2885 107.783 74.3886V74.3886ZM104.454 92.9203C104.454 90.48 107.255 88.423 110.584 88.423H120.653C123.972 88.423 126.784 90.4893 126.784 92.9203V193.882C126.764 194.867 126.34 195.809 125.596 196.518L121.861 198.285C121.465 198.35 121.065 198.384 120.663 198.388H110.594C107.275 198.388 104.464 196.322 104.464 193.882V92.9203H104.454ZM93.248 201.782C93.583 200.193 94.2529 198.744 94.8517 197.266C95.5216 199.529 96.8412 201.558 98.6377 203.232C97.846 208.57 99.267 213.984 102.363 218.668C108.95 228.421 120.227 235.246 131.717 240.669C147.804 248.046 165.12 252.749 182.822 256.452V161.278C182.822 158.8 184.111 156.631 185.999 154.845C183.076 155.369 180.132 155.762 177.229 156.36C163.577 159.221 149.692 163.008 136.923 168.478V163.532C137.076 163.466 137.218 163.391 137.37 163.335C149.834 158.202 162.836 154.434 176.021 151.554C202.441 145.922 229.389 142.646 256.491 141.774C265.981 141.447 275.491 141.494 285.012 141.709C285.997 146.309 289.874 149.993 294.959 151.442C282.217 150.231 269.421 149.566 256.612 149.45C241.567 149.383 226.529 150.033 211.556 151.395C217.535 152.461 222.062 156.369 222.062 161.278V178.407L222.6 178.164C229.563 175.378 236.454 173.77 243.417 172.554C257.313 170.198 271.228 169.684 285.083 170.413C299.009 171.301 312.61 173.078 326.211 178.417C329.56 179.819 332.9 181.53 335.995 184.111C338.929 186.476 342.37 191.067 340.989 196.322C339.518 201.221 335.853 203.708 332.727 205.616C329.556 207.407 326.134 208.791 322.557 209.73C308.783 213.404 294.847 213.367 281.216 211.768C274.385 210.768 267.727 209.608 261.231 206.719C258.216 205.204 254.643 203.363 253.588 199.454C253.009 195.144 257.039 192.9 259.84 191.535L260.571 192.76C257.891 194.256 255.232 196.705 256.003 198.968C256.775 201.231 259.81 202.801 262.631 203.895C268.447 206.037 275.268 206.813 281.713 207.261C294.756 207.907 308.225 206.766 320.121 202.998C325.46 201.418 332.098 197.379 332.362 194.583C333.194 192.582 327.916 188.599 322.313 186.85C310.895 182.98 297.365 181.801 284.565 181.362C271.614 181.091 258.52 182.007 246.056 184.541C239.875 185.813 233.744 187.514 228.456 189.842C226.216 190.834 224.076 192.007 222.062 193.349V207.533C225.837 209.945 230.578 211.946 235.49 213.535C247.031 217.172 260.347 219.211 273.096 220.464C298.928 222.979 325.46 222.175 350.835 217.79C363.309 215.527 375.662 212.301 386.025 206.841V173.162C381.945 170.918 377.631 168.861 373.073 167.103C361.33 162.568 348.592 159.567 335.63 157.052C324.337 155.009 312.96 153.381 301.526 152.171H308.428C309.697 152.171 310.955 152.031 312.184 151.751L317.705 149.282L318.761 148.618C320.314 147.328 321.481 145.804 322.252 144.14C327.469 144.729 332.676 145.308 337.873 146.131C351.261 148.291 364.791 151.002 378.047 155.621C380.919 156.612 383.761 157.763 386.583 158.997C387.862 154.312 393.059 150.703 399.575 150.703H411.745C419.215 150.703 425.285 155.341 425.285 161.044V258.341C456.608 249.804 486.266 236.331 511.235 216.069L512.291 217.07C494.041 235.442 470.838 249.739 445.869 259.78C439.119 262.464 432.248 264.867 425.295 267.064V274.89C425.295 277.732 423.793 280.322 421.347 282.183L415.257 284.876C414.103 285.108 412.926 285.231 411.745 285.24H399.575C392.947 285.24 387.679 281.529 386.512 276.704C380.087 277.891 373.621 278.911 367.146 279.733C318.801 285.839 269.655 283.707 221.94 275.619C221.847 276.934 221.462 278.218 220.809 279.39C220.156 280.562 219.249 281.599 218.144 282.435L212.054 285.119C210.947 285.343 209.75 285.493 208.542 285.493H196.372C188.881 285.493 182.832 280.855 182.832 275.142V267.466C163.851 262.688 145.084 256.62 127.697 247.541C115.872 241.137 104.037 233.339 96.9223 221.511C93.451 215.639 91.7357 208.514 93.248 201.782V201.782ZM530.835 423.901C530.835 460.188 434.044 500.767 304.5 500.767C174.945 500.767 78.1449 460.188 78.1449 423.901V386.744C88.1325 386.248 96.1103 379.582 96.1103 371.363V335.319C96.1103 323.968 107.468 314.768 121.485 314.768C135.502 314.768 146.881 323.968 146.881 335.319V379.788C146.881 392.99 160.106 403.705 176.397 403.705C192.708 403.705 205.933 392.99 205.933 379.788V334.356C205.933 322.472 217.829 312.851 232.496 312.851C247.183 312.851 259.079 322.472 259.079 334.356V363.322C259.079 369.933 265.676 375.281 273.847 375.281C281.997 375.281 288.595 369.933 288.595 363.322V340.34C288.595 331.757 297.202 324.8 307.809 324.8C318.395 324.8 326.982 331.757 326.982 340.34V379.797C326.982 392.999 340.228 403.714 356.519 403.714C372.83 403.714 386.055 392.999 386.055 379.797V335.572C386.055 324.352 397.291 315.245 411.156 315.245C425.021 315.245 436.257 324.352 436.257 335.572V367.848C436.257 374.449 442.855 379.797 451.025 379.797C459.176 379.797 465.794 374.449 465.794 367.848V345.249C465.794 339.368 471.66 334.599 478.918 334.599C486.195 334.599 492.082 339.368 492.082 345.249V379.797C492.082 392.999 505.287 403.714 521.598 403.714C524.846 403.714 527.912 403.181 530.835 402.396V423.901" fill="#D6D4DF"/>
</svg>
