<svg width="468" height="381" viewBox="0 0 468 381" fill="none" xmlns="http://www.w3.org/2000/svg">
<path d="M315.84 380.239C327.91 380.24 339.832 378.073 350.751 373.893C361.67 369.713 371.317 363.624 379.002 356.061C386.687 348.498 392.219 339.649 395.203 330.146C398.187 320.643 398.548 310.722 396.262 301.092L395.911 299.837C416.267 294.32 434.065 283.882 446.921 269.922C459.777 255.961 467.08 239.143 467.851 221.719C468.622 204.294 462.825 187.093 451.235 172.419C439.646 157.744 422.817 146.295 403.001 139.605L377.59 15.894C376.681 11.4547 373.864 7.42108 369.64 4.51074C365.415 1.6004 360.057 0.0020752 354.518 0H113.37C107.831 0.0020752 102.473 1.6004 98.2484 4.51074C94.0239 7.42108 91.2069 11.4547 90.2985 15.894L66.2211 133.198C50.0274 133.944 34.6515 139.224 22.7069 148.14C10.7624 157.055 2.98636 169.057 0.700641 182.104C-1.58507 195.152 1.76057 208.439 10.1689 219.709C18.5772 230.979 31.5293 239.535 46.8235 243.923L46.7533 247.155C46.7507 266.406 52.7447 285.345 64.1769 302.207C75.6091 319.069 92.1076 333.306 112.136 343.592C132.164 353.878 155.07 359.878 178.721 361.033C202.372 362.189 225.998 358.462 247.398 350.2C254.837 359.433 264.989 367.014 276.939 372.259C288.889 377.504 302.258 380.246 315.84 380.239ZM210.545 133.083H163.747V38.0238H210.545V133.083ZM304.141 133.083H257.343V38.0238H304.141V133.083ZM362.638 171.107C371.286 171.107 379.828 172.666 387.646 175.67C395.465 178.674 402.366 183.05 407.853 188.482C413.341 193.914 417.277 200.267 419.38 207.083C421.482 213.9 421.698 221.01 420.012 227.903C418.326 234.795 414.78 241.298 409.629 246.943C404.479 252.588 397.851 257.235 390.225 260.549C382.598 263.864 374.162 265.762 365.524 266.109C356.885 266.456 348.26 265.242 340.268 262.555L336.174 261.015C325.377 256.494 312.839 255.562 301.212 258.414C289.584 261.266 279.777 267.68 273.862 276.3L272.225 278.905C264.747 292.129 252.756 303.332 237.675 311.184C222.594 319.036 205.058 323.207 187.146 323.203C137.026 323.203 96.1014 291.187 93.668 251.585L93.551 247.839L93.6212 244.607C93.7866 237.142 91.2432 229.802 86.3081 223.503C81.3731 217.205 74.2649 212.226 65.8701 209.188L62.3603 208.066C57.1647 206.563 52.7886 203.619 50.0027 199.751C47.2168 195.884 46.1999 191.342 47.1311 186.925C48.0622 182.508 50.8818 178.5 55.093 175.607C59.3042 172.713 64.637 171.12 70.1521 171.107H362.638Z" fill="#D6D4DF"/>
</svg>
