<svg width="323" height="344" viewBox="0 0 323 344" fill="none" xmlns="http://www.w3.org/2000/svg">
<path fill-rule="evenodd" clip-rule="evenodd" d="M243.949 241.808C269.893 238.062 290.961 214.821 290.982 189.625L196.202 203.401C196.7 228.461 218.063 245.525 243.949 241.808Z" fill="#D6D4DF"/>
<path fill-rule="evenodd" clip-rule="evenodd" d="M148.82 210.316C122.811 214.09 102.595 237.36 103.581 262.024L196.883 248.585C196.384 223.766 174.85 206.53 148.82 210.316" fill="#D6D4DF"/>
<path fill-rule="evenodd" clip-rule="evenodd" d="M222.35 68.5078C222.132 66.9457 221.842 65.396 221.482 63.8642L234.028 64.1043L219.21 45.8501L229.521 30.5867L205.94 27.9447L203.228 4.85809L187.654 14.946L169.008 0.4375L168.012 12.3897C164.829 11.7097 161.594 11.3516 158.349 11.3203C147.287 11.3203 137.233 15.4378 129.285 23.2096C111.738 40.3944 105.505 68.6336 105.5 87.6027C105.5 91.5829 105.768 96.1122 106.54 100.607C48.6101 128.006 0.71875 161.672 0.71875 161.672V343.562L322.281 299.128V114.298C322.281 94.2307 256.741 73.4145 222.35 68.5078ZM136.568 31.5418C142.898 25.3484 150.465 22.6606 158.354 22.6606C170.916 22.6606 184.293 29.4602 194.787 39.7196C211.814 56.3955 219.574 80.7745 203.174 96.8556C189.16 110.581 164.689 116.625 145.942 116.625C135.035 116.625 126.058 114.578 122.205 110.804C111.631 100.447 114.289 53.3588 136.568 31.5418ZM297.532 291.11L11.4375 330.638V290.893L297.564 250.656L297.532 291.11ZM297.569 239.212L11.4375 279.45V245.171C18.812 261.699 36.7016 271.666 56.9279 268.75C82.5618 265.056 102.568 242.083 101.555 217.184L11.4375 230.28V222.462L297.607 183.34L297.569 239.212ZM297.607 171.903L11.4375 211.025V171.611L297.628 131.448L297.607 171.903Z" fill="#D6D4DF"/>
<path fill-rule="evenodd" clip-rule="evenodd" d="M142.463 90.451L146.279 94.2368L150.095 90.451L146.279 86.6709L142.463 90.451Z" fill="#D6D4DF"/>
<path fill-rule="evenodd" clip-rule="evenodd" d="M204.873 67.2492L201.068 63.4634L197.252 67.2492L201.068 71.0293L204.873 67.2492Z" fill="#D6D4DF"/>
<path fill-rule="evenodd" clip-rule="evenodd" d="M186.641 71.0306L182.825 67.2505L179.02 71.0306L182.825 74.8164L186.641 71.0306Z" fill="#D6D4DF"/>
<path fill-rule="evenodd" clip-rule="evenodd" d="M165.252 71.0293L169.057 67.2492L165.252 63.4634L161.43 67.2492L165.252 71.0293Z" fill="#D6D4DF"/>
<path fill-rule="evenodd" clip-rule="evenodd" d="M189.24 51.8548L185.429 48.0747L181.614 51.8548L185.429 55.6406L189.24 51.8548Z" fill="#D6D4DF"/>
<path fill-rule="evenodd" clip-rule="evenodd" d="M178.103 35.6247L174.287 31.8389L170.477 35.6247L174.287 39.4105L178.103 35.6247Z" fill="#D6D4DF"/>
<path fill-rule="evenodd" clip-rule="evenodd" d="M161.43 53.4105L165.246 49.6247L161.43 45.8389L157.62 49.6247L161.43 53.4105Z" fill="#D6D4DF"/>
<path fill-rule="evenodd" clip-rule="evenodd" d="M145.61 69.8519L149.42 66.0718L145.61 62.2803L141.788 66.0718L145.61 69.8519Z" fill="#D6D4DF"/>
<path fill-rule="evenodd" clip-rule="evenodd" d="M162.368 88.0998L166.179 91.8799L170 88.0998L166.179 84.314L162.368 88.0998Z" fill="#D6D4DF"/>
<path fill-rule="evenodd" clip-rule="evenodd" d="M198.148 88.7002L194.332 84.9087L190.516 88.7002L194.332 92.4803L198.148 88.7002Z" fill="#D6D4DF"/>
<path fill-rule="evenodd" clip-rule="evenodd" d="M179.02 107.698L182.825 103.912L179.02 100.126L175.209 103.912L179.02 107.698Z" fill="#D6D4DF"/>
<path fill-rule="evenodd" clip-rule="evenodd" d="M150.095 107.699L153.911 111.479L157.727 107.699L153.911 103.913L150.095 107.699Z" fill="#D6D4DF"/>
<path fill-rule="evenodd" clip-rule="evenodd" d="M126.321 100.126L130.137 103.912L133.947 100.126L130.137 96.3462L126.321 100.126Z" fill="#D6D4DF"/>
<path fill-rule="evenodd" clip-rule="evenodd" d="M131.343 80.5291L127.532 76.749L123.727 80.5291L127.532 84.3149L131.343 80.5291Z" fill="#D6D4DF"/>
<path fill-rule="evenodd" clip-rule="evenodd" d="M143.08 43.1965L139.258 39.4106L135.443 43.1965L139.258 46.9823L143.08 43.1965Z" fill="#D6D4DF"/>
<path fill-rule="evenodd" clip-rule="evenodd" d="M133.948 60.5242L130.137 56.7441L126.327 60.5242L130.137 64.31L133.948 60.5242Z" fill="#D6D4DF"/>
<path fill-rule="evenodd" clip-rule="evenodd" d="M158.82 30.7811L155.005 27.001L151.194 30.7811L155.005 34.5669L158.82 30.7811Z" fill="#D6D4DF"/>
</svg>
