<svg width="30" height="34" viewBox="0 0 30 34" fill="none" xmlns="http://www.w3.org/2000/svg">
<path d="M29.985 11.54L28.7269 19.8388C28.5717 20.7555 27.9365 21.3129 27.204 21.3234H8.8625L8.49835 23.6836H25.979C26.8995 23.764 27.5238 24.5138 27.5351 25.4727C27.4681 26.5289 26.8161 27.2488 25.979 27.2619H6.64432C5.59865 27.1538 4.97512 26.1954 5.08827 25.1301L5.91595 19.9529L4.65787 5.41105L1.0823 4.11683C0.208522 3.71792 -0.148103 2.80904 0.0559724 1.87084C0.395297 0.893055 1.20837 0.446318 2.0093 0.690743L6.5781 2.36573C7.1936 2.63102 7.54767 3.21033 7.63752 3.88844L7.90237 6.78158L28.6275 9.44631C29.5798 9.68349 30.0968 10.5508 29.985 11.54ZM11.3818 31.0187C11.3818 32.5271 10.3183 33.75 9.00635 33.75C7.69442 33.75 6.63092 32.5271 6.63092 31.0187C6.63092 29.5102 7.69445 28.2873 9.00635 28.2873C10.3183 28.2873 11.3818 29.5102 11.3818 31.0187ZM25.5631 31.0187C25.5631 32.5271 24.4996 33.75 23.1876 33.75C21.8757 33.75 20.8122 32.5271 20.8122 31.0187C20.8122 29.5102 21.8757 28.2873 23.1876 28.2873C24.4996 28.2873 25.5631 29.5102 25.5631 31.0187Z" fill="white"/>
</svg>
