<svg width="1440" height="937" viewBox="0 0 1440 937" fill="none" xmlns="http://www.w3.org/2000/svg">
<rect width="1440" height="937" fill="white"/>
<path d="M314.167 179.009C316.6 179.009 318.948 179.294 321.17 179.816C322.455 178.114 324.224 177.016 326.52 176.496C328.978 175.939 330.402 173.907 329.7 171.958C328.998 170.008 326.436 168.879 323.977 169.437C318.015 170.787 313.7 174.124 311.378 179.138C312.294 179.056 313.224 179.009 314.167 179.009V179.009Z" fill="#A8B4AE" fill-opacity="0.14"/>
<path d="M314.167 210.822C305.658 210.822 298.736 205.333 298.736 198.586C298.736 191.84 305.658 186.351 314.167 186.351C322.676 186.351 329.598 191.84 329.598 198.586C329.598 205.333 322.676 210.822 314.167 210.822Z" fill="#A8B4AE" fill-opacity="0.14"/>
<path d="M356.426 212.018C355.513 204.021 348.19 197.469 338.575 195.626C338.76 196.592 338.857 197.58 338.857 198.586C338.857 209.381 327.781 218.163 314.167 218.163C300.553 218.163 289.477 209.381 289.477 198.586C289.477 197.664 289.564 196.759 289.72 195.871C280.766 197.974 274.028 204.208 273.038 211.777C268.321 212.681 264.025 214.67 260.677 217.541C256.432 221.181 254.094 225.918 254.094 230.878C254.094 241.717 265.215 250.535 278.885 250.535C285.539 250.535 291.755 248.463 296.341 244.84C300.928 248.463 307.143 250.535 313.798 250.535C320.575 250.535 327.004 248.309 331.624 244.527C336.244 248.309 342.673 250.535 349.449 250.535C363.118 250.535 374.239 241.717 374.239 230.878C374.24 222.09 366.799 214.434 356.426 212.018Z" fill="#A8B4AE" fill-opacity="0.14"/>
<path d="M292.037 294.55L281.051 257.821C280.333 257.856 279.611 257.876 278.885 257.876C273.744 257.876 268.867 256.966 264.493 255.342L274.616 284.449C276.636 290.257 284.028 294.36 292.736 294.577C292.502 294.571 292.269 294.562 292.037 294.55Z" fill="#A8B4AE" fill-opacity="0.14"/>
<path d="M349.449 257.876C348.739 257.876 348.03 257.855 347.323 257.819L336.392 294.546C336.14 294.559 335.887 294.569 335.632 294.576C344.32 294.346 351.689 290.247 353.706 284.449L363.827 255.347C359.457 256.968 354.585 257.876 349.449 257.876Z" fill="#A8B4AE" fill-opacity="0.14"/>
<path d="M296.342 254.079C294.361 255.019 292.269 255.792 290.093 256.39L301.452 294.587H309.497V257.661C304.81 257.197 300.346 255.98 296.342 254.079V254.079Z" fill="#A8B4AE" fill-opacity="0.14"/>
<path d="M331.624 253.858C327.7 255.767 323.311 257.039 318.756 257.58V294.588H326.855L338.242 256.35C335.935 255.708 333.713 254.875 331.624 253.858Z" fill="#A8B4AE" fill-opacity="0.14"/>
<path d="M1122.83 185.755C1125.27 185.755 1127.61 186.04 1129.84 186.563C1131.12 184.86 1132.89 183.762 1135.19 183.242C1137.64 182.685 1139.07 180.653 1138.37 178.704C1137.66 176.755 1135.1 175.625 1132.64 176.183C1126.68 177.533 1122.37 180.87 1120.04 185.884C1120.96 185.802 1121.89 185.755 1122.83 185.755V185.755Z" fill="#A8B4AE" fill-opacity="0.14"/>
<path d="M1122.83 217.568C1114.32 217.568 1107.4 212.079 1107.4 205.332C1107.4 198.586 1114.32 193.097 1122.83 193.097C1131.34 193.097 1138.26 198.586 1138.26 205.332C1138.26 212.079 1131.34 217.568 1122.83 217.568Z" fill="#A8B4AE" fill-opacity="0.14"/>
<path d="M1165.09 218.764C1164.18 210.768 1156.86 204.216 1147.24 202.373C1147.43 203.338 1147.52 204.327 1147.52 205.333C1147.52 216.127 1136.45 224.91 1122.83 224.91C1109.22 224.91 1098.14 216.127 1098.14 205.333C1098.14 204.411 1098.23 203.506 1098.39 202.617C1089.43 204.72 1082.69 210.955 1081.7 218.523C1076.99 219.427 1072.69 221.417 1069.34 224.288C1065.1 227.928 1062.76 232.664 1062.76 237.625C1062.76 248.464 1073.88 257.281 1087.55 257.281C1094.21 257.281 1100.42 255.209 1105.01 251.587C1109.59 255.209 1115.81 257.281 1122.46 257.281C1129.24 257.281 1135.67 255.056 1140.29 251.274C1144.91 255.056 1151.34 257.281 1158.12 257.281C1171.78 257.281 1182.91 248.463 1182.91 237.625C1182.91 228.836 1175.47 221.18 1165.09 218.764Z" fill="#A8B4AE" fill-opacity="0.14"/>
<path d="M1100.7 301.297L1089.72 264.568C1089 264.603 1088.28 264.623 1087.55 264.623C1082.41 264.623 1077.53 263.713 1073.16 262.088L1083.28 291.196C1085.3 297.004 1092.69 301.106 1101.4 301.324C1101.17 301.318 1100.94 301.308 1100.7 301.297Z" fill="#A8B4AE" fill-opacity="0.14"/>
<path d="M1158.12 264.622C1157.41 264.622 1156.7 264.602 1155.99 264.566L1145.06 301.292C1144.81 301.305 1144.55 301.316 1144.3 301.323C1152.99 301.092 1160.36 296.993 1162.37 291.195L1172.49 262.093C1168.12 263.715 1163.25 264.622 1158.12 264.622Z" fill="#A8B4AE" fill-opacity="0.14"/>
<path d="M1105.01 260.826C1103.03 261.766 1100.94 262.539 1098.76 263.137L1110.12 301.334H1118.16V264.408C1113.48 263.944 1109.01 262.727 1105.01 260.826V260.826Z" fill="#A8B4AE" fill-opacity="0.14"/>
<path d="M1140.29 260.605C1136.37 262.514 1131.98 263.786 1127.42 264.326V301.334H1135.52L1146.91 263.097C1144.6 262.455 1142.38 261.622 1140.29 260.605Z" fill="#A8B4AE" fill-opacity="0.14"/>
<path d="M729.128 185.755C731.561 185.755 733.91 186.04 736.132 186.563C737.417 184.86 739.185 183.762 741.482 183.242C743.94 182.685 745.364 180.653 744.661 178.704C743.959 176.755 741.397 175.625 738.938 176.183C732.976 177.533 728.662 180.87 726.34 185.884C727.256 185.802 728.185 185.755 729.128 185.755V185.755Z" fill="#A8B4AE" fill-opacity="0.14"/>
<path d="M729.128 217.568C720.62 217.568 713.697 212.079 713.697 205.332C713.697 198.586 720.62 193.097 729.128 193.097C737.637 193.097 744.56 198.586 744.56 205.332C744.56 212.079 737.638 217.568 729.128 217.568Z" fill="#A8B4AE" fill-opacity="0.14"/>
<path d="M771.388 218.764C770.474 210.768 763.151 204.216 753.536 202.373C753.722 203.338 753.818 204.327 753.818 205.333C753.818 216.127 742.742 224.91 729.128 224.91C715.514 224.91 704.438 216.127 704.438 205.333C704.438 204.411 704.525 203.506 704.681 202.617C695.727 204.72 688.989 210.955 688 218.523C683.283 219.427 678.987 221.417 675.638 224.288C671.394 227.928 669.056 232.664 669.056 237.625C669.056 248.464 680.177 257.281 693.846 257.281C700.501 257.281 706.716 255.209 711.303 251.587C715.89 255.209 722.105 257.281 728.76 257.281C735.536 257.281 741.965 255.056 746.585 251.274C751.205 255.056 757.634 257.281 764.41 257.281C778.08 257.281 789.201 248.463 789.201 237.625C789.201 228.836 781.76 221.18 771.388 218.764Z" fill="#A8B4AE" fill-opacity="0.14"/>
<path d="M706.998 301.297L696.013 264.568C695.295 264.603 694.573 264.623 693.846 264.623C688.706 264.623 683.828 263.713 679.454 262.088L689.577 291.196C691.597 297.004 698.99 301.106 707.697 301.324C707.463 301.318 707.23 301.308 706.998 301.297Z" fill="#A8B4AE" fill-opacity="0.14"/>
<path d="M764.411 264.622C763.7 264.622 762.991 264.602 762.284 264.566L751.353 301.292C751.101 301.305 750.848 301.316 750.594 301.323C759.281 301.092 766.651 296.993 768.667 291.195L778.789 262.093C774.418 263.715 769.546 264.622 764.411 264.622Z" fill="#A8B4AE" fill-opacity="0.14"/>
<path d="M711.303 260.826C709.323 261.766 707.23 262.539 705.054 263.137L716.414 301.334H724.459V264.408C719.771 263.944 715.307 262.727 711.303 260.826V260.826Z" fill="#A8B4AE" fill-opacity="0.14"/>
<path d="M746.585 260.605C742.662 262.514 738.273 263.786 733.718 264.326V301.334H741.816L753.204 263.097C750.896 262.455 748.674 261.622 746.585 260.605Z" fill="#A8B4AE" fill-opacity="0.14"/>
<path d="M729.128 425.743C731.561 425.743 733.91 426.028 736.132 426.55C737.416 424.847 739.185 423.749 741.482 423.229C743.94 422.672 745.364 420.641 744.661 418.691C743.959 416.742 741.397 415.613 738.938 416.17C732.976 417.521 728.662 420.857 726.34 425.871C727.256 425.789 728.185 425.743 729.128 425.743V425.743Z" fill="#A8B4AE" fill-opacity="0.14"/>
<path d="M729.128 457.556C720.62 457.556 713.697 452.067 713.697 445.32C713.697 438.573 720.62 433.084 729.128 433.084C737.637 433.084 744.56 438.573 744.56 445.32C744.56 452.067 737.638 457.556 729.128 457.556Z" fill="#A8B4AE" fill-opacity="0.14"/>
<path d="M771.388 458.751C770.474 450.755 763.151 444.203 753.536 442.36C753.722 443.325 753.818 444.314 753.818 445.319C753.818 456.114 742.742 464.896 729.128 464.896C715.514 464.896 704.438 456.114 704.438 445.319C704.438 444.398 704.525 443.492 704.681 442.604C695.727 444.707 688.989 450.941 688 458.51C683.283 459.414 678.987 461.404 675.638 464.275C671.394 467.915 669.056 472.651 669.056 477.611C669.056 488.45 680.177 497.268 693.846 497.268C700.501 497.268 706.716 495.196 711.303 491.574C715.89 495.196 722.105 497.268 728.76 497.268C735.536 497.268 741.965 495.043 746.585 491.26C751.205 495.043 757.634 497.268 764.41 497.268C778.08 497.268 789.201 488.45 789.201 477.611C789.201 468.823 781.76 461.167 771.388 458.751Z" fill="#A8B4AE" fill-opacity="0.14"/>
<path d="M706.998 541.283L696.013 504.554C695.295 504.589 694.573 504.609 693.846 504.609C688.706 504.609 683.828 503.699 679.454 502.075L689.577 531.182C691.597 536.99 698.99 541.093 707.697 541.31C707.463 541.304 707.23 541.295 706.998 541.283Z" fill="#A8B4AE" fill-opacity="0.14"/>
<path d="M764.411 504.609C763.7 504.609 762.991 504.588 762.284 504.552L751.353 541.278C751.101 541.292 750.848 541.302 750.594 541.309C759.281 541.078 766.651 536.98 768.667 531.182L778.789 502.08C774.418 503.701 769.546 504.609 764.411 504.609Z" fill="#A8B4AE" fill-opacity="0.14"/>
<path d="M711.303 500.812C709.323 501.752 707.23 502.525 705.054 503.123L716.414 541.321H724.459V504.395C719.771 503.931 715.307 502.713 711.303 500.812V500.812Z" fill="#A8B4AE" fill-opacity="0.14"/>
<path d="M746.585 500.592C742.662 502.501 738.273 503.773 733.718 504.313V541.321H741.816L753.204 503.083C750.896 502.442 748.674 501.608 746.585 500.592Z" fill="#A8B4AE" fill-opacity="0.14"/>
<path d="M729.128 665.729C731.561 665.729 733.91 666.014 736.132 666.536C737.416 664.833 739.185 663.736 741.482 663.216C743.94 662.659 745.364 660.627 744.661 658.678C743.959 656.728 741.397 655.599 738.938 656.157C732.976 657.507 728.662 660.843 726.34 665.858C727.256 665.775 728.185 665.729 729.128 665.729V665.729Z" fill="#A8B4AE" fill-opacity="0.14"/>
<path d="M729.128 697.542C720.62 697.542 713.697 692.053 713.697 685.306C713.697 678.559 720.62 673.07 729.128 673.07C737.637 673.07 744.56 678.559 744.56 685.306C744.56 692.053 737.638 697.542 729.128 697.542Z" fill="#A8B4AE" fill-opacity="0.14"/>
<path d="M771.388 698.737C770.474 690.741 763.151 684.189 753.536 682.346C753.722 683.312 753.818 684.3 753.818 685.306C753.818 696.101 742.742 704.883 729.128 704.883C715.514 704.883 704.438 696.101 704.438 685.306C704.438 684.384 704.525 683.479 704.681 682.59C695.727 684.693 688.989 690.928 688 698.497C683.283 699.4 678.987 701.39 675.638 704.261C671.394 707.901 669.056 712.637 669.056 717.598C669.056 728.437 680.177 737.254 693.846 737.254C700.501 737.254 706.716 735.182 711.303 731.56C715.89 735.182 722.105 737.254 728.76 737.254C735.536 737.254 741.965 735.029 746.585 731.247C751.205 735.029 757.634 737.254 764.41 737.254C778.08 737.254 789.201 728.436 789.201 717.598C789.201 708.809 781.76 701.154 771.388 698.737Z" fill="#A8B4AE" fill-opacity="0.14"/>
<path d="M706.998 781.27L696.013 744.541C695.295 744.576 694.573 744.596 693.846 744.596C688.706 744.596 683.828 743.686 679.454 742.062L689.577 771.169C691.597 776.977 698.99 781.08 707.697 781.297C707.463 781.291 707.23 781.281 706.998 781.27Z" fill="#A8B4AE" fill-opacity="0.14"/>
<path d="M764.411 744.595C763.7 744.595 762.991 744.574 762.284 744.538L751.353 781.265C751.101 781.278 750.848 781.288 750.594 781.296C759.281 781.065 766.651 776.966 768.667 771.168L778.789 742.066C774.418 743.687 769.546 744.595 764.411 744.595Z" fill="#A8B4AE" fill-opacity="0.14"/>
<path d="M711.303 740.799C709.323 741.739 707.23 742.512 705.054 743.11L716.414 781.308H724.459V744.381C719.771 743.917 715.307 742.7 711.303 740.799V740.799Z" fill="#A8B4AE" fill-opacity="0.14"/>
<path d="M746.585 740.578C742.662 742.487 738.273 743.759 733.718 744.299V781.308H741.816L753.204 743.07C750.896 742.428 748.674 741.595 746.585 740.578Z" fill="#A8B4AE" fill-opacity="0.14"/>
<path d="M309.546 658.982C311.979 658.982 314.328 659.267 316.549 659.789C317.834 658.086 319.603 656.989 321.899 656.469C324.358 655.912 325.781 653.88 325.079 651.931C324.377 649.981 321.815 648.852 319.356 649.409C313.394 650.76 309.079 654.096 306.757 659.11C307.674 659.028 308.603 658.982 309.546 658.982V658.982Z" fill="#A8B4AE" fill-opacity="0.14"/>
<path d="M309.546 690.795C301.037 690.795 294.115 685.306 294.115 678.559C294.115 671.812 301.037 666.323 309.546 666.323C318.055 666.323 324.977 671.812 324.977 678.559C324.977 685.306 318.055 690.795 309.546 690.795Z" fill="#A8B4AE" fill-opacity="0.14"/>
<path d="M351.805 691.991C350.892 683.994 343.568 677.442 333.954 675.6C334.139 676.565 334.236 677.553 334.236 678.559C334.236 689.354 323.16 698.136 309.546 698.136C295.932 698.136 284.856 689.354 284.856 678.559C284.856 677.638 284.943 676.732 285.099 675.844C276.145 677.947 269.407 684.181 268.417 691.75C263.7 692.654 259.404 694.643 256.056 697.514C251.811 701.154 249.473 705.891 249.473 710.851C249.473 721.69 260.594 730.508 274.264 730.508C280.918 730.508 287.133 728.436 291.72 724.814C296.307 728.436 302.522 730.508 309.177 730.508C315.954 730.508 322.382 728.282 327.003 724.5C331.623 728.283 338.052 730.508 344.828 730.508C358.497 730.508 369.618 721.69 369.618 710.851C369.618 702.063 362.178 694.407 351.805 691.991Z" fill="#A8B4AE" fill-opacity="0.14"/>
<path d="M287.415 774.524L276.43 737.794C275.712 737.83 274.99 737.849 274.264 737.849C269.123 737.849 264.246 736.939 259.872 735.315L269.995 764.422C272.015 770.231 279.407 774.333 288.115 774.55C287.881 774.544 287.648 774.535 287.415 774.524Z" fill="#A8B4AE" fill-opacity="0.14"/>
<path d="M344.828 737.848C344.118 737.848 343.409 737.828 342.702 737.792L331.771 774.518C331.519 774.531 331.266 774.542 331.011 774.549C339.699 774.318 347.068 770.22 349.085 764.422L359.206 735.319C354.836 736.941 349.964 737.848 344.828 737.848Z" fill="#A8B4AE" fill-opacity="0.14"/>
<path d="M291.72 734.053C289.74 734.993 287.648 735.765 285.471 736.363L296.831 774.561H304.876V737.635C300.189 737.171 295.725 735.953 291.72 734.053V734.053Z" fill="#A8B4AE" fill-opacity="0.14"/>
<path d="M327.003 733.832C323.079 735.741 318.691 737.012 314.135 737.553V774.561H322.234L333.621 736.323C331.314 735.682 329.092 734.848 327.003 733.832Z" fill="#A8B4AE" fill-opacity="0.14"/>
<path d="M1118.21 665.729C1120.65 665.729 1122.99 666.014 1125.22 666.536C1126.5 664.833 1128.27 663.736 1130.57 663.216C1133.02 662.659 1134.45 660.627 1133.75 658.678C1133.04 656.728 1130.48 655.599 1128.02 656.157C1122.06 657.507 1117.75 660.843 1115.42 665.858C1116.34 665.775 1117.27 665.729 1118.21 665.729V665.729Z" fill="#A8B4AE" fill-opacity="0.14"/>
<path d="M1118.21 697.542C1109.7 697.542 1102.78 692.053 1102.78 685.306C1102.78 678.559 1109.7 673.07 1118.21 673.07C1126.72 673.07 1133.64 678.559 1133.64 685.306C1133.64 692.053 1126.72 697.542 1118.21 697.542Z" fill="#A8B4AE" fill-opacity="0.14"/>
<path d="M1160.47 698.737C1159.56 690.741 1152.24 684.189 1142.62 682.346C1142.81 683.312 1142.9 684.3 1142.9 685.306C1142.9 696.101 1131.83 704.883 1118.21 704.883C1104.6 704.883 1093.52 696.101 1093.52 685.306C1093.52 684.384 1093.61 683.479 1093.77 682.59C1084.81 684.693 1078.07 690.928 1077.08 698.497C1072.37 699.4 1068.07 701.39 1064.72 704.261C1060.48 707.901 1058.14 712.637 1058.14 717.598C1058.14 728.437 1069.26 737.254 1082.93 737.254C1089.58 737.254 1095.8 735.182 1100.39 731.56C1104.97 735.182 1111.19 737.254 1117.84 737.254C1124.62 737.254 1131.05 735.029 1135.67 731.247C1140.29 735.029 1146.72 737.254 1153.49 737.254C1167.16 737.254 1178.28 728.436 1178.28 717.598C1178.28 708.809 1170.84 701.154 1160.47 698.737Z" fill="#A8B4AE" fill-opacity="0.14"/>
<path d="M1096.08 781.27L1085.1 744.541C1084.38 744.576 1083.66 744.596 1082.93 744.596C1077.79 744.596 1072.91 743.686 1068.54 742.062L1078.66 771.169C1080.68 776.977 1088.07 781.08 1096.78 781.297C1096.55 781.291 1096.31 781.281 1096.08 781.27Z" fill="#A8B4AE" fill-opacity="0.14"/>
<path d="M1153.49 744.595C1152.78 744.595 1152.08 744.574 1151.37 744.538L1140.44 781.265C1140.19 781.278 1139.93 781.288 1139.68 781.296C1148.37 781.065 1155.73 776.966 1157.75 771.168L1167.87 742.066C1163.5 743.687 1158.63 744.595 1153.49 744.595Z" fill="#A8B4AE" fill-opacity="0.14"/>
<path d="M1100.39 740.799C1098.41 741.739 1096.31 742.512 1094.14 743.11L1105.5 781.308H1113.54V744.381C1108.86 743.917 1104.39 742.7 1100.39 740.799V740.799Z" fill="#A8B4AE" fill-opacity="0.14"/>
<path d="M1135.67 740.578C1131.75 742.487 1127.36 743.759 1122.8 744.299V781.308H1130.9L1142.29 743.07C1139.98 742.428 1137.76 741.595 1135.67 740.578Z" fill="#A8B4AE" fill-opacity="0.14"/>
<path d="M314.167 418.996C316.6 418.996 318.948 419.281 321.17 419.803C322.455 418.1 324.224 417.002 326.52 416.482C328.978 415.925 330.402 413.894 329.7 411.944C328.998 409.995 326.436 408.866 323.977 409.423C318.015 410.774 313.7 414.11 311.378 419.124C312.294 419.042 313.224 418.996 314.167 418.996V418.996Z" fill="#A8B4AE" fill-opacity="0.14"/>
<path d="M314.167 450.808C305.658 450.808 298.736 445.319 298.736 438.573C298.736 431.826 305.658 426.337 314.167 426.337C322.676 426.337 329.598 431.826 329.598 438.573C329.598 445.319 322.676 450.808 314.167 450.808Z" fill="#A8B4AE" fill-opacity="0.14"/>
<path d="M356.426 452.004C355.513 444.008 348.19 437.455 338.575 435.613C338.76 436.578 338.857 437.567 338.857 438.572C338.857 449.367 327.781 458.149 314.167 458.149C300.553 458.149 289.477 449.367 289.477 438.572C289.477 437.651 289.564 436.745 289.72 435.857C280.766 437.96 274.028 444.194 273.038 451.763C268.321 452.667 264.025 454.657 260.677 457.528C256.432 461.168 254.094 465.904 254.094 470.864C254.094 481.703 265.215 490.521 278.885 490.521C285.539 490.521 291.755 488.449 296.341 484.827C300.928 488.449 307.143 490.521 313.798 490.521C320.575 490.521 327.004 488.296 331.624 484.513C336.244 488.296 342.673 490.521 349.449 490.521C363.118 490.521 374.239 481.703 374.239 470.864C374.24 462.076 366.799 454.42 356.426 452.004Z" fill="#A8B4AE" fill-opacity="0.14"/>
<path d="M292.037 534.537L281.051 497.807C280.333 497.843 279.611 497.862 278.885 497.862C273.744 497.862 268.867 496.953 264.493 495.328L274.616 524.435C276.636 530.244 284.028 534.346 292.736 534.564C292.502 534.557 292.269 534.548 292.037 534.537Z" fill="#A8B4AE" fill-opacity="0.14"/>
<path d="M349.449 497.862C348.739 497.862 348.03 497.841 347.323 497.806L336.392 534.532C336.14 534.545 335.887 534.556 335.632 534.563C344.32 534.332 351.689 530.233 353.706 524.435L363.827 495.333C359.457 496.954 354.585 497.862 349.449 497.862Z" fill="#A8B4AE" fill-opacity="0.14"/>
<path d="M296.342 494.066C294.361 495.006 292.269 495.779 290.093 496.377L301.452 534.575H309.497V497.649C304.81 497.185 300.346 495.967 296.342 494.066V494.066Z" fill="#A8B4AE" fill-opacity="0.14"/>
<path d="M331.624 493.845C327.7 495.754 323.311 497.026 318.756 497.567V534.575H326.855L338.242 496.337C335.935 495.695 333.713 494.862 331.624 493.845Z" fill="#A8B4AE" fill-opacity="0.14"/>
<path d="M1122.83 425.743C1125.27 425.743 1127.61 426.028 1129.84 426.55C1131.12 424.847 1132.89 423.749 1135.19 423.229C1137.64 422.672 1139.07 420.641 1138.37 418.691C1137.66 416.742 1135.1 415.613 1132.64 416.17C1126.68 417.521 1122.37 420.857 1120.04 425.871C1120.96 425.789 1121.89 425.743 1122.83 425.743V425.743Z" fill="#A8B4AE" fill-opacity="0.14"/>
<path d="M1122.83 457.556C1114.32 457.556 1107.4 452.067 1107.4 445.32C1107.4 438.573 1114.32 433.084 1122.83 433.084C1131.34 433.084 1138.26 438.573 1138.26 445.32C1138.26 452.067 1131.34 457.556 1122.83 457.556Z" fill="#A8B4AE" fill-opacity="0.14"/>
<path d="M1165.09 458.751C1164.18 450.755 1156.86 444.203 1147.24 442.36C1147.43 443.325 1147.52 444.314 1147.52 445.319C1147.52 456.114 1136.45 464.896 1122.83 464.896C1109.22 464.896 1098.14 456.114 1098.14 445.319C1098.14 444.398 1098.23 443.492 1098.39 442.604C1089.43 444.707 1082.69 450.941 1081.7 458.51C1076.99 459.414 1072.69 461.404 1069.34 464.275C1065.1 467.915 1062.76 472.651 1062.76 477.611C1062.76 488.45 1073.88 497.268 1087.55 497.268C1094.21 497.268 1100.42 495.196 1105.01 491.574C1109.59 495.196 1115.81 497.268 1122.46 497.268C1129.24 497.268 1135.67 495.043 1140.29 491.26C1144.91 495.043 1151.34 497.268 1158.12 497.268C1171.78 497.268 1182.91 488.45 1182.91 477.611C1182.91 468.823 1175.47 461.167 1165.09 458.751Z" fill="#A8B4AE" fill-opacity="0.14"/>
<path d="M1100.7 541.283L1089.72 504.554C1089 504.589 1088.28 504.609 1087.55 504.609C1082.41 504.609 1077.53 503.699 1073.16 502.075L1083.28 531.182C1085.3 536.99 1092.69 541.093 1101.4 541.31C1101.17 541.304 1100.94 541.295 1100.7 541.283Z" fill="#A8B4AE" fill-opacity="0.14"/>
<path d="M1158.12 504.609C1157.41 504.609 1156.7 504.588 1155.99 504.552L1145.06 541.278C1144.81 541.292 1144.55 541.302 1144.3 541.309C1152.99 541.078 1160.36 536.98 1162.37 531.182L1172.49 502.08C1168.12 503.701 1163.25 504.609 1158.12 504.609Z" fill="#A8B4AE" fill-opacity="0.14"/>
<path d="M1105.01 500.812C1103.03 501.752 1100.94 502.525 1098.76 503.123L1110.12 541.321H1118.16V504.395C1113.48 503.931 1109.01 502.713 1105.01 500.812V500.812Z" fill="#A8B4AE" fill-opacity="0.14"/>
<path d="M1140.29 500.592C1136.37 502.501 1131.98 503.773 1127.42 504.313V541.321H1135.52L1146.91 503.083C1144.6 502.442 1142.38 501.608 1140.29 500.592Z" fill="#A8B4AE" fill-opacity="0.14"/>
<path d="M112.694 293.701C115.126 293.701 117.475 293.986 119.697 294.508C120.982 292.806 122.751 291.708 125.047 291.188C127.505 290.631 128.929 288.599 128.227 286.65C127.524 284.7 124.963 283.571 122.503 284.129C116.542 285.479 112.227 288.815 109.905 293.83C110.821 293.747 111.751 293.701 112.694 293.701V293.701Z" fill="#A8B4AE" fill-opacity="0.14"/>
<path d="M112.694 325.514C104.185 325.514 97.2627 320.025 97.2627 313.278C97.2627 306.531 104.185 301.042 112.694 301.042C121.203 301.042 128.125 306.531 128.125 313.278C128.125 320.025 121.203 325.514 112.694 325.514Z" fill="#A8B4AE" fill-opacity="0.14"/>
<path d="M154.953 326.71C154.04 318.714 146.716 312.162 137.101 310.319C137.287 311.284 137.383 312.273 137.383 313.278C137.383 324.073 126.308 332.855 112.694 332.855C99.0796 332.855 88.0038 324.073 88.0038 313.278C88.0038 312.357 88.0905 311.451 88.2467 310.563C79.2926 312.666 72.5544 318.9 71.565 326.469C66.848 327.373 62.552 329.363 59.2037 332.234C54.9589 335.874 52.6211 340.61 52.6211 345.57C52.6211 356.409 63.742 365.227 77.4112 365.227C84.0661 365.227 90.2811 363.155 94.8679 359.533C99.4549 363.155 105.67 365.227 112.325 365.227C119.101 365.227 125.53 363.002 130.15 359.219C134.77 363.002 141.199 365.227 147.976 365.227C161.645 365.227 172.766 356.409 172.766 345.57C172.766 336.782 165.325 329.126 154.953 326.71Z" fill="#A8B4AE" fill-opacity="0.14"/>
<path d="M90.5634 409.243L79.5783 372.513C78.8602 372.549 78.138 372.568 77.4118 372.568C72.2711 372.568 67.3939 371.659 63.0198 370.034L73.1429 399.142C75.1629 404.95 82.5553 409.052 91.2625 409.27C91.0285 409.263 90.7955 409.254 90.5634 409.243Z" fill="#A8B4AE" fill-opacity="0.14"/>
<path d="M147.976 372.568C147.265 372.568 146.557 372.547 145.85 372.512L134.919 409.238C134.667 409.251 134.413 409.262 134.159 409.269C142.847 409.038 150.216 404.939 152.233 399.141L162.354 370.039C157.984 371.661 153.112 372.568 147.976 372.568Z" fill="#A8B4AE" fill-opacity="0.14"/>
<path d="M94.8681 368.772C92.888 369.712 90.7952 370.484 88.6191 371.083L99.9789 409.28H108.024V372.354C103.336 371.89 98.8725 370.673 94.8681 368.772V368.772Z" fill="#A8B4AE" fill-opacity="0.14"/>
<path d="M130.151 368.551C126.227 370.46 121.838 371.732 117.283 372.272V409.28H125.382L136.769 371.042C134.462 370.401 132.24 369.567 130.151 368.551Z" fill="#A8B4AE" fill-opacity="0.14"/>
<path d="M921.36 300.448C923.792 300.448 926.141 300.733 928.363 301.255C929.648 299.553 931.417 298.455 933.713 297.935C936.171 297.378 937.595 295.346 936.893 293.397C936.191 291.447 933.629 290.318 931.17 290.876C925.208 292.226 920.893 295.563 918.571 300.577C919.487 300.495 920.417 300.448 921.36 300.448V300.448Z" fill="#A8B4AE" fill-opacity="0.14"/>
<path d="M921.36 332.261C912.851 332.261 905.929 326.772 905.929 320.025C905.929 313.279 912.851 307.79 921.36 307.79C929.869 307.79 936.791 313.279 936.791 320.025C936.791 326.772 929.869 332.261 921.36 332.261Z" fill="#A8B4AE" fill-opacity="0.14"/>
<path d="M963.619 333.457C962.706 325.461 955.382 318.909 945.768 317.066C945.953 318.031 946.05 319.02 946.05 320.025C946.05 330.82 934.974 339.603 921.36 339.603C907.746 339.603 896.67 330.82 896.67 320.025C896.67 319.104 896.757 318.198 896.913 317.31C887.959 319.413 881.221 325.648 880.231 333.216C875.514 334.12 871.218 336.11 867.87 338.981C863.625 342.621 861.287 347.357 861.287 352.318C861.287 363.156 872.408 371.974 886.077 371.974C892.732 371.974 898.947 369.902 903.534 366.28C908.121 369.902 914.336 371.974 920.991 371.974C927.768 371.974 934.196 369.749 938.817 365.966C943.437 369.749 949.866 371.974 956.642 371.974C970.311 371.974 981.432 363.156 981.432 352.318C981.432 343.529 973.991 335.873 963.619 333.457Z" fill="#A8B4AE" fill-opacity="0.14"/>
<path d="M899.23 415.989L888.244 379.26C887.526 379.295 886.804 379.315 886.078 379.315C880.937 379.315 876.06 378.405 871.686 376.781L881.809 405.888C883.829 411.696 891.221 415.799 899.929 416.016C899.695 416.01 899.462 416.001 899.23 415.989Z" fill="#A8B4AE" fill-opacity="0.14"/>
<path d="M956.642 379.314C955.932 379.314 955.223 379.293 954.516 379.258L943.585 415.984C943.333 415.997 943.08 416.008 942.825 416.015C951.513 415.784 958.882 411.685 960.899 405.887L971.02 376.785C966.65 378.407 961.778 379.314 956.642 379.314Z" fill="#A8B4AE" fill-opacity="0.14"/>
<path d="M903.535 375.519C901.555 376.458 899.462 377.231 897.286 377.829L908.645 416.027H916.69V379.101C912.003 378.637 907.539 377.419 903.535 375.519V375.519Z" fill="#A8B4AE" fill-opacity="0.14"/>
<path d="M938.817 375.297C934.893 377.206 930.504 378.478 925.949 379.019V416.027H934.048L945.435 377.789C943.128 377.147 940.906 376.314 938.817 375.297Z" fill="#A8B4AE" fill-opacity="0.14"/>
<path d="M108.072 773.675C110.505 773.675 112.854 773.96 115.076 774.482C116.361 772.779 118.129 771.681 120.426 771.161C122.884 770.604 124.308 768.573 123.605 766.623C122.903 764.674 120.341 763.545 117.882 764.102C111.92 765.453 107.606 768.789 105.284 773.803C106.2 773.721 107.129 773.675 108.072 773.675V773.675Z" fill="#A8B4AE" fill-opacity="0.14"/>
<path d="M108.073 805.488C99.5638 805.488 92.6414 799.999 92.6414 793.252C92.6414 786.505 99.5638 781.016 108.073 781.016C116.581 781.016 123.504 786.505 123.504 793.252C123.504 799.999 116.582 805.488 108.073 805.488Z" fill="#A8B4AE" fill-opacity="0.14"/>
<path d="M150.332 806.683C149.418 798.687 142.095 792.135 132.48 790.292C132.666 791.257 132.762 792.246 132.762 793.252C132.762 804.046 121.686 812.829 108.073 812.829C94.4586 812.829 83.3827 804.046 83.3827 793.252C83.3827 792.33 83.4694 791.425 83.6256 790.536C74.6715 792.639 67.9333 798.874 66.9439 806.442C62.2269 807.346 57.9309 809.336 54.5826 812.207C50.3378 815.847 48 820.583 48 825.544C48 836.382 59.1209 845.2 72.7901 845.2C79.445 845.2 85.66 843.128 90.2468 839.506C94.8338 843.128 101.049 845.2 107.704 845.2C114.48 845.2 120.909 842.975 125.529 839.192C130.149 842.975 136.578 845.2 143.355 845.2C157.024 845.2 168.145 836.382 168.145 825.544C168.145 816.755 160.704 809.099 150.332 806.683Z" fill="#A8B4AE" fill-opacity="0.14"/>
<path d="M85.9421 889.215L74.957 852.486C74.2388 852.522 73.5166 852.541 72.7905 852.541C67.6497 852.541 62.7725 851.631 58.3984 850.007L68.5216 879.114C70.5415 884.922 77.934 889.025 86.6411 889.242C86.4072 889.236 86.1742 889.227 85.9421 889.215Z" fill="#A8B4AE" fill-opacity="0.14"/>
<path d="M143.355 852.541C142.644 852.541 141.935 852.52 141.228 852.484L130.297 889.211C130.045 889.224 129.792 889.234 129.538 889.241C138.225 889.011 145.595 884.912 147.611 879.114L157.733 850.012C153.362 851.633 148.49 852.541 143.355 852.541Z" fill="#A8B4AE" fill-opacity="0.14"/>
<path d="M90.247 848.745C88.2669 849.685 86.1741 850.458 83.998 851.056L95.3578 889.253H103.403V852.327C98.7153 851.863 94.2514 850.646 90.247 848.745V848.745Z" fill="#A8B4AE" fill-opacity="0.14"/>
<path d="M125.529 848.524C121.606 850.433 117.217 851.705 112.662 852.245V889.253H120.76L132.148 851.016C129.84 850.374 127.618 849.54 125.529 848.524Z" fill="#A8B4AE" fill-opacity="0.14"/>
<path d="M916.739 780.421C919.172 780.421 921.52 780.706 923.742 781.229C925.027 779.526 926.796 778.428 929.092 777.908C931.55 777.351 932.974 775.319 932.272 773.37C931.57 771.421 929.008 770.291 926.549 770.849C920.587 772.2 916.272 775.536 913.95 780.55C914.867 780.468 915.796 780.421 916.739 780.421V780.421Z" fill="#A8B4AE" fill-opacity="0.14"/>
<path d="M916.739 812.234C908.23 812.234 901.308 806.745 901.308 799.998C901.308 793.252 908.23 787.763 916.739 787.763C925.248 787.763 932.17 793.252 932.17 799.998C932.17 806.745 925.248 812.234 916.739 812.234Z" fill="#A8B4AE" fill-opacity="0.14"/>
<path d="M958.998 813.43C958.085 805.433 950.761 798.881 941.147 797.039C941.332 798.004 941.429 798.992 941.429 799.998C941.429 810.793 930.353 819.575 916.739 819.575C903.125 819.575 892.049 810.793 892.049 799.998C892.049 799.077 892.136 798.171 892.292 797.283C883.338 799.386 876.6 805.62 875.61 813.189C870.893 814.093 866.597 816.082 863.249 818.953C859.004 822.593 856.666 827.33 856.666 832.29C856.666 843.129 867.787 851.947 881.457 851.947C888.111 851.947 894.326 849.875 898.913 846.253C903.5 849.875 909.715 851.947 916.37 851.947C923.147 851.947 929.575 849.721 934.196 845.939C938.816 849.722 945.245 851.947 952.021 851.947C965.69 851.947 976.811 843.129 976.811 832.29C976.811 823.502 969.371 815.846 958.998 813.43Z" fill="#A8B4AE" fill-opacity="0.14"/>
<path d="M894.609 895.963L883.623 859.233C882.905 859.269 882.183 859.288 881.457 859.288C876.316 859.288 871.439 858.378 867.065 856.754L877.188 885.861C879.208 891.67 886.6 895.772 895.308 895.989C895.074 895.983 894.841 895.974 894.609 895.963Z" fill="#A8B4AE" fill-opacity="0.14"/>
<path d="M952.021 859.288C951.311 859.288 950.602 859.267 949.895 859.231L938.964 895.958C938.712 895.971 938.459 895.981 938.204 895.988C946.892 895.758 954.261 891.659 956.278 885.861L966.399 856.759C962.029 858.38 957.157 859.288 952.021 859.288Z" fill="#A8B4AE" fill-opacity="0.14"/>
<path d="M898.914 855.492C896.934 856.432 894.841 857.205 892.665 857.803L904.024 896H912.069V859.074C907.382 858.61 902.918 857.393 898.914 855.492V855.492Z" fill="#A8B4AE" fill-opacity="0.14"/>
<path d="M934.196 855.271C930.272 857.18 925.884 858.451 921.328 858.992V896H929.427L940.814 857.762C938.507 857.121 936.285 856.287 934.196 855.271Z" fill="#A8B4AE" fill-opacity="0.14"/>
<path d="M520.261 300.448C522.694 300.448 525.043 300.733 527.265 301.255C528.55 299.553 530.318 298.455 532.615 297.935C535.073 297.378 536.497 295.346 535.794 293.397C535.092 291.447 532.53 290.318 530.071 290.876C524.109 292.226 519.795 295.563 517.473 300.577C518.389 300.495 519.318 300.448 520.261 300.448V300.448Z" fill="#A8B4AE" fill-opacity="0.14"/>
<path d="M520.261 332.261C511.753 332.261 504.83 326.772 504.83 320.025C504.83 313.279 511.753 307.79 520.261 307.79C528.77 307.79 535.693 313.279 535.693 320.025C535.693 326.772 528.771 332.261 520.261 332.261Z" fill="#A8B4AE" fill-opacity="0.14"/>
<path d="M562.521 333.457C561.607 325.461 554.284 318.909 544.669 317.066C544.855 318.031 544.951 319.02 544.951 320.025C544.951 330.82 533.875 339.603 520.261 339.603C506.647 339.603 495.572 330.82 495.572 320.025C495.572 319.104 495.658 318.198 495.814 317.31C486.86 319.413 480.122 325.648 479.133 333.216C474.416 334.12 470.12 336.11 466.771 338.981C462.527 342.621 460.189 347.357 460.189 352.318C460.189 363.156 471.31 371.974 484.979 371.974C491.634 371.974 497.849 369.902 502.436 366.28C507.023 369.902 513.238 371.974 519.893 371.974C526.669 371.974 533.098 369.749 537.718 365.966C542.338 369.749 548.767 371.974 555.543 371.974C569.213 371.974 580.334 363.156 580.334 352.318C580.334 343.529 572.893 335.873 562.521 333.457Z" fill="#A8B4AE" fill-opacity="0.14"/>
<path d="M498.131 415.989L487.146 379.26C486.428 379.295 485.705 379.315 484.979 379.315C479.839 379.315 474.961 378.405 470.587 376.781L480.71 405.888C482.73 411.696 490.123 415.799 498.83 416.016C498.596 416.01 498.363 416.001 498.131 415.989Z" fill="#A8B4AE" fill-opacity="0.14"/>
<path d="M555.544 379.314C554.833 379.314 554.124 379.293 553.417 379.258L542.486 415.984C542.234 415.997 541.981 416.008 541.727 416.015C550.414 415.784 557.784 411.685 559.8 405.887L569.922 376.785C565.551 378.407 560.679 379.314 555.544 379.314Z" fill="#A8B4AE" fill-opacity="0.14"/>
<path d="M502.436 375.519C500.456 376.458 498.363 377.231 496.187 377.829L507.547 416.027H515.592V379.101C510.904 378.637 506.44 377.419 502.436 375.519V375.519Z" fill="#A8B4AE" fill-opacity="0.14"/>
<path d="M537.718 375.297C533.794 377.206 529.406 378.478 524.851 379.019V416.027H532.949L544.337 377.789C542.029 377.147 539.807 376.314 537.718 375.297Z" fill="#A8B4AE" fill-opacity="0.14"/>
<path d="M1328.93 300.448C1331.36 300.448 1333.71 300.733 1335.93 301.255C1337.22 299.553 1338.98 298.455 1341.28 297.935C1343.74 297.378 1345.16 295.346 1344.46 293.397C1343.76 291.447 1341.2 290.318 1338.74 290.876C1332.78 292.226 1328.46 295.563 1326.14 300.577C1327.06 300.495 1327.98 300.448 1328.93 300.448V300.448Z" fill="#A8B4AE" fill-opacity="0.14"/>
<path d="M1328.93 332.261C1320.42 332.261 1313.5 326.772 1313.5 320.025C1313.5 313.279 1320.42 307.79 1328.93 307.79C1337.44 307.79 1344.36 313.279 1344.36 320.025C1344.36 326.772 1337.44 332.261 1328.93 332.261Z" fill="#A8B4AE" fill-opacity="0.14"/>
<path d="M1371.19 333.457C1370.27 325.461 1362.95 318.909 1353.34 317.066C1353.52 318.031 1353.62 319.02 1353.62 320.025C1353.62 330.82 1342.54 339.603 1328.93 339.603C1315.31 339.603 1304.24 330.82 1304.24 320.025C1304.24 319.104 1304.32 318.198 1304.48 317.31C1295.53 319.413 1288.79 325.648 1287.8 333.216C1283.08 334.12 1278.79 336.11 1275.44 338.981C1271.19 342.621 1268.86 347.357 1268.86 352.318C1268.86 363.156 1279.98 371.974 1293.65 371.974C1300.3 371.974 1306.52 369.902 1311.1 366.28C1315.69 369.902 1321.9 371.974 1328.56 371.974C1335.34 371.974 1341.76 369.749 1346.38 365.966C1351 369.749 1357.43 371.974 1364.21 371.974C1377.88 371.974 1389 363.156 1389 352.318C1389 343.529 1381.56 335.873 1371.19 333.457Z" fill="#A8B4AE" fill-opacity="0.14"/>
<path d="M1306.8 415.989L1295.81 379.26C1295.09 379.295 1294.37 379.315 1293.65 379.315C1288.5 379.315 1283.63 378.405 1279.25 376.781L1289.38 405.888C1291.4 411.696 1298.79 415.799 1307.5 416.016C1307.26 416.01 1307.03 416.001 1306.8 415.989Z" fill="#A8B4AE" fill-opacity="0.14"/>
<path d="M1364.21 379.314C1363.5 379.314 1362.79 379.293 1362.08 379.258L1351.15 415.984C1350.9 415.997 1350.65 416.008 1350.39 416.015C1359.08 415.784 1366.45 411.685 1368.47 405.887L1378.59 376.785C1374.22 378.407 1369.35 379.314 1364.21 379.314Z" fill="#A8B4AE" fill-opacity="0.14"/>
<path d="M1311.1 375.519C1309.12 376.458 1307.03 377.231 1304.85 377.829L1316.21 416.027H1324.26V379.101C1319.57 378.637 1315.11 377.419 1311.1 375.519V375.519Z" fill="#A8B4AE" fill-opacity="0.14"/>
<path d="M1346.38 375.297C1342.46 377.206 1338.07 378.478 1333.52 379.019V416.027H1341.62L1353 377.789C1350.7 377.147 1348.47 376.314 1346.38 375.297Z" fill="#A8B4AE" fill-opacity="0.14"/>
<path d="M515.64 780.421C518.073 780.421 520.422 780.706 522.644 781.229C523.929 779.526 525.697 778.428 527.994 777.908C530.452 777.351 531.876 775.319 531.173 773.37C530.471 771.421 527.909 770.291 525.45 770.849C519.488 772.2 515.174 775.536 512.852 780.55C513.768 780.468 514.697 780.421 515.64 780.421V780.421Z" fill="#A8B4AE" fill-opacity="0.14"/>
<path d="M515.641 812.234C507.132 812.234 500.209 806.745 500.209 799.998C500.209 793.252 507.132 787.763 515.641 787.763C524.149 787.763 531.072 793.252 531.072 799.998C531.072 806.745 524.15 812.234 515.641 812.234Z" fill="#A8B4AE" fill-opacity="0.14"/>
<path d="M557.9 813.43C556.986 805.433 549.663 798.881 540.048 797.039C540.234 798.004 540.33 798.992 540.33 799.998C540.33 810.793 529.254 819.575 515.64 819.575C502.026 819.575 490.951 810.793 490.951 799.998C490.951 799.077 491.037 798.171 491.193 797.283C482.239 799.386 475.501 805.62 474.512 813.189C469.795 814.093 465.499 816.082 462.15 818.953C457.906 822.593 455.568 827.33 455.568 832.29C455.568 843.129 466.689 851.947 480.358 851.947C487.013 851.947 493.228 849.875 497.815 846.253C502.402 849.875 508.617 851.947 515.272 851.947C522.048 851.947 528.477 849.721 533.097 845.939C537.717 849.722 544.146 851.947 550.922 851.947C564.592 851.947 575.713 843.129 575.713 832.29C575.713 823.502 568.272 815.846 557.9 813.43Z" fill="#A8B4AE" fill-opacity="0.14"/>
<path d="M493.51 895.963L482.525 859.233C481.807 859.269 481.085 859.288 480.358 859.288C475.218 859.288 470.341 858.378 465.966 856.754L476.09 885.861C478.11 891.67 485.502 895.772 494.209 895.989C493.975 895.983 493.742 895.974 493.51 895.963Z" fill="#A8B4AE" fill-opacity="0.14"/>
<path d="M550.923 859.288C550.212 859.288 549.503 859.267 548.796 859.231L537.865 895.958C537.613 895.971 537.36 895.981 537.106 895.988C545.793 895.758 553.163 891.659 555.179 885.861L565.301 856.759C560.93 858.38 556.058 859.288 550.923 859.288Z" fill="#A8B4AE" fill-opacity="0.14"/>
<path d="M497.815 855.492C495.835 856.432 493.742 857.205 491.566 857.803L502.926 896H510.971V859.074C506.283 858.61 501.819 857.393 497.815 855.492V855.492Z" fill="#A8B4AE" fill-opacity="0.14"/>
<path d="M533.097 855.271C529.174 857.18 524.785 858.451 520.23 858.992V896H528.328L539.716 857.762C537.408 857.121 535.187 856.287 533.097 855.271Z" fill="#A8B4AE" fill-opacity="0.14"/>
<path d="M1324.31 780.421C1326.74 780.421 1329.09 780.706 1331.31 781.229C1332.6 779.526 1334.36 778.428 1336.66 777.908C1339.12 777.351 1340.54 775.319 1339.84 773.37C1339.14 771.421 1336.58 770.291 1334.12 770.849C1328.15 772.2 1323.84 775.536 1321.52 780.55C1322.43 780.468 1323.36 780.421 1324.31 780.421V780.421Z" fill="#A8B4AE" fill-opacity="0.14"/>
<path d="M1324.31 812.234C1315.8 812.234 1308.88 806.745 1308.88 799.998C1308.88 793.252 1315.8 787.763 1324.31 787.763C1332.82 787.763 1339.74 793.252 1339.74 799.998C1339.74 806.745 1332.82 812.234 1324.31 812.234Z" fill="#A8B4AE" fill-opacity="0.14"/>
<path d="M1366.57 813.43C1365.65 805.433 1358.33 798.881 1348.71 797.039C1348.9 798.004 1349 798.992 1349 799.998C1349 810.793 1337.92 819.575 1324.31 819.575C1310.69 819.575 1299.62 810.793 1299.62 799.998C1299.62 799.077 1299.7 798.171 1299.86 797.283C1290.91 799.386 1284.17 805.62 1283.18 813.189C1278.46 814.093 1274.17 816.082 1270.82 818.953C1266.57 822.593 1264.23 827.33 1264.23 832.29C1264.23 843.129 1275.36 851.947 1289.02 851.947C1295.68 851.947 1301.89 849.875 1306.48 846.253C1311.07 849.875 1317.28 851.947 1323.94 851.947C1330.71 851.947 1337.14 849.721 1341.76 845.939C1346.38 849.722 1352.81 851.947 1359.59 851.947C1373.26 851.947 1384.38 843.129 1384.38 832.29C1384.38 823.502 1376.94 815.846 1366.57 813.43Z" fill="#A8B4AE" fill-opacity="0.14"/>
<path d="M1302.18 895.963L1291.19 859.233C1290.47 859.269 1289.75 859.288 1289.02 859.288C1283.88 859.288 1279.01 858.378 1274.63 856.754L1284.76 885.861C1286.78 891.67 1294.17 895.772 1302.88 895.989C1302.64 895.983 1302.41 895.974 1302.18 895.963Z" fill="#A8B4AE" fill-opacity="0.14"/>
<path d="M1359.59 859.288C1358.88 859.288 1358.17 859.267 1357.46 859.231L1346.53 895.958C1346.28 895.971 1346.03 895.981 1345.77 895.988C1354.46 895.758 1361.83 891.659 1363.85 885.861L1373.97 856.759C1369.6 858.38 1364.72 859.288 1359.59 859.288Z" fill="#A8B4AE" fill-opacity="0.14"/>
<path d="M1306.48 855.492C1304.5 856.432 1302.41 857.205 1300.23 857.803L1311.59 896H1319.64V859.074C1314.95 858.61 1310.49 857.393 1306.48 855.492V855.492Z" fill="#A8B4AE" fill-opacity="0.14"/>
<path d="M1341.76 855.271C1337.84 857.18 1333.45 858.451 1328.9 858.992V896H1336.99L1348.38 857.762C1346.07 857.121 1343.85 856.287 1341.76 855.271Z" fill="#A8B4AE" fill-opacity="0.14"/>
<path d="M513.792 60.4615C516.225 60.4615 518.574 60.7463 520.795 61.2686C522.08 59.5658 523.849 58.468 526.145 57.948C528.604 57.391 530.027 55.3594 529.325 53.41C528.623 51.4606 526.061 50.3315 523.602 50.889C517.64 52.2395 513.325 55.5757 511.003 60.59C511.92 60.5077 512.849 60.4615 513.792 60.4615V60.4615Z" fill="#A8B4AE" fill-opacity="0.14"/>
<path d="M513.792 92.2743C505.283 92.2743 498.361 86.7853 498.361 80.0385C498.361 73.2917 505.283 67.8027 513.792 67.8027C522.301 67.8027 529.223 73.2917 529.223 80.0385C529.223 86.7853 522.301 92.2743 513.792 92.2743Z" fill="#A8B4AE" fill-opacity="0.14"/>
<path d="M556.051 93.4697C555.138 85.4735 547.815 78.9213 538.2 77.0786C538.385 78.044 538.482 79.0324 538.482 80.0382C538.482 90.8329 527.406 99.6152 513.792 99.6152C500.178 99.6152 489.102 90.8329 489.102 80.0382C489.102 79.1166 489.189 78.2111 489.345 77.3228C480.391 79.4259 473.653 85.6602 472.663 93.2289C467.946 94.1329 463.65 96.1224 460.302 98.9934C456.057 102.633 453.719 107.37 453.719 112.33C453.719 123.169 464.84 131.987 478.51 131.987C485.164 131.987 491.38 129.915 495.966 126.293C500.553 129.915 506.768 131.987 513.423 131.987C520.2 131.987 526.629 129.761 531.249 125.979C535.869 129.762 542.298 131.987 549.074 131.987C562.743 131.987 573.864 123.169 573.864 112.33C573.865 103.542 566.424 95.886 556.051 93.4697Z" fill="#A8B4AE" fill-opacity="0.14"/>
<path d="M491.662 176.003L480.677 139.273C479.958 139.309 479.236 139.328 478.51 139.328C473.369 139.328 468.492 138.418 464.118 136.794L474.241 165.901C476.261 171.71 483.654 175.812 492.361 176.029C492.127 176.023 491.894 176.014 491.662 176.003Z" fill="#A8B4AE" fill-opacity="0.14"/>
<path d="M549.075 139.328C548.364 139.328 547.655 139.307 546.948 139.271L536.017 175.998C535.765 176.011 535.512 176.021 535.257 176.028C543.945 175.798 551.314 171.699 553.331 165.901L563.452 136.799C559.082 138.42 554.21 139.328 549.075 139.328Z" fill="#A8B4AE" fill-opacity="0.14"/>
<path d="M495.967 135.532C493.987 136.472 491.894 137.244 489.718 137.842L501.077 176.04H509.122V139.114C504.435 138.65 499.971 137.432 495.967 135.532V135.532Z" fill="#A8B4AE" fill-opacity="0.14"/>
<path d="M531.249 135.311C527.325 137.22 522.937 138.492 518.381 139.032V176.041H526.48L537.867 137.803C535.56 137.161 533.338 136.328 531.249 135.311Z" fill="#A8B4AE" fill-opacity="0.14"/>
<path d="M1325.69 60.4615C1328.26 60.4615 1330.73 60.7463 1333.07 61.2686C1334.43 59.5658 1336.29 58.468 1338.71 57.948C1341.3 57.391 1342.8 55.3594 1342.06 53.41C1341.32 51.4606 1338.62 50.3315 1336.03 50.889C1329.75 52.2395 1325.2 55.5757 1322.75 60.59C1323.72 60.5077 1324.7 60.4615 1325.69 60.4615V60.4615Z" fill="#A8B4AE" fill-opacity="0.14"/>
<path d="M1325.69 92.2743C1316.73 92.2743 1309.43 86.7853 1309.43 80.0385C1309.43 73.2917 1316.73 67.8027 1325.69 67.8027C1334.66 67.8027 1341.96 73.2917 1341.96 80.0385C1341.96 86.7853 1334.66 92.2743 1325.69 92.2743Z" fill="#A8B4AE" fill-opacity="0.14"/>
<path d="M1370.23 93.4697C1369.27 85.4735 1361.55 78.9213 1351.42 77.0786C1351.61 78.044 1351.71 79.0324 1351.71 80.0382C1351.71 90.8329 1340.04 99.6152 1325.69 99.6152C1311.35 99.6152 1299.67 90.8329 1299.67 80.0382C1299.67 79.1166 1299.77 78.2111 1299.93 77.3228C1290.49 79.4259 1283.39 85.6602 1282.35 93.2289C1277.38 94.1329 1272.85 96.1224 1269.32 98.9934C1264.85 102.633 1262.39 107.37 1262.39 112.33C1262.39 123.169 1274.11 131.987 1288.51 131.987C1295.52 131.987 1302.07 129.915 1306.91 126.293C1311.74 129.915 1318.29 131.987 1325.3 131.987C1332.45 131.987 1339.22 129.761 1344.09 125.979C1348.96 129.762 1355.73 131.987 1362.88 131.987C1377.28 131.987 1389 123.169 1389 112.33C1389 103.542 1381.16 95.886 1370.23 93.4697Z" fill="#A8B4AE" fill-opacity="0.14"/>
<path d="M1302.37 176.003L1290.79 139.273C1290.04 139.309 1289.28 139.328 1288.51 139.328C1283.09 139.328 1277.95 138.418 1273.34 136.794L1284.01 165.901C1286.14 171.71 1293.93 175.812 1303.11 176.029C1302.86 176.023 1302.62 176.014 1302.37 176.003Z" fill="#A8B4AE" fill-opacity="0.14"/>
<path d="M1362.88 139.328C1362.13 139.328 1361.38 139.307 1360.63 139.271L1349.11 175.998C1348.85 176.011 1348.58 176.021 1348.31 176.028C1357.47 175.798 1365.24 171.699 1367.36 165.901L1378.03 136.799C1373.42 138.42 1368.29 139.328 1362.88 139.328Z" fill="#A8B4AE" fill-opacity="0.14"/>
<path d="M1306.91 135.532C1304.82 136.472 1302.62 137.244 1300.32 137.842L1312.29 176.04H1320.77V139.114C1315.83 138.65 1311.13 137.432 1306.91 135.532V135.532Z" fill="#A8B4AE" fill-opacity="0.14"/>
<path d="M1344.09 135.311C1339.96 137.22 1335.33 138.492 1330.53 139.032V176.041H1339.06L1351.06 137.803C1348.63 137.161 1346.29 136.328 1344.09 135.311Z" fill="#A8B4AE" fill-opacity="0.14"/>
<path d="M509.171 540.435C511.604 540.435 513.953 540.719 516.174 541.242C517.459 539.539 519.228 538.441 521.524 537.921C523.983 537.364 525.406 535.333 524.704 533.383C524.002 531.434 521.44 530.305 518.981 530.862C513.019 532.213 508.704 535.549 506.382 540.563C507.299 540.481 508.228 540.435 509.171 540.435V540.435Z" fill="#A8B4AE" fill-opacity="0.14"/>
<path d="M509.171 572.247C500.662 572.247 493.74 566.758 493.74 560.012C493.74 553.265 500.662 547.776 509.171 547.776C517.68 547.776 524.602 553.265 524.602 560.012C524.602 566.758 517.68 572.247 509.171 572.247Z" fill="#A8B4AE" fill-opacity="0.14"/>
<path d="M551.43 573.443C550.517 565.447 543.194 558.895 533.579 557.052C533.764 558.018 533.861 559.006 533.861 560.012C533.861 570.807 522.785 579.589 509.171 579.589C495.557 579.589 484.481 570.807 484.481 560.012C484.481 559.09 484.568 558.185 484.724 557.296C475.77 559.4 469.032 565.634 468.042 573.203C463.325 574.107 459.029 576.096 455.681 578.967C451.436 582.607 449.099 587.344 449.099 592.304C449.099 603.143 460.219 611.96 473.889 611.96C480.543 611.96 486.759 609.888 491.345 606.266C495.932 609.888 502.147 611.96 508.802 611.96C515.579 611.96 522.008 609.735 526.628 605.953C531.248 609.735 537.677 611.96 544.453 611.96C558.122 611.96 569.243 603.142 569.243 592.304C569.244 583.516 561.803 575.86 551.43 573.443Z" fill="#A8B4AE" fill-opacity="0.14"/>
<path d="M487.041 655.976L476.056 619.247C475.337 619.282 474.615 619.302 473.889 619.302C468.748 619.302 463.871 618.392 459.497 616.768L469.62 645.875C471.64 651.683 479.033 655.786 487.74 656.003C487.506 655.997 487.273 655.987 487.041 655.976Z" fill="#A8B4AE" fill-opacity="0.14"/>
<path d="M544.454 619.301C543.743 619.301 543.034 619.28 542.327 619.245L531.396 655.971C531.144 655.984 530.891 655.995 530.636 656.002C539.324 655.771 546.694 651.672 548.71 645.874L558.831 616.772C554.461 618.393 549.589 619.301 544.454 619.301Z" fill="#A8B4AE" fill-opacity="0.14"/>
<path d="M491.346 615.505C489.366 616.445 487.273 617.217 485.097 617.815L496.456 656.013H504.501V619.087C499.814 618.623 495.35 617.406 491.346 615.505V615.505Z" fill="#A8B4AE" fill-opacity="0.14"/>
<path d="M526.628 615.284C522.704 617.193 518.316 618.464 513.76 619.005V656.013H521.859L533.247 617.775C530.939 617.134 528.717 616.3 526.628 615.284Z" fill="#A8B4AE" fill-opacity="0.14"/>
<path d="M1317.84 540.435C1320.27 540.435 1322.62 540.719 1324.84 541.242C1326.13 539.539 1327.89 538.441 1330.19 537.921C1332.65 537.364 1334.07 535.333 1333.37 533.383C1332.67 531.434 1330.11 530.305 1327.65 530.862C1321.69 532.213 1317.37 535.549 1315.05 540.563C1315.97 540.481 1316.89 540.435 1317.84 540.435V540.435Z" fill="#A8B4AE" fill-opacity="0.14"/>
<path d="M1317.84 572.247C1309.33 572.247 1302.41 566.758 1302.41 560.012C1302.41 553.265 1309.33 547.776 1317.84 547.776C1326.35 547.776 1333.27 553.265 1333.27 560.012C1333.27 566.758 1326.35 572.247 1317.84 572.247Z" fill="#A8B4AE" fill-opacity="0.14"/>
<path d="M1360.1 573.443C1359.18 565.447 1351.86 558.895 1342.25 557.052C1342.43 558.018 1342.53 559.006 1342.53 560.012C1342.53 570.807 1331.45 579.589 1317.84 579.589C1304.22 579.589 1293.15 570.807 1293.15 560.012C1293.15 559.09 1293.23 558.185 1293.39 557.296C1284.44 559.4 1277.7 565.634 1276.71 573.203C1271.99 574.107 1267.7 576.096 1264.35 578.967C1260.1 582.607 1257.77 587.344 1257.77 592.304C1257.77 603.143 1268.89 611.96 1282.56 611.96C1289.21 611.96 1295.43 609.888 1300.01 606.266C1304.6 609.888 1310.81 611.96 1317.47 611.96C1324.25 611.96 1330.67 609.735 1335.29 605.953C1339.91 609.735 1346.34 611.96 1353.12 611.96C1366.79 611.96 1377.91 603.142 1377.91 592.304C1377.91 583.516 1370.47 575.86 1360.1 573.443Z" fill="#A8B4AE" fill-opacity="0.14"/>
<path d="M1295.71 655.976L1284.72 619.247C1284 619.282 1283.28 619.302 1282.56 619.302C1277.41 619.302 1272.54 618.392 1268.16 616.768L1278.29 645.875C1280.31 651.683 1287.7 655.786 1296.41 656.003C1296.17 655.997 1295.94 655.987 1295.71 655.976Z" fill="#A8B4AE" fill-opacity="0.14"/>
<path d="M1353.12 619.301C1352.41 619.301 1351.7 619.28 1350.99 619.245L1340.06 655.971C1339.81 655.984 1339.56 655.995 1339.3 656.002C1347.99 655.771 1355.36 651.672 1357.38 645.874L1367.5 616.772C1363.13 618.393 1358.26 619.301 1353.12 619.301Z" fill="#A8B4AE" fill-opacity="0.14"/>
<path d="M1300.01 615.505C1298.03 616.445 1295.94 617.217 1293.76 617.815L1305.12 656.013H1313.17V619.087C1308.48 618.623 1304.02 617.406 1300.01 615.505V615.505Z" fill="#A8B4AE" fill-opacity="0.14"/>
<path d="M1335.29 615.284C1331.37 617.193 1326.98 618.464 1322.43 619.005V656.013H1330.53L1341.91 617.775C1339.61 617.134 1337.38 616.3 1335.29 615.284Z" fill="#A8B4AE" fill-opacity="0.14"/>
<path d="M112.694 53.7149C115.126 53.7149 117.475 53.9998 119.697 54.522C120.982 52.8192 122.75 51.7215 125.047 51.2014C127.505 50.6445 128.929 48.6128 128.226 46.6634C127.524 44.714 124.962 43.5849 122.503 44.1424C116.541 45.493 112.227 48.8292 109.905 53.8434C110.821 53.7612 111.75 53.7149 112.694 53.7149V53.7149Z" fill="#A8B4AE" fill-opacity="0.14"/>
<path d="M112.694 85.5277C104.185 85.5277 97.2625 80.0387 97.2625 73.2919C97.2625 66.5451 104.185 61.0562 112.694 61.0562C121.203 61.0562 128.125 66.5451 128.125 73.2919C128.125 80.0387 121.203 85.5277 112.694 85.5277Z" fill="#A8B4AE" fill-opacity="0.14"/>
<path d="M154.953 86.7236C154.04 78.7274 146.716 72.1752 137.101 70.3325C137.287 71.2979 137.383 72.2863 137.383 73.2921C137.383 84.0869 126.308 92.8691 112.694 92.8691C99.0796 92.8691 88.0038 84.0869 88.0038 73.2921C88.0038 72.3705 88.0905 71.465 88.2467 70.5767C79.2926 72.6798 72.5544 78.9141 71.565 86.4828C66.848 87.3868 62.552 89.3763 59.2037 92.2473C54.9589 95.8874 52.6211 100.624 52.6211 105.584C52.6211 116.423 63.742 125.241 77.4112 125.241C84.0661 125.241 90.2811 123.169 94.8679 119.546C99.4549 123.169 105.67 125.241 112.325 125.241C119.101 125.241 125.53 123.015 130.15 119.233C134.77 123.016 141.199 125.241 147.976 125.241C161.645 125.241 172.766 116.423 172.766 105.584C172.766 96.7958 165.325 89.1399 154.953 86.7236Z" fill="#A8B4AE" fill-opacity="0.14"/>
<path d="M90.5634 169.257L79.5783 132.528C78.8602 132.563 78.138 132.583 77.4118 132.583C72.2711 132.583 67.3939 131.673 63.0198 130.048L73.1429 159.156C75.1629 164.964 82.5553 169.066 91.2625 169.284C91.0285 169.278 90.7955 169.268 90.5634 169.257Z" fill="#A8B4AE" fill-opacity="0.14"/>
<path d="M147.976 132.581C147.265 132.581 146.557 132.561 145.85 132.525L134.919 169.251C134.667 169.264 134.413 169.275 134.159 169.282C142.847 169.051 150.216 164.952 152.233 159.154L162.354 130.052C157.984 131.674 153.112 132.581 147.976 132.581Z" fill="#A8B4AE" fill-opacity="0.14"/>
<path d="M94.8681 128.785C92.888 129.725 90.7952 130.498 88.6191 131.096L99.9789 169.293H108.024V132.367C103.336 131.903 98.8725 130.686 94.8681 128.785V128.785Z" fill="#A8B4AE" fill-opacity="0.14"/>
<path d="M130.151 128.564C126.227 130.473 121.838 131.745 117.283 132.285V169.293H125.382L136.769 131.056C134.462 130.414 132.24 129.581 130.151 128.564Z" fill="#A8B4AE" fill-opacity="0.14"/>
<path d="M921.36 60.4615C923.792 60.4615 926.141 60.7463 928.363 61.2686C929.648 59.5658 931.417 58.468 933.713 57.948C936.171 57.391 937.595 55.3594 936.893 53.41C936.191 51.4606 933.629 50.3315 931.17 50.889C925.208 52.2395 920.893 55.5757 918.571 60.59C919.487 60.5077 920.417 60.4615 921.36 60.4615V60.4615Z" fill="#A8B4AE" fill-opacity="0.14"/>
<path d="M921.36 92.2743C912.851 92.2743 905.929 86.7853 905.929 80.0385C905.929 73.2917 912.851 67.8027 921.36 67.8027C929.869 67.8027 936.791 73.2917 936.791 80.0385C936.791 86.7853 929.869 92.2743 921.36 92.2743Z" fill="#A8B4AE" fill-opacity="0.14"/>
<path d="M963.619 93.4697C962.706 85.4735 955.382 78.9213 945.768 77.0786C945.953 78.044 946.05 79.0324 946.05 80.0382C946.05 90.8329 934.974 99.6152 921.36 99.6152C907.746 99.6152 896.67 90.8329 896.67 80.0382C896.67 79.1166 896.757 78.2111 896.913 77.3228C887.959 79.4259 881.221 85.6602 880.231 93.2289C875.514 94.1329 871.218 96.1224 867.87 98.9934C863.625 102.633 861.287 107.37 861.287 112.33C861.287 123.169 872.408 131.987 886.077 131.987C892.732 131.987 898.947 129.915 903.534 126.293C908.121 129.915 914.336 131.987 920.991 131.987C927.768 131.987 934.196 129.761 938.817 125.979C943.437 129.762 949.866 131.987 956.642 131.987C970.311 131.987 981.432 123.169 981.432 112.33C981.432 103.542 973.991 95.886 963.619 93.4697Z" fill="#A8B4AE" fill-opacity="0.14"/>
<path d="M899.23 176.003L888.244 139.274C887.526 139.309 886.804 139.329 886.078 139.329C880.937 139.329 876.06 138.419 871.686 136.794L881.809 165.902C883.829 171.71 891.221 175.812 899.929 176.03C899.695 176.024 899.462 176.014 899.23 176.003Z" fill="#A8B4AE" fill-opacity="0.14"/>
<path d="M956.642 139.328C955.932 139.328 955.223 139.307 954.516 139.271L943.585 175.998C943.333 176.011 943.08 176.021 942.825 176.028C951.513 175.798 958.882 171.699 960.899 165.901L971.02 136.799C966.65 138.42 961.778 139.328 956.642 139.328Z" fill="#A8B4AE" fill-opacity="0.14"/>
<path d="M903.534 135.532C901.554 136.472 899.461 137.244 897.285 137.842L908.645 176.04H916.69V139.114C912.003 138.65 907.539 137.432 903.534 135.532V135.532Z" fill="#A8B4AE" fill-opacity="0.14"/>
<path d="M938.817 135.311C934.893 137.22 930.504 138.492 925.949 139.032V176.041H934.048L945.435 137.803C943.128 137.161 940.906 136.328 938.817 135.311Z" fill="#A8B4AE" fill-opacity="0.14"/>
<path d="M108.072 533.688C110.505 533.688 112.854 533.973 115.076 534.495C116.361 532.792 118.129 531.695 120.426 531.175C122.884 530.618 124.308 528.586 123.605 526.637C122.903 524.687 120.341 523.558 117.882 524.116C111.92 525.466 107.606 528.802 105.284 533.817C106.2 533.734 107.129 533.688 108.072 533.688V533.688Z" fill="#A8B4AE" fill-opacity="0.14"/>
<path d="M108.073 565.501C99.5638 565.501 92.6414 560.012 92.6414 553.265C92.6414 546.518 99.5638 541.029 108.073 541.029C116.581 541.029 123.504 546.518 123.504 553.265C123.504 560.012 116.582 565.501 108.073 565.501Z" fill="#A8B4AE" fill-opacity="0.14"/>
<path d="M150.332 566.696C149.418 558.7 142.095 552.148 132.48 550.305C132.666 551.271 132.762 552.259 132.762 553.265C132.762 564.06 121.686 572.842 108.073 572.842C94.4586 572.842 83.3827 564.06 83.3827 553.265C83.3827 552.343 83.4694 551.438 83.6256 550.549C74.6715 552.652 67.9333 558.887 66.9439 566.455C62.2269 567.359 57.9309 569.349 54.5826 572.22C50.3378 575.86 48 580.596 48 585.557C48 596.396 59.1209 605.213 72.7901 605.213C79.445 605.213 85.66 603.141 90.2468 599.519C94.8338 603.141 101.049 605.213 107.704 605.213C114.48 605.213 120.909 602.988 125.529 599.206C130.149 602.988 136.578 605.213 143.355 605.213C157.024 605.213 168.145 596.395 168.145 585.557C168.145 576.768 160.704 569.113 150.332 566.696Z" fill="#A8B4AE" fill-opacity="0.14"/>
<path d="M85.9421 649.23L74.957 612.5C74.2388 612.536 73.5166 612.555 72.7905 612.555C67.6497 612.555 62.7725 611.645 58.3984 610.021L68.5216 639.128C70.5415 644.937 77.934 649.039 86.6411 649.257C86.4072 649.25 86.1742 649.241 85.9421 649.23Z" fill="#A8B4AE" fill-opacity="0.14"/>
<path d="M143.355 612.555C142.644 612.555 141.935 612.534 141.228 612.498L130.297 649.224C130.045 649.237 129.792 649.248 129.538 649.255C138.225 649.024 145.595 644.926 147.611 639.128L157.733 610.025C153.362 611.647 148.49 612.555 143.355 612.555Z" fill="#A8B4AE" fill-opacity="0.14"/>
<path d="M90.247 608.759C88.2669 609.699 86.1741 610.471 83.998 611.069L95.3578 649.267H103.403V612.341C98.7153 611.877 94.2514 610.659 90.247 608.759V608.759Z" fill="#A8B4AE" fill-opacity="0.14"/>
<path d="M125.529 608.538C121.606 610.447 117.217 611.718 112.662 612.259V649.267H120.76L132.148 611.029C129.84 610.388 127.618 609.554 125.529 608.538Z" fill="#A8B4AE" fill-opacity="0.14"/>
<path d="M916.739 540.435C919.172 540.435 921.52 540.719 923.742 541.242C925.027 539.539 926.796 538.441 929.092 537.921C931.55 537.364 932.974 535.333 932.272 533.383C931.57 531.434 929.008 530.305 926.549 530.862C920.587 532.213 916.272 535.549 913.95 540.563C914.867 540.481 915.796 540.435 916.739 540.435V540.435Z" fill="#A8B4AE" fill-opacity="0.14"/>
<path d="M916.739 572.247C908.23 572.247 901.308 566.758 901.308 560.012C901.308 553.265 908.23 547.776 916.739 547.776C925.248 547.776 932.17 553.265 932.17 560.012C932.17 566.758 925.248 572.247 916.739 572.247Z" fill="#A8B4AE" fill-opacity="0.14"/>
<path d="M958.998 573.443C958.085 565.447 950.761 558.895 941.147 557.052C941.332 558.018 941.429 559.006 941.429 560.012C941.429 570.807 930.353 579.589 916.739 579.589C903.125 579.589 892.049 570.807 892.049 560.012C892.049 559.09 892.136 558.185 892.292 557.296C883.338 559.4 876.6 565.634 875.61 573.203C870.893 574.107 866.597 576.096 863.249 578.967C859.004 582.607 856.666 587.344 856.666 592.304C856.666 603.143 867.787 611.96 881.457 611.96C888.111 611.96 894.326 609.888 898.913 606.266C903.5 609.888 909.715 611.96 916.37 611.96C923.147 611.96 929.575 609.735 934.196 605.953C938.816 609.735 945.245 611.96 952.021 611.96C965.69 611.96 976.811 603.142 976.811 592.304C976.811 583.516 969.371 575.86 958.998 573.443Z" fill="#A8B4AE" fill-opacity="0.14"/>
<path d="M894.609 655.977L883.623 619.247C882.905 619.283 882.183 619.302 881.457 619.302C876.316 619.302 871.439 618.392 867.065 616.768L877.188 645.875C879.208 651.684 886.6 655.786 895.308 656.004C895.074 655.997 894.841 655.988 894.609 655.977Z" fill="#A8B4AE" fill-opacity="0.14"/>
<path d="M952.021 619.301C951.311 619.301 950.602 619.28 949.895 619.245L938.964 655.971C938.712 655.984 938.459 655.995 938.204 656.002C946.892 655.771 954.261 651.672 956.278 645.874L966.399 616.772C962.029 618.393 957.157 619.301 952.021 619.301Z" fill="#A8B4AE" fill-opacity="0.14"/>
<path d="M898.914 615.505C896.933 616.445 894.841 617.217 892.665 617.815L904.024 656.013H912.069V619.087C907.382 618.623 902.918 617.406 898.914 615.505V615.505Z" fill="#A8B4AE" fill-opacity="0.14"/>
<path d="M934.196 615.284C930.272 617.193 925.884 618.464 921.328 619.005V656.013H929.427L940.814 617.775C938.507 617.134 936.285 616.3 934.196 615.284Z" fill="#A8B4AE" fill-opacity="0.14"/>
</svg>
