<?xml version="1.0" standalone="no"?><svg xmlns="http://www.w3.org/2000/svg" viewBox="0 0 1440 320"><path fill="#FEC7D7" fill-opacity="1" d="M0,256L6.5,218.7C13,181,26,107,39,112C51.9,117,65,203,78,202.7C90.8,203,104,117,117,96C129.7,75,143,117,156,149.3C168.6,181,182,203,195,181.3C207.6,160,221,96,234,69.3C246.5,43,259,53,272,85.3C285.4,117,298,171,311,170.7C324.3,171,337,117,350,128C363.2,139,376,213,389,234.7C402.2,256,415,224,428,197.3C441.1,171,454,149,467,165.3C480,181,493,235,506,234.7C518.9,235,532,181,545,160C557.8,139,571,149,584,170.7C596.8,192,610,224,623,250.7C635.7,277,649,299,662,298.7C674.6,299,688,277,701,234.7C713.5,192,726,128,739,128C752.4,128,765,192,778,208C791.4,224,804,192,817,176C830.3,160,843,160,856,176C869.2,192,882,224,895,234.7C908.1,245,921,235,934,245.3C947,256,960,288,973,266.7C985.9,245,999,171,1012,138.7C1024.9,107,1038,117,1051,144C1063.8,171,1077,213,1090,208C1102.7,203,1116,149,1129,133.3C1141.6,117,1155,139,1168,160C1180.5,181,1194,203,1206,229.3C1219.5,256,1232,288,1245,261.3C1258.4,235,1271,149,1284,117.3C1297.3,85,1310,107,1323,128C1336.2,149,1349,171,1362,160C1375.1,149,1388,107,1401,106.7C1414.1,107,1427,149,1434,170.7L1440,192L1440,320L1433.5,320C1427,320,1414,320,1401,320C1388.1,320,1375,320,1362,320C1349.2,320,1336,320,1323,320C1310.3,320,1297,320,1284,320C1271.4,320,1258,320,1245,320C1232.4,320,1219,320,1206,320C1193.5,320,1181,320,1168,320C1154.6,320,1142,320,1129,320C1115.7,320,1103,320,1090,320C1076.8,320,1064,320,1051,320C1037.8,320,1025,320,1012,320C998.9,320,986,320,973,320C960,320,947,320,934,320C921.1,320,908,320,895,320C882.2,320,869,320,856,320C843.2,320,830,320,817,320C804.3,320,791,320,778,320C765.4,320,752,320,739,320C726.5,320,714,320,701,320C687.6,320,675,320,662,320C648.6,320,636,320,623,320C609.7,320,597,320,584,320C570.8,320,558,320,545,320C531.9,320,519,320,506,320C493,320,480,320,467,320C454.1,320,441,320,428,320C415.1,320,402,320,389,320C376.2,320,363,320,350,320C337.3,320,324,320,311,320C298.4,320,285,320,272,320C259.5,320,246,320,234,320C220.5,320,208,320,195,320C181.6,320,169,320,156,320C142.7,320,130,320,117,320C103.8,320,91,320,78,320C64.9,320,52,320,39,320C25.9,320,13,320,6,320L0,320Z"></path></svg>