<?xml version="1.0"?>
<svg xmlns="http://www.w3.org/2000/svg" xmlns:xlink="http://www.w3.org/1999/xlink" xmlns:svgjs="http://svgjs.com/svgjs" version="1.1" width="512" height="512" x="0" y="0" viewBox="0 0 512.005 512.005" style="enable-background:new 0 0 512 512" xml:space="preserve" class=""><g><g xmlns="http://www.w3.org/2000/svg"><g><path d="m256.002 39.699c7.882 0 15.493 1.164 22.692 3.298 4.163-6.958 9.894-11.444 17.335-13.569 7.965-2.276 12.578-10.578 10.302-18.544-2.275-7.966-10.576-12.58-18.544-10.302-19.317 5.519-33.297 19.152-40.821 39.642 2.969-.336 5.98-.525 9.036-.525z" fill="#a8b4ae" data-original="#000000" style="" class=""/><path d="m256.002 169.699c-27.57 0-50-22.43-50-50s22.43-50 50-50 50 22.43 50 50-22.429 50-50 50z" fill="#a8b4ae" data-original="#000000" style="" class=""/></g><g><path d="m392.931 174.587c-2.96-32.676-26.689-59.451-57.843-66.981.601 3.945.914 7.984.914 12.094 0 44.112-35.888 80-80 80s-80-35.888-80-80c0-3.766.281-7.466.787-11.096-29.013 8.594-50.846 34.07-54.052 64.999-15.284 3.694-29.204 11.824-40.053 23.556-13.754 14.875-21.329 34.23-21.329 54.5 0 44.292 36.034 80.325 80.325 80.325 21.563 0 41.701-8.467 56.563-23.269 14.863 14.802 35.001 23.269 56.564 23.269 21.957 0 42.788-9.094 57.758-24.55 14.97 15.457 35.801 24.55 57.758 24.55 44.291 0 80.325-36.034 80.325-80.325.001-35.913-24.109-67.198-57.717-77.072z" fill="#a8b4ae" data-original="#000000" style="" class=""/><g><path d="m184.295 511.852-35.594-150.092c-2.327.145-4.667.225-7.02.225-16.657 0-32.46-3.718-46.633-10.356l32.801 118.945c6.545 23.735 30.498 40.499 58.711 41.388-.758-.026-1.513-.064-2.265-.11z" fill="#a8b4ae" data-original="#000000" style="" class=""/><path d="m370.324 361.984c-2.303 0-4.6-.085-6.891-.231l-35.418 150.079c-.817.054-1.637.097-2.461.126 28.149-.943 52.028-17.692 58.562-41.385l32.795-118.924c-14.161 6.626-29.947 10.335-46.587 10.335z" fill="#a8b4ae" data-original="#000000" style="" class=""/><path d="m198.244 346.471c-6.416 3.841-13.197 6.998-20.248 9.442l36.808 156.092h26.067v-150.896c-15.188-1.896-29.652-6.871-42.627-14.638z" fill="#a8b4ae" data-original="#000000" style="" class=""/><path d="m312.566 345.567c-12.714 7.801-26.934 12.998-41.694 15.207v151.231h26.241l36.898-156.256c-7.477-2.622-14.676-6.028-21.445-10.182z" fill="#a8b4ae" data-original="#000000" style="" class=""/></g></g></g></g></svg>
