<svg width="1445" height="974" viewBox="0 0 1445 974" fill="none" xmlns="http://www.w3.org/2000/svg">
<path d="M0 305H1445V974H0V305Z" fill="#FEC7D7"/>
<path fill-rule="evenodd" clip-rule="evenodd" d="M5 4H85C165 4 325 4 485 45.8946C645 88.7635 805 172.553 965 200.807C1125 229.062 1285 200.807 1365 186.193L1445 172.553V383H1365C1285 383 1125 383 965 383C805 383 645 383 485 383C325 383 165 383 85 383H5V4Z" fill="#FEC7D7" fill-opacity="0.42"/>
<path d="M0 0L60.2083 40.5638C120.417 81.5625 240.833 162.038 361.25 168.236C481.667 174 602.083 104.4 722.5 57.9638C842.917 11.9625 963.333 -11.9625 1083.75 23.1638C1204.17 57.6375 1324.58 151.163 1384.79 197.164L1445 243.6V313.2H1384.79C1324.58 313.2 1204.17 313.2 1083.75 313.2C963.333 313.2 842.917 313.2 722.5 313.2C602.083 313.2 481.667 313.2 361.25 313.2C240.833 313.2 120.417 313.2 60.2083 313.2H0V0Z" fill="#FEC7D7"/>
</svg>
