<svg width="567" height="507" viewBox="0 0 567 507" fill="none" xmlns="http://www.w3.org/2000/svg">
<g clip-path="url(#clip0)">
<path d="M563.661 337.025C563.661 427.181 437.945 500.267 282.868 500.267C127.79 500.267 2.07529 427.182 2.07529 337.025C2.07529 246.868 127.791 173.783 282.869 173.783C437.946 173.783 563.661 246.869 563.661 337.025Z" fill="#C9C5D7"/>
<path d="M563.661 314.304C563.661 404.46 437.945 477.546 282.868 477.546C127.79 477.546 2.07529 404.461 2.07529 314.304C2.07529 224.147 127.791 151.062 282.869 151.062C437.946 151.062 563.661 224.148 563.661 314.304Z" fill="black"/>
<path d="M504.101 314.304C504.101 385.337 405.052 442.921 282.869 442.921C160.686 442.921 61.6358 385.337 61.6358 314.304C61.6358 243.272 160.685 185.689 282.868 185.689C405.051 185.689 504.101 243.272 504.101 314.304Z" fill="#C9C5D7"/>
<path d="M467.494 122.452C457 122.451 438.398 113.044 424.815 106.177C411.538 99.4632 404.363 95.9598 399.085 95.9598C398.922 95.9598 398.759 95.9627 398.603 95.9697C398.364 95.9786 398.119 95.9835 397.87 95.9835C388.725 95.9835 371.997 90.3075 358.557 85.7475C344.899 81.1132 336.913 78.4911 331.612 78.4911C331.403 78.4911 331.197 78.495 330.998 78.5029C330.6 78.5188 330.202 78.5267 329.802 78.5267C311.806 78.5267 293.791 62.4562 289.647 42.702C287.338 31.6955 289.611 21.3268 295.883 14.2536C300.44 9.11424 306.663 6.24652 313.879 5.95837C314.278 5.94252 314.675 5.9346 315.074 5.9346C329.281 5.9346 344.284 16.3083 351.559 31.1618C352.026 32.1152 352.764 32.9423 353.7 33.5604C354.637 34.1785 355.738 34.566 356.894 34.6841C358.051 34.8022 359.222 34.6467 360.29 34.2333C361.358 33.8199 362.286 33.163 362.981 32.3283C367.581 26.8028 373.979 23.7242 381.481 23.4251C381.88 23.4093 382.278 23.4013 382.676 23.4013C399.481 23.4013 416.333 37.1993 421.875 55.4958C422.193 56.5457 422.828 57.4973 423.709 58.247C424.591 58.9967 425.686 59.5158 426.874 59.7478C428.063 59.9798 429.3 59.9158 430.451 59.5628C431.601 59.2098 432.622 58.5813 433.401 57.7456C437.924 52.8885 444.001 50.1743 450.973 49.8961C451.372 49.8802 451.77 49.8723 452.169 49.8723C470.166 49.8723 488.18 65.9428 492.325 85.697C494.634 96.7024 492.361 107.071 486.089 114.145C481.533 119.285 475.31 122.153 468.094 122.441C467.894 122.448 467.694 122.451 467.494 122.452Z" fill="white"/>
<path d="M498.862 84.6007C494.083 61.8233 473.376 43.9268 452.17 43.9268C451.672 43.9268 451.177 43.9367 450.679 43.9565C441.514 44.3219 433.796 48.0323 428.293 53.941C422.01 33.1966 402.565 17.4578 382.677 17.4568C382.18 17.4568 381.684 17.4667 381.186 17.4865C371.362 17.8777 363.2 22.1109 357.649 28.7782C349.413 11.961 332.413 -0.00793774 315.073 -0.00991821C314.575 -0.00991821 314.079 -1.58688e-05 313.582 0.0197888C291.863 0.885254 278.221 20.486 283.112 43.7981C283.456 45.4349 283.891 47.0431 284.393 48.6245C282.458 48.9245 280.77 49.3741 279.37 49.992C249.126 63.3502 141.433 209.427 138.006 214.083L137.921 214.105V387.732C137.921 391.765 142.227 394.682 146.568 393.586C199.941 380.098 482.291 308.262 482.291 298.099V124.804C495.515 118.022 502.597 102.402 498.862 84.6007ZM480.88 110.451C479.442 112.074 477.804 113.354 476 114.328C449.246 93.5058 345.629 52.6913 298.324 48.5225C297.396 46.2742 296.68 43.9606 296.182 41.6057C294.229 32.2935 296.018 23.6705 301.094 17.947C304.466 14.1445 308.867 12.1086 314.176 11.8977C314.476 11.8858 314.774 11.8798 315.074 11.8798C326.723 11.8808 339.222 20.7909 345.47 33.5471C346.404 35.4542 347.881 37.1086 349.754 38.345C351.627 39.5813 353.83 40.3563 356.143 40.5923C358.456 40.8283 360.798 40.5171 362.934 39.6898C365.071 38.8625 366.926 37.5481 368.316 35.8782C370.665 33.058 374.907 29.6377 381.78 29.3644C382.081 29.3525 382.38 29.3466 382.679 29.3466C396.356 29.3476 410.756 41.5156 415.46 57.0494C416.096 59.1505 417.365 61.0553 419.128 62.5561C420.891 64.0569 423.081 65.0961 425.459 65.5604C427.837 66.0246 430.312 65.8962 432.615 65.189C434.917 64.4818 436.958 63.2231 438.515 61.55C441.856 57.9624 446.149 56.0393 451.274 55.8353C451.575 55.8235 451.874 55.8175 452.174 55.8175C458.968 55.8175 466.155 58.812 472.412 64.2494C479.237 70.1799 483.99 78.1869 485.795 86.793C487.746 96.1042 485.956 104.727 480.88 110.451Z" fill="white"/>
<path d="M455.814 296.865L137.921 382.53V214.106L455.814 128.441V296.865Z" fill="#FEC7D7"/>
<path d="M455.814 128.441V296.865L137.921 382.53V367.552L441.979 285.616V223.87L137.921 305.806V290.829L441.979 208.893V147.147L137.921 229.083V214.106L455.814 128.441Z" fill="#FF473E"/>
<path d="M274.791 140.343C250.894 118.974 278.781 101.124 292.603 58.2018C306.425 15.2801 362.661 45.0604 383.313 63.5273C449.982 123.141 298.688 161.711 274.791 140.343Z" fill="#FF473E"/>
<path d="M326.148 50.0571L325.957 50.3403C325.831 50.4978 325.65 50.7859 325.414 51.0394C325.191 51.3117 324.846 51.6445 324.653 52.0039L324.027 53.0476C323.769 53.4219 323.51 53.7754 323.239 54.1052C322.96 54.4775 322.67 54.7885 322.357 55.0925C322.048 55.4057 321.706 55.6931 321.338 55.951C320.971 56.2263 320.581 56.4332 320.165 56.661C319.293 57.0909 318.352 57.3979 317.376 57.571C316.365 57.7522 315.281 57.8067 314.238 57.7671C313.717 57.7473 313.203 57.7027 312.73 57.6492C312.26 57.6007 311.795 57.5066 311.421 57.4482C311.058 57.3997 310.709 57.3007 310.497 57.263L310.139 57.1769C310.139 57.1769 310.11 57.0541 310.088 56.8481C310.076 56.6541 310.022 56.3233 310.04 55.9896C310.046 55.641 310.048 55.2043 310.117 54.7647C310.178 54.3151 310.289 53.8477 310.439 53.3556C310.768 52.3236 311.308 51.3555 312.034 50.5007C312.818 49.585 313.807 48.8254 314.938 48.2707C315.5 47.9776 316.146 47.7578 316.773 47.5696C317.404 47.3835 318.1 47.2825 318.753 47.2171C319.421 47.1704 320.092 47.182 320.758 47.2518C321.393 47.3335 322.019 47.4667 322.627 47.6498C323.209 47.8205 323.767 48.047 324.294 48.3252C324.781 48.55 325.045 48.8975 325.32 49.1411C325.581 49.3738 325.79 49.6452 325.931 49.7917L326.148 50.0571ZM308.161 86.9097L308.456 87.0354C308.636 87.0978 308.925 87.2305 309.248 87.3167C309.585 87.4048 309.953 87.5811 310.476 87.5721C311.054 87.5935 311.633 87.565 312.205 87.487C312.811 87.4035 313.408 87.2764 313.991 87.1067C314.599 86.9062 315.189 86.6638 315.755 86.3819C316.3 86.0808 316.873 85.7402 317.358 85.3481C317.839 84.9559 318.33 84.5341 318.718 84.0766C319.513 83.1942 320.123 82.1904 320.518 81.1138C320.719 80.6019 320.821 80.0701 320.92 79.5701C320.997 79.0601 321.026 78.563 321.019 78.0926C321.007 77.6486 320.959 77.2059 320.878 76.7677C320.808 76.3657 320.683 75.9913 320.588 75.6883C320.507 75.3942 320.367 75.1289 320.302 74.9645L320.168 74.6951C320.089 74.5377 319.955 74.4077 319.786 74.325C319.617 74.2424 319.423 74.2117 319.232 74.2376L319.103 74.2555C319.103 74.2555 318.986 74.2713 318.792 74.3159C318.61 74.3664 318.301 74.4169 317.993 74.5189C317.174 74.741 316.378 75.0253 315.613 75.3685C314.745 75.7517 313.884 76.2458 313.091 76.8093C312.319 77.3719 311.625 78.0155 311.024 78.7264C310.74 79.0908 310.464 79.4235 310.231 79.8047C309.992 80.167 309.782 80.5443 309.603 80.9336C309.418 81.3089 309.264 81.6901 309.126 82.0952C308.985 82.4695 308.862 82.8527 308.754 83.2508L308.533 84.3063C308.488 84.6589 308.29 85.0342 308.182 85.3233C308.056 85.6026 307.991 85.8878 307.932 86.0531L307.858 86.3373C307.827 86.4494 307.841 86.5674 307.896 86.6717C307.951 86.7759 308.045 86.86 308.161 86.9097ZM300.337 104.896L300.043 104.772C299.861 104.71 299.572 104.578 299.25 104.493C298.912 104.406 298.543 104.232 298.021 104.243C297.442 104.224 296.863 104.255 296.292 104.336C295.734 104.417 295.122 104.54 294.509 104.724C293.902 104.927 293.313 105.172 292.749 105.457C292.205 105.76 291.634 106.103 291.151 106.497C290.673 106.892 290.184 107.315 289.798 107.775C289.007 108.661 288.403 109.667 288.015 110.746C287.817 111.259 287.717 111.79 287.622 112.291C287.551 112.781 287.52 113.275 287.53 113.769C287.552 114.245 287.596 114.685 287.679 115.094C287.751 115.496 287.879 115.87 287.976 116.172C288.058 116.466 288.2 116.731 288.266 116.895L288.401 117.164C288.481 117.322 288.615 117.451 288.785 117.533C288.955 117.615 289.15 117.645 289.341 117.618L289.47 117.599C289.47 117.599 289.586 117.582 289.78 117.538C289.962 117.486 290.271 117.435 290.579 117.332C291.396 117.106 292.191 116.818 292.954 116.472C293.821 116.086 294.678 115.587 295.468 115.02C296.238 114.455 296.928 113.808 297.524 113.094C297.806 112.729 298.081 112.394 298.311 112.012C298.544 111.637 298.759 111.284 298.932 110.88C299.115 110.504 299.266 110.122 299.403 109.717C299.542 109.342 299.663 108.958 299.769 108.559L299.984 107.503C300.027 107.15 300.224 106.774 300.329 106.485C300.455 106.204 300.518 105.919 300.576 105.754L300.65 105.469C300.678 105.356 300.662 105.238 300.605 105.134C300.549 105.03 300.454 104.946 300.337 104.896ZM355.383 68.6131C355.428 68.4861 355.445 68.3525 355.432 68.2197C355.419 68.087 355.377 67.9578 355.309 67.8395C355.24 67.7213 355.146 67.6163 355.032 67.5305C354.918 67.4447 354.786 67.3799 354.644 67.3397L354.367 67.2614C354.195 67.2258 353.924 67.1406 353.614 67.0971C353.298 67.0456 352.933 66.9475 352.418 67.0129C351.857 67.0553 351.301 67.1388 350.756 67.2624C350.224 67.3912 349.624 67.5526 349.051 67.7774C348.502 68.011 347.898 68.2735 347.36 68.5993C346.824 68.9181 346.259 69.2766 345.786 69.6816C345.301 70.0846 344.818 70.5124 344.412 70.9718C343.589 71.8554 342.918 72.8436 342.422 73.9039C341.972 74.8412 341.67 75.8301 341.527 76.842C341.415 77.6132 341.41 78.3937 341.511 79.166C341.531 79.4512 341.606 79.7067 341.634 79.8651L341.702 80.1276L341.703 80.1315C341.848 80.686 342.467 81.0297 343.087 80.9009L343.281 80.8603C343.281 80.8603 343.379 80.8395 343.55 80.7851C343.712 80.7257 343.979 80.6573 344.257 80.5375C344.846 80.3187 345.626 79.983 346.428 79.5354C348.2 78.5453 349.773 77.2961 351.082 75.8398C351.407 75.4586 351.728 75.1011 352.017 74.7169C352.301 74.3208 352.588 73.9802 352.819 73.5742C353.067 73.192 353.294 72.8375 353.497 72.4493C353.701 72.0799 353.891 71.7383 354.059 71.3729C354.221 71.0184 354.314 70.7599 354.439 70.4361C354.523 70.1321 354.742 69.8083 354.898 69.5608C355.059 69.3192 355.159 69.0785 355.24 68.9369L355.351 68.6953C355.362 68.6686 355.374 68.6389 355.383 68.6131ZM364.244 107.832C364.454 107.877 364.801 107.988 365.166 108.04C365.548 108.094 365.989 108.238 366.531 108.166C367.141 108.116 367.742 108.008 368.325 107.842C368.938 107.673 369.533 107.454 370.102 107.189C370.687 106.897 371.24 106.556 371.752 106.169C372.239 105.775 372.737 105.329 373.128 104.848C373.514 104.368 373.894 103.852 374.159 103.32C374.714 102.279 375.02 101.146 375.057 99.9936C375.087 98.921 374.893 97.8528 374.485 96.8437C374.3 96.3927 374.08 95.9542 373.825 95.5316C373.593 95.1395 373.31 94.784 373.086 94.4978C372.883 94.2166 372.623 93.977 372.486 93.8265C372.334 93.671 372.23 93.5858 372.23 93.5858L371.883 93.7027C371.685 93.7839 371.339 93.8849 371.012 94.0364C370.671 94.1829 370.232 94.3513 369.818 94.5573C369.399 94.7612 368.953 94.9939 368.519 95.2494C367.636 95.7616 366.824 96.3656 366.1 97.0487C365.422 97.6998 364.86 98.4406 364.434 99.245C364.244 99.648 364.064 100.019 363.945 100.434C363.815 100.836 363.726 101.247 363.68 101.663C363.619 102.082 363.596 102.504 363.61 102.926C363.605 103.335 363.625 103.758 363.662 104.196L363.837 105.371C363.915 105.762 363.852 106.213 363.85 106.55C363.824 106.88 363.866 107.208 363.866 107.402L363.896 107.73L364.244 107.832ZM331.959 100.477C331.769 100.384 331.468 100.195 331.132 100.057C330.78 99.9144 330.398 99.6708 329.853 99.6114C329.251 99.5147 328.639 99.4766 328.027 99.4975C327.386 99.5149 326.748 99.5845 326.12 99.7055C325.469 99.8472 324.835 100.046 324.227 100.298C323.64 100.562 323.027 100.873 322.507 101.244C321.993 101.616 321.471 102.023 321.059 102.472C320.215 103.344 319.584 104.363 319.206 105.466C318.858 106.493 318.728 107.569 318.821 108.638C318.872 109.147 318.95 109.619 319.068 110.06C319.175 110.493 319.343 110.903 319.472 111.232C319.584 111.551 319.765 111.844 319.851 112.022C319.952 112.208 320.026 112.314 320.026 112.314L320.395 112.283C320.61 112.253 320.975 112.237 321.334 112.17C321.706 112.109 322.179 112.052 322.64 111.951C323.104 111.854 323.603 111.736 324.098 111.592C325.093 111.305 326.087 110.917 326.964 110.432C327.812 109.965 328.574 109.385 329.224 108.711C329.527 108.367 329.811 108.052 330.048 107.68C330.289 107.314 330.5 106.967 330.67 106.558C330.845 106.176 330.996 105.793 331.113 105.358C331.238 104.964 331.344 104.553 331.44 104.121L331.621 102.948C331.662 102.551 331.857 102.132 331.959 101.807C332.082 101.495 332.14 101.168 332.197 100.982L332.265 100.657L331.959 100.477Z" fill="#E21A1A"/>
<path d="M391.793 45.0817C409.114 39.8631 417.677 48.3574 398.256 61.9038C387.425 69.4583 376.837 71.7408 370.6 70.5109C370.073 70.404 369.524 70.4197 369.006 70.5564C365.002 71.6487 361.717 69.8623 360.897 64.816C360.674 63.4475 359.467 62.4246 357.959 62.1236C354.284 61.3898 350.403 56.9457 347.821 47.5414C340.167 19.6594 357.089 6.1298 365.82 32.9236L365.862 33.0543C366.678 35.5833 370.253 36.2498 372.167 34.2495C380.105 25.9493 388.524 27.7169 386.979 41.7139C386.72 44.0687 389.284 45.8372 391.793 45.0817Z" fill="#16992B"/>
</g>
<defs>
<clipPath id="clip0">
<rect width="567" height="507" fill="white"/>
</clipPath>
</defs>
</svg>
