<svg width="1440" height="1061" viewBox="0 0 1440 1061" fill="none" xmlns="http://www.w3.org/2000/svg">
<path d="M0 1048L18.5 1010.7C36.9 973 74 899 111 904C147.7 909 185 995 222 994.7C258.5 995 295 909 332 866.7C369.2 824 406 824 443 845.3C480 867 517 909 554 952C590.8 995 628 1037 665 1053.3C701.5 1069 738 1059 775 1026.7C812.3 995 849 941 886 904C923.1 867 960 845 997 856C1033.8 867 1071 909 1108 904C1144.6 899 1182 845 1218 824C1255.4 803 1292 813 1329 850.7C1366.2 888 1403 952 1422 984L1440 1016V792H1421.5C1403.1 792 1366 792 1329 792C1292.3 792 1255 792 1218 792C1181.5 792 1145 792 1108 792C1070.8 792 1034 792 997 792C960 792 923 792 886 792C849.2 792 812 792 775 792C738.5 792 702 792 665 792C627.7 792 591 792 554 792C516.9 792 480 792 443 792C406.2 792 369 792 332 792C295.4 792 258 792 222 792C184.6 792 148 792 111 792C73.8 792 37 792 18 792H0V1048Z" fill="#FEC7D7"/>
<path d="M1076.98 818.787C1076.33 817.263 1075.39 815.883 1074.22 814.722C1073.04 813.558 1071.66 812.633 1070.13 811.997C1068.56 811.335 1066.86 810.996 1065.16 811C1062.76 811 1060.42 811.663 1058.39 812.915C1057.9 813.214 1057.44 813.543 1057 813.902C1056.56 813.543 1056.1 813.214 1055.62 812.915C1053.58 811.663 1051.25 811 1048.85 811C1047.12 811 1045.45 811.334 1043.87 811.997C1042.34 812.635 1040.97 813.553 1039.79 814.722C1038.61 815.881 1037.67 817.262 1037.02 818.787C1036.35 820.373 1036 822.057 1036 823.791C1036 825.426 1036.33 827.129 1036.99 828.863C1037.54 830.311 1038.32 831.814 1039.33 833.331C1040.92 835.732 1043.12 838.236 1045.84 840.774C1050.35 844.982 1054.82 847.889 1055.01 848.007L1056.16 848.753C1056.67 849.082 1057.33 849.082 1057.84 848.753L1058.99 848.007C1059.18 847.884 1063.64 844.982 1068.16 840.774C1070.88 838.236 1073.08 835.732 1074.67 833.331C1075.68 831.814 1076.47 830.311 1077.01 828.863C1077.67 827.129 1078 825.426 1078 823.791C1078 822.057 1077.66 820.373 1076.98 818.787V818.787Z" fill="#FA326C" fill-opacity="0.19"/>
<path d="M641.984 837.787C641.332 836.263 640.393 834.883 639.218 833.722C638.042 832.558 636.655 831.633 635.134 830.997C633.556 830.335 631.864 829.996 630.155 830C627.759 830 625.42 830.663 623.388 831.915C622.902 832.214 622.44 832.543 622.002 832.902C621.565 832.543 621.103 832.214 620.617 831.915C618.585 830.663 616.246 830 613.849 830C612.123 830 610.451 830.334 608.871 830.997C607.344 831.635 605.969 832.553 604.787 833.722C603.611 834.881 602.671 836.262 602.021 837.787C601.345 839.373 601 841.057 601 842.791C601 844.426 601.331 846.129 601.987 847.863C602.536 849.311 603.324 850.814 604.33 852.331C605.925 854.732 608.117 857.236 610.84 859.774C615.352 863.982 619.82 866.889 620.009 867.007L621.161 867.753C621.672 868.082 622.328 868.082 622.839 867.753L623.991 867.007C624.18 866.884 628.643 863.982 633.16 859.774C635.882 857.236 638.075 854.732 639.67 852.331C640.676 850.814 641.469 849.311 642.013 847.863C642.669 846.129 643 844.426 643 842.791C643.005 841.057 642.66 839.373 641.984 837.787V837.787Z" fill="#FA326C" fill-opacity="0.19"/>
<path d="M739.984 933.787C739.332 932.263 738.393 930.883 737.218 929.722C736.042 928.558 734.655 927.633 733.134 926.997C731.556 926.335 729.864 925.996 728.155 926C725.759 926 723.42 926.663 721.388 927.915C720.902 928.214 720.44 928.543 720.002 928.902C719.565 928.543 719.103 928.214 718.617 927.915C716.585 926.663 714.246 926 711.849 926C710.123 926 708.451 926.334 706.871 926.997C705.344 927.635 703.969 928.553 702.787 929.722C701.611 930.881 700.671 932.262 700.021 933.787C699.345 935.373 699 937.057 699 938.791C699 940.426 699.331 942.129 699.987 943.863C700.536 945.311 701.324 946.814 702.33 948.331C703.925 950.732 706.117 953.236 708.84 955.774C713.352 959.982 717.82 962.889 718.009 963.007L719.161 963.753C719.672 964.082 720.328 964.082 720.839 963.753L721.991 963.007C722.18 962.884 726.643 959.982 731.16 955.774C733.882 953.236 736.075 950.732 737.67 948.331C738.676 946.814 739.469 945.311 740.013 943.863C740.669 942.129 741 940.426 741 938.791C741.005 937.057 740.66 935.373 739.984 933.787V933.787Z" fill="#FA326C" fill-opacity="0.19"/>
<path d="M845.984 818.787C845.332 817.263 844.393 815.883 843.218 814.722C842.042 813.558 840.655 812.633 839.134 811.997C837.556 811.335 835.864 810.996 834.155 811C831.759 811 829.42 811.663 827.388 812.915C826.902 813.214 826.44 813.543 826.002 813.902C825.565 813.543 825.103 813.214 824.617 812.915C822.585 811.663 820.246 811 817.849 811C816.123 811 814.451 811.334 812.871 811.997C811.344 812.635 809.969 813.553 808.787 814.722C807.611 815.881 806.671 817.262 806.021 818.787C805.345 820.373 805 822.057 805 823.791C805 825.426 805.331 827.129 805.987 828.863C806.536 830.311 807.324 831.814 808.33 833.331C809.925 835.732 812.117 838.236 814.84 840.774C819.352 844.982 823.82 847.889 824.009 848.007L825.161 848.753C825.672 849.082 826.328 849.082 826.839 848.753L827.991 848.007C828.18 847.884 832.643 844.982 837.16 840.774C839.882 838.236 842.075 835.732 843.67 833.331C844.676 831.814 845.469 830.311 846.013 828.863C846.669 827.129 847 825.426 847 823.791C847.005 822.057 846.66 820.373 845.984 818.787V818.787Z" fill="#FA326C" fill-opacity="0.19"/>
<path d="M73.9839 837.787C73.3322 836.263 72.3926 834.883 71.2176 833.722C70.0417 832.558 68.6553 831.633 67.1338 830.997C65.556 830.335 63.8639 829.996 62.1554 830C59.7586 830 57.4202 830.663 55.388 831.915C54.9018 832.214 54.44 832.543 54.0024 832.902C53.5649 832.543 53.103 832.214 52.6168 831.915C50.5847 830.663 48.2462 830 45.8494 830C44.1235 830 42.4511 830.334 40.871 830.997C39.3445 831.635 37.9686 832.553 36.7872 833.722C35.6107 834.881 34.6708 836.262 34.021 837.787C33.3452 839.373 33 841.057 33 842.791C33 844.426 33.3306 846.129 33.9869 847.863C34.5363 849.311 35.3239 850.814 36.3302 852.331C37.9249 854.732 40.1175 857.236 42.84 859.774C47.3516 863.982 51.8195 866.889 52.0091 867.007L53.1613 867.753C53.6718 868.082 54.3281 868.082 54.8386 867.753L55.9908 867.007C56.1804 866.884 60.6434 863.982 65.1599 859.774C67.8825 857.236 70.0751 854.732 71.6697 852.331C72.6761 850.814 73.4685 849.311 74.013 847.863C74.6694 846.129 74.9999 844.426 74.9999 842.791C75.0048 841.057 74.6596 839.373 73.9839 837.787V837.787Z" fill="#FA326C" fill-opacity="0.19"/>
<path d="M277.984 837.787C277.332 836.263 276.393 834.883 275.218 833.722C274.042 832.558 272.655 831.633 271.134 830.997C269.556 830.335 267.864 829.996 266.155 830C263.759 830 261.42 830.663 259.388 831.915C258.902 832.214 258.44 832.543 258.002 832.902C257.565 832.543 257.103 832.214 256.617 831.915C254.585 830.663 252.246 830 249.849 830C248.123 830 246.451 830.334 244.871 830.997C243.344 831.635 241.969 832.553 240.787 833.722C239.611 834.881 238.671 836.262 238.021 837.787C237.345 839.373 237 841.057 237 842.791C237 844.426 237.331 846.129 237.987 847.863C238.536 849.311 239.324 850.814 240.33 852.331C241.925 854.732 244.117 857.236 246.84 859.774C251.352 863.982 255.82 866.889 256.009 867.007L257.161 867.753C257.672 868.082 258.328 868.082 258.839 867.753L259.991 867.007C260.18 866.884 264.643 863.982 269.16 859.774C271.882 857.236 274.075 854.732 275.67 852.331C276.676 850.814 277.469 849.311 278.013 847.863C278.669 846.129 279 844.426 279 842.791C279.005 841.057 278.66 839.373 277.984 837.787V837.787Z" fill="#FA326C" fill-opacity="0.19"/>
<path d="M459.984 818.787C459.332 817.263 458.393 815.883 457.218 814.722C456.042 813.558 454.655 812.633 453.134 811.997C451.556 811.335 449.864 810.996 448.155 811C445.759 811 443.42 811.663 441.388 812.915C440.902 813.214 440.44 813.543 440.002 813.902C439.565 813.543 439.103 813.214 438.617 812.915C436.585 811.663 434.246 811 431.849 811C430.123 811 428.451 811.334 426.871 811.997C425.344 812.635 423.969 813.553 422.787 814.722C421.611 815.881 420.671 817.262 420.021 818.787C419.345 820.373 419 822.057 419 823.791C419 825.426 419.331 827.129 419.987 828.863C420.536 830.311 421.324 831.814 422.33 833.331C423.925 835.732 426.117 838.236 428.84 840.774C433.352 844.982 437.82 847.889 438.009 848.007L439.161 848.753C439.672 849.082 440.328 849.082 440.839 848.753L441.991 848.007C442.18 847.884 446.643 844.982 451.16 840.774C453.882 838.236 456.075 835.732 457.67 833.331C458.676 831.814 459.469 830.311 460.013 828.863C460.669 827.129 461 825.426 461 823.791C461.005 822.057 460.66 820.373 459.984 818.787V818.787Z" fill="#FA326C" fill-opacity="0.19"/>
<path d="M1307.98 799.787C1307.33 798.263 1306.39 796.883 1305.22 795.722C1304.04 794.558 1302.66 793.633 1301.13 792.997C1299.56 792.335 1297.86 791.996 1296.16 792C1293.76 792 1291.42 792.663 1289.39 793.915C1288.9 794.214 1288.44 794.543 1288 794.902C1287.56 794.543 1287.1 794.214 1286.62 793.915C1284.58 792.663 1282.25 792 1279.85 792C1278.12 792 1276.45 792.334 1274.87 792.997C1273.34 793.635 1271.97 794.553 1270.79 795.722C1269.61 796.881 1268.67 798.262 1268.02 799.787C1267.35 801.373 1267 803.057 1267 804.791C1267 806.426 1267.33 808.129 1267.99 809.863C1268.54 811.311 1269.32 812.814 1270.33 814.331C1271.92 816.732 1274.12 819.236 1276.84 821.774C1281.35 825.982 1285.82 828.889 1286.01 829.007L1287.16 829.753C1287.67 830.082 1288.33 830.082 1288.84 829.753L1289.99 829.007C1290.18 828.884 1294.64 825.982 1299.16 821.774C1301.88 819.236 1304.08 816.732 1305.67 814.331C1306.68 812.814 1307.47 811.311 1308.01 809.863C1308.67 808.129 1309 806.426 1309 804.791C1309 803.057 1308.66 801.373 1307.98 799.787V799.787Z" fill="#FA326C" fill-opacity="0.19"/>
<path d="M0 0H1440V798H0V0Z" fill="#FEC7D7"/>
<path d="M1071.98 595.787C1071.33 594.263 1070.39 592.883 1069.22 591.722C1068.04 590.558 1066.66 589.633 1065.13 588.997C1063.56 588.335 1061.86 587.996 1060.16 588C1057.76 588 1055.42 588.663 1053.39 589.915C1052.9 590.214 1052.44 590.543 1052 590.902C1051.56 590.543 1051.1 590.214 1050.62 589.915C1048.58 588.663 1046.25 588 1043.85 588C1042.12 588 1040.45 588.334 1038.87 588.997C1037.34 589.635 1035.97 590.553 1034.79 591.722C1033.61 592.881 1032.67 594.262 1032.02 595.787C1031.35 597.373 1031 599.057 1031 600.791C1031 602.426 1031.33 604.129 1031.99 605.863C1032.54 607.311 1033.32 608.814 1034.33 610.331C1035.92 612.732 1038.12 615.236 1040.84 617.774C1045.35 621.982 1049.82 624.889 1050.01 625.007L1051.16 625.753C1051.67 626.082 1052.33 626.082 1052.84 625.753L1053.99 625.007C1054.18 624.884 1058.64 621.982 1063.16 617.774C1065.88 615.236 1068.08 612.732 1069.67 610.331C1070.68 608.814 1071.47 607.311 1072.01 605.863C1072.67 604.129 1073 602.426 1073 600.791C1073 599.057 1072.66 597.373 1071.98 595.787V595.787Z" fill="#FA326C" fill-opacity="0.19"/>
<path d="M85.9839 595.787C85.3322 594.263 84.3926 592.883 83.2176 591.722C82.0417 590.558 80.6553 589.633 79.1338 588.997C77.556 588.335 75.8639 587.996 74.1554 588C71.7586 588 69.4202 588.663 67.388 589.915C66.9018 590.214 66.44 590.543 66.0024 590.902C65.5649 590.543 65.103 590.214 64.6168 589.915C62.5847 588.663 60.2462 588 57.8494 588C56.1235 588 54.4511 588.334 52.871 588.997C51.3445 589.635 49.9686 590.553 48.7872 591.722C47.6107 592.881 46.6708 594.262 46.021 595.787C45.3452 597.373 45 599.057 45 600.791C45 602.426 45.3306 604.129 45.9869 605.863C46.5363 607.311 47.3239 608.814 48.3302 610.331C49.9249 612.732 52.1175 615.236 54.84 617.774C59.3516 621.982 63.8195 624.889 64.0091 625.007L65.1613 625.753C65.6718 626.082 66.3281 626.082 66.8386 625.753L67.9908 625.007C68.1804 624.884 72.6434 621.982 77.1599 617.774C79.8825 615.236 82.0751 612.732 83.6697 610.331C84.6761 608.814 85.4685 607.311 86.013 605.863C86.6694 604.129 86.9999 602.426 86.9999 600.791C87.0048 599.057 86.6596 597.373 85.9839 595.787V595.787Z" fill="#FA326C" fill-opacity="0.19"/>
<path d="M377.984 193.787C377.332 192.263 376.393 190.883 375.218 189.722C374.042 188.558 372.655 187.633 371.134 186.997C369.556 186.335 367.864 185.996 366.155 186C363.759 186 361.42 186.663 359.388 187.915C358.902 188.214 358.44 188.543 358.002 188.902C357.565 188.543 357.103 188.214 356.617 187.915C354.585 186.663 352.246 186 349.849 186C348.123 186 346.451 186.334 344.871 186.997C343.344 187.635 341.969 188.553 340.787 189.722C339.611 190.881 338.671 192.262 338.021 193.787C337.345 195.373 337 197.057 337 198.791C337 200.426 337.331 202.129 337.987 203.863C338.536 205.311 339.324 206.814 340.33 208.331C341.925 210.732 344.117 213.236 346.84 215.774C351.352 219.982 355.82 222.889 356.009 223.007L357.161 223.753C357.672 224.082 358.328 224.082 358.839 223.753L359.991 223.007C360.18 222.884 364.643 219.982 369.16 215.774C371.882 213.236 374.075 210.732 375.67 208.331C376.676 206.814 377.469 205.311 378.013 203.863C378.669 202.129 379 200.426 379 198.791C379.005 197.057 378.66 195.373 377.984 193.787V193.787Z" fill="#FA326C" fill-opacity="0.19"/>
<path d="M174.984 193.787C174.332 192.263 173.393 190.883 172.218 189.722C171.042 188.558 169.655 187.633 168.134 186.997C166.556 186.335 164.864 185.996 163.155 186C160.759 186 158.42 186.663 156.388 187.915C155.902 188.214 155.44 188.543 155.002 188.902C154.565 188.543 154.103 188.214 153.617 187.915C151.585 186.663 149.246 186 146.849 186C145.123 186 143.451 186.334 141.871 186.997C140.344 187.635 138.969 188.553 137.787 189.722C136.611 190.881 135.671 192.262 135.021 193.787C134.345 195.373 134 197.057 134 198.791C134 200.426 134.331 202.129 134.987 203.863C135.536 205.311 136.324 206.814 137.33 208.331C138.925 210.732 141.117 213.236 143.84 215.774C148.352 219.982 152.82 222.889 153.009 223.007L154.161 223.753C154.672 224.082 155.328 224.082 155.839 223.753L156.991 223.007C157.18 222.884 161.643 219.982 166.16 215.774C168.882 213.236 171.075 210.732 172.67 208.331C173.676 206.814 174.469 205.311 175.013 203.863C175.669 202.129 176 200.426 176 198.791C176.005 197.057 175.66 195.373 174.984 193.787V193.787Z" fill="#FA326C" fill-opacity="0.19"/>
<path d="M556.984 193.787C556.332 192.263 555.393 190.883 554.218 189.722C553.042 188.558 551.655 187.633 550.134 186.997C548.556 186.335 546.864 185.996 545.155 186C542.759 186 540.42 186.663 538.388 187.915C537.902 188.214 537.44 188.543 537.002 188.902C536.565 188.543 536.103 188.214 535.617 187.915C533.585 186.663 531.246 186 528.849 186C527.123 186 525.451 186.334 523.871 186.997C522.344 187.635 520.969 188.553 519.787 189.722C518.611 190.881 517.671 192.262 517.021 193.787C516.345 195.373 516 197.057 516 198.791C516 200.426 516.331 202.129 516.987 203.863C517.536 205.311 518.324 206.814 519.33 208.331C520.925 210.732 523.117 213.236 525.84 215.774C530.352 219.982 534.82 222.889 535.009 223.007L536.161 223.753C536.672 224.082 537.328 224.082 537.839 223.753L538.991 223.007C539.18 222.884 543.643 219.982 548.16 215.774C550.882 213.236 553.075 210.732 554.67 208.331C555.676 206.814 556.469 205.311 557.013 203.863C557.669 202.129 558 200.426 558 198.791C558.005 197.057 557.66 195.373 556.984 193.787V193.787Z" fill="#FA326C" fill-opacity="0.19"/>
<path d="M739.984 193.787C739.332 192.263 738.393 190.883 737.218 189.722C736.042 188.558 734.655 187.633 733.134 186.997C731.556 186.335 729.864 185.996 728.155 186C725.759 186 723.42 186.663 721.388 187.915C720.902 188.214 720.44 188.543 720.002 188.902C719.565 188.543 719.103 188.214 718.617 187.915C716.585 186.663 714.246 186 711.849 186C710.123 186 708.451 186.334 706.871 186.997C705.344 187.635 703.969 188.553 702.787 189.722C701.611 190.881 700.671 192.262 700.021 193.787C699.345 195.373 699 197.057 699 198.791C699 200.426 699.331 202.129 699.987 203.863C700.536 205.311 701.324 206.814 702.33 208.331C703.925 210.732 706.117 213.236 708.84 215.774C713.352 219.982 717.82 222.889 718.009 223.007L719.161 223.753C719.672 224.082 720.328 224.082 720.839 223.753L721.991 223.007C722.18 222.884 726.643 219.982 731.16 215.774C733.882 213.236 736.075 210.732 737.67 208.331C738.676 206.814 739.469 205.311 740.013 203.863C740.669 202.129 741 200.426 741 198.791C741.005 197.057 740.66 195.373 739.984 193.787V193.787Z" fill="#FA326C" fill-opacity="0.19"/>
<path d="M962.984 193.787C962.332 192.263 961.393 190.883 960.218 189.722C959.042 188.558 957.655 187.633 956.134 186.997C954.556 186.335 952.864 185.996 951.155 186C948.759 186 946.42 186.663 944.388 187.915C943.902 188.214 943.44 188.543 943.002 188.902C942.565 188.543 942.103 188.214 941.617 187.915C939.585 186.663 937.246 186 934.849 186C933.123 186 931.451 186.334 929.871 186.997C928.344 187.635 926.969 188.553 925.787 189.722C924.611 190.881 923.671 192.262 923.021 193.787C922.345 195.373 922 197.057 922 198.791C922 200.426 922.331 202.129 922.987 203.863C923.536 205.311 924.324 206.814 925.33 208.331C926.925 210.732 929.117 213.236 931.84 215.774C936.352 219.982 940.82 222.889 941.009 223.007L942.161 223.753C942.672 224.082 943.328 224.082 943.839 223.753L944.991 223.007C945.18 222.884 949.643 219.982 954.16 215.774C956.882 213.236 959.075 210.732 960.67 208.331C961.676 206.814 962.469 205.311 963.013 203.863C963.669 202.129 964 200.426 964 198.791C964.005 197.057 963.66 195.373 962.984 193.787V193.787Z" fill="#FA326C" fill-opacity="0.19"/>
<path d="M1185.98 193.787C1185.33 192.263 1184.39 190.883 1183.22 189.722C1182.04 188.558 1180.66 187.633 1179.13 186.997C1177.56 186.335 1175.86 185.996 1174.16 186C1171.76 186 1169.42 186.663 1167.39 187.915C1166.9 188.214 1166.44 188.543 1166 188.902C1165.56 188.543 1165.1 188.214 1164.62 187.915C1162.58 186.663 1160.25 186 1157.85 186C1156.12 186 1154.45 186.334 1152.87 186.997C1151.34 187.635 1149.97 188.553 1148.79 189.722C1147.61 190.881 1146.67 192.262 1146.02 193.787C1145.35 195.373 1145 197.057 1145 198.791C1145 200.426 1145.33 202.129 1145.99 203.863C1146.54 205.311 1147.32 206.814 1148.33 208.331C1149.92 210.732 1152.12 213.236 1154.84 215.774C1159.35 219.982 1163.82 222.889 1164.01 223.007L1165.16 223.753C1165.67 224.082 1166.33 224.082 1166.84 223.753L1167.99 223.007C1168.18 222.884 1172.64 219.982 1177.16 215.774C1179.88 213.236 1182.08 210.732 1183.67 208.331C1184.68 206.814 1185.47 205.311 1186.01 203.863C1186.67 202.129 1187 200.426 1187 198.791C1187 197.057 1186.66 195.373 1185.98 193.787V193.787Z" fill="#FA326C" fill-opacity="0.19"/>
<path d="M1408.98 193.787C1408.33 192.263 1407.39 190.883 1406.22 189.722C1405.04 188.558 1403.66 187.633 1402.13 186.997C1400.56 186.335 1398.86 185.996 1397.16 186C1394.76 186 1392.42 186.663 1390.39 187.915C1389.9 188.214 1389.44 188.543 1389 188.902C1388.56 188.543 1388.1 188.214 1387.62 187.915C1385.58 186.663 1383.25 186 1380.85 186C1379.12 186 1377.45 186.334 1375.87 186.997C1374.34 187.635 1372.97 188.553 1371.79 189.722C1370.61 190.881 1369.67 192.262 1369.02 193.787C1368.35 195.373 1368 197.057 1368 198.791C1368 200.426 1368.33 202.129 1368.99 203.863C1369.54 205.311 1370.32 206.814 1371.33 208.331C1372.92 210.732 1375.12 213.236 1377.84 215.774C1382.35 219.982 1386.82 222.889 1387.01 223.007L1388.16 223.753C1388.67 224.082 1389.33 224.082 1389.84 223.753L1390.99 223.007C1391.18 222.884 1395.64 219.982 1400.16 215.774C1402.88 213.236 1405.08 210.732 1406.67 208.331C1407.68 206.814 1408.47 205.311 1409.01 203.863C1409.67 202.129 1410 200.426 1410 198.791C1410 197.057 1409.66 195.373 1408.98 193.787V193.787Z" fill="#FA326C" fill-opacity="0.19"/>
<path d="M1297.98 303.787C1297.33 302.263 1296.39 300.883 1295.22 299.722C1294.04 298.558 1292.66 297.633 1291.13 296.997C1289.56 296.335 1287.86 295.996 1286.16 296C1283.76 296 1281.42 296.663 1279.39 297.915C1278.9 298.214 1278.44 298.543 1278 298.902C1277.56 298.543 1277.1 298.214 1276.62 297.915C1274.58 296.663 1272.25 296 1269.85 296C1268.12 296 1266.45 296.334 1264.87 296.997C1263.34 297.635 1261.97 298.553 1260.79 299.722C1259.61 300.881 1258.67 302.262 1258.02 303.787C1257.35 305.373 1257 307.057 1257 308.791C1257 310.426 1257.33 312.129 1257.99 313.863C1258.54 315.311 1259.32 316.814 1260.33 318.331C1261.92 320.732 1264.12 323.236 1266.84 325.774C1271.35 329.982 1275.82 332.889 1276.01 333.007L1277.16 333.753C1277.67 334.082 1278.33 334.082 1278.84 333.753L1279.99 333.007C1280.18 332.884 1284.64 329.982 1289.16 325.774C1291.88 323.236 1294.08 320.732 1295.67 318.331C1296.68 316.814 1297.47 315.311 1298.01 313.863C1298.67 312.129 1299 310.426 1299 308.791C1299 307.057 1298.66 305.373 1297.98 303.787V303.787Z" fill="#FA326C" fill-opacity="0.19"/>
<path d="M1301.98 595.787C1301.33 594.263 1300.39 592.883 1299.22 591.722C1298.04 590.558 1296.66 589.633 1295.13 588.997C1293.56 588.335 1291.86 587.996 1290.16 588C1287.76 588 1285.42 588.663 1283.39 589.915C1282.9 590.214 1282.44 590.543 1282 590.902C1281.56 590.543 1281.1 590.214 1280.62 589.915C1278.58 588.663 1276.25 588 1273.85 588C1272.12 588 1270.45 588.334 1268.87 588.997C1267.34 589.635 1265.97 590.553 1264.79 591.722C1263.61 592.881 1262.67 594.262 1262.02 595.787C1261.35 597.373 1261 599.057 1261 600.791C1261 602.426 1261.33 604.129 1261.99 605.863C1262.54 607.311 1263.32 608.814 1264.33 610.331C1265.92 612.732 1268.12 615.236 1270.84 617.774C1275.35 621.982 1279.82 624.889 1280.01 625.007L1281.16 625.753C1281.67 626.082 1282.33 626.082 1282.84 625.753L1283.99 625.007C1284.18 624.884 1288.64 621.982 1293.16 617.774C1295.88 615.236 1298.08 612.732 1299.67 610.331C1300.68 608.814 1301.47 607.311 1302.01 605.863C1302.67 604.129 1303 602.426 1303 600.791C1303 599.057 1302.66 597.373 1301.98 595.787V595.787Z" fill="#FA326C" fill-opacity="0.19"/>
<path d="M174.984 452.787C174.332 451.263 173.393 449.883 172.218 448.722C171.042 447.558 169.655 446.633 168.134 445.997C166.556 445.335 164.864 444.996 163.155 445C160.759 445 158.42 445.663 156.388 446.915C155.902 447.214 155.44 447.543 155.002 447.902C154.565 447.543 154.103 447.214 153.617 446.915C151.585 445.663 149.246 445 146.849 445C145.123 445 143.451 445.334 141.871 445.997C140.344 446.635 138.969 447.553 137.787 448.722C136.611 449.881 135.671 451.262 135.021 452.787C134.345 454.373 134 456.057 134 457.791C134 459.426 134.331 461.129 134.987 462.863C135.536 464.311 136.324 465.814 137.33 467.331C138.925 469.732 141.117 472.236 143.84 474.774C148.352 478.982 152.82 481.889 153.009 482.007L154.161 482.753C154.672 483.082 155.328 483.082 155.839 482.753L156.991 482.007C157.18 481.884 161.643 478.982 166.16 474.774C168.882 472.236 171.075 469.732 172.67 467.331C173.676 465.814 174.469 464.311 175.013 462.863C175.669 461.129 176 459.426 176 457.791C176.005 456.057 175.66 454.373 174.984 452.787V452.787Z" fill="#FA326C" fill-opacity="0.19"/>
<path d="M377.984 452.787C377.332 451.263 376.393 449.883 375.218 448.722C374.042 447.558 372.655 446.633 371.134 445.997C369.556 445.335 367.864 444.996 366.155 445C363.759 445 361.42 445.663 359.388 446.915C358.902 447.214 358.44 447.543 358.002 447.902C357.565 447.543 357.103 447.214 356.617 446.915C354.585 445.663 352.246 445 349.849 445C348.123 445 346.451 445.334 344.871 445.997C343.344 446.635 341.969 447.553 340.787 448.722C339.611 449.881 338.671 451.262 338.021 452.787C337.345 454.373 337 456.057 337 457.791C337 459.426 337.331 461.129 337.987 462.863C338.536 464.311 339.324 465.814 340.33 467.331C341.925 469.732 344.117 472.236 346.84 474.774C351.352 478.982 355.82 481.889 356.009 482.007L357.161 482.753C357.672 483.082 358.328 483.082 358.839 482.753L359.991 482.007C360.18 481.884 364.643 478.982 369.16 474.774C371.882 472.236 374.075 469.732 375.67 467.331C376.676 465.814 377.469 464.311 378.013 462.863C378.669 461.129 379 459.426 379 457.791C379.005 456.057 378.66 454.373 377.984 452.787V452.787Z" fill="#FA326C" fill-opacity="0.19"/>
<path d="M556.984 452.787C556.332 451.263 555.393 449.883 554.218 448.722C553.042 447.558 551.655 446.633 550.134 445.997C548.556 445.335 546.864 444.996 545.155 445C542.759 445 540.42 445.663 538.388 446.915C537.902 447.214 537.44 447.543 537.002 447.902C536.565 447.543 536.103 447.214 535.617 446.915C533.585 445.663 531.246 445 528.849 445C527.123 445 525.451 445.334 523.871 445.997C522.344 446.635 520.969 447.553 519.787 448.722C518.611 449.881 517.671 451.262 517.021 452.787C516.345 454.373 516 456.057 516 457.791C516 459.426 516.331 461.129 516.987 462.863C517.536 464.311 518.324 465.814 519.33 467.331C520.925 469.732 523.117 472.236 525.84 474.774C530.352 478.982 534.82 481.889 535.009 482.007L536.161 482.753C536.672 483.082 537.328 483.082 537.839 482.753L538.991 482.007C539.18 481.884 543.643 478.982 548.16 474.774C550.882 472.236 553.075 469.732 554.67 467.331C555.676 465.814 556.469 464.311 557.013 462.863C557.669 461.129 558 459.426 558 457.791C558.005 456.057 557.66 454.373 556.984 452.787V452.787Z" fill="#FA326C" fill-opacity="0.19"/>
<path d="M739.984 452.787C739.332 451.263 738.393 449.883 737.218 448.722C736.042 447.558 734.655 446.633 733.134 445.997C731.556 445.335 729.864 444.996 728.155 445C725.759 445 723.42 445.663 721.388 446.915C720.902 447.214 720.44 447.543 720.002 447.902C719.565 447.543 719.103 447.214 718.617 446.915C716.585 445.663 714.246 445 711.849 445C710.123 445 708.451 445.334 706.871 445.997C705.344 446.635 703.969 447.553 702.787 448.722C701.611 449.881 700.671 451.262 700.021 452.787C699.345 454.373 699 456.057 699 457.791C699 459.426 699.331 461.129 699.987 462.863C700.536 464.311 701.324 465.814 702.33 467.331C703.925 469.732 706.117 472.236 708.84 474.774C713.352 478.982 717.82 481.889 718.009 482.007L719.161 482.753C719.672 483.082 720.328 483.082 720.839 482.753L721.991 482.007C722.18 481.884 726.643 478.982 731.16 474.774C733.882 472.236 736.075 469.732 737.67 467.331C738.676 465.814 739.469 464.311 740.013 462.863C740.669 461.129 741 459.426 741 457.791C741.005 456.057 740.66 454.373 739.984 452.787V452.787Z" fill="#FA326C" fill-opacity="0.19"/>
<path d="M1297.98 60.7873C1297.33 59.2635 1296.39 57.8825 1295.22 56.7218C1294.04 55.5577 1292.66 54.6326 1291.13 53.9968C1289.56 53.3349 1287.86 52.9961 1286.16 53C1283.76 53 1281.42 53.6629 1279.39 54.9149C1278.9 55.2145 1278.44 55.5434 1278 55.9019C1277.56 55.5434 1277.1 55.2145 1276.62 54.9149C1274.58 53.6629 1272.25 53 1269.85 53C1268.12 53 1266.45 53.3339 1264.87 53.9968C1263.34 54.6351 1261.97 55.5533 1260.79 56.7218C1259.61 57.8812 1258.67 59.2625 1258.02 60.7873C1257.35 62.3733 1257 64.0574 1257 65.7907C1257 67.4257 1257.33 69.1295 1257.99 70.8627C1258.54 72.3112 1259.32 73.8137 1260.33 75.3309C1261.92 77.7319 1264.12 80.236 1266.84 82.7745C1271.35 86.9824 1275.82 89.8891 1276.01 90.0069L1277.16 90.7533C1277.67 91.0822 1278.33 91.0822 1278.84 90.7533L1279.99 90.0069C1280.18 89.8842 1284.64 86.9824 1289.16 82.7745C1291.88 80.236 1294.08 77.7319 1295.67 75.3309C1296.68 73.8137 1297.47 72.3112 1298.01 70.8627C1298.67 69.1295 1299 67.4257 1299 65.7907C1299 64.0574 1298.66 62.3733 1297.98 60.7873V60.7873Z" fill="#FA326C" fill-opacity="0.19"/>
<path d="M962.984 452.787C962.332 451.263 961.393 449.883 960.218 448.722C959.042 447.558 957.655 446.633 956.134 445.997C954.556 445.335 952.864 444.996 951.155 445C948.759 445 946.42 445.663 944.388 446.915C943.902 447.214 943.44 447.543 943.002 447.902C942.565 447.543 942.103 447.214 941.617 446.915C939.585 445.663 937.246 445 934.849 445C933.123 445 931.451 445.334 929.871 445.997C928.344 446.635 926.969 447.553 925.787 448.722C924.611 449.881 923.671 451.262 923.021 452.787C922.345 454.373 922 456.057 922 457.791C922 459.426 922.331 461.129 922.987 462.863C923.536 464.311 924.324 465.814 925.33 467.331C926.925 469.732 929.117 472.236 931.84 474.774C936.352 478.982 940.82 481.889 941.009 482.007L942.161 482.753C942.672 483.082 943.328 483.082 943.839 482.753L944.991 482.007C945.18 481.884 949.643 478.982 954.16 474.774C956.882 472.236 959.075 469.732 960.67 467.331C961.676 465.814 962.469 464.311 963.013 462.863C963.669 461.129 964 459.426 964 457.791C964.005 456.057 963.66 454.373 962.984 452.787V452.787Z" fill="#FA326C" fill-opacity="0.19"/>
<path d="M1185.98 452.787C1185.33 451.263 1184.39 449.883 1183.22 448.722C1182.04 447.558 1180.66 446.633 1179.13 445.997C1177.56 445.335 1175.86 444.996 1174.16 445C1171.76 445 1169.42 445.663 1167.39 446.915C1166.9 447.214 1166.44 447.543 1166 447.902C1165.56 447.543 1165.1 447.214 1164.62 446.915C1162.58 445.663 1160.25 445 1157.85 445C1156.12 445 1154.45 445.334 1152.87 445.997C1151.34 446.635 1149.97 447.553 1148.79 448.722C1147.61 449.881 1146.67 451.262 1146.02 452.787C1145.35 454.373 1145 456.057 1145 457.791C1145 459.426 1145.33 461.129 1145.99 462.863C1146.54 464.311 1147.32 465.814 1148.33 467.331C1149.92 469.732 1152.12 472.236 1154.84 474.774C1159.35 478.982 1163.82 481.889 1164.01 482.007L1165.16 482.753C1165.67 483.082 1166.33 483.082 1166.84 482.753L1167.99 482.007C1168.18 481.884 1172.64 478.982 1177.16 474.774C1179.88 472.236 1182.08 469.732 1183.67 467.331C1184.68 465.814 1185.47 464.311 1186.01 462.863C1186.67 461.129 1187 459.426 1187 457.791C1187 456.057 1186.66 454.373 1185.98 452.787V452.787Z" fill="#FA326C" fill-opacity="0.19"/>
<path d="M1408.98 452.787C1408.33 451.263 1407.39 449.883 1406.22 448.722C1405.04 447.558 1403.66 446.633 1402.13 445.997C1400.56 445.335 1398.86 444.996 1397.16 445C1394.76 445 1392.42 445.663 1390.39 446.915C1389.9 447.214 1389.44 447.543 1389 447.902C1388.56 447.543 1388.1 447.214 1387.62 446.915C1385.58 445.663 1383.25 445 1380.85 445C1379.12 445 1377.45 445.334 1375.87 445.997C1374.34 446.635 1372.97 447.553 1371.79 448.722C1370.61 449.881 1369.67 451.262 1369.02 452.787C1368.35 454.373 1368 456.057 1368 457.791C1368 459.426 1368.33 461.129 1368.99 462.863C1369.54 464.311 1370.32 465.814 1371.33 467.331C1372.92 469.732 1375.12 472.236 1377.84 474.774C1382.35 478.982 1386.82 481.889 1387.01 482.007L1388.16 482.753C1388.67 483.082 1389.33 483.082 1389.84 482.753L1390.99 482.007C1391.18 481.884 1395.64 478.982 1400.16 474.774C1402.88 472.236 1405.08 469.732 1406.67 467.331C1407.68 465.814 1408.47 464.311 1409.01 462.863C1409.67 461.129 1410 459.426 1410 457.791C1410 456.057 1409.66 454.373 1408.98 452.787V452.787Z" fill="#FA326C" fill-opacity="0.19"/>
<path d="M648.984 595.787C648.332 594.263 647.393 592.883 646.218 591.722C645.042 590.558 643.655 589.633 642.134 588.997C640.556 588.335 638.864 587.996 637.155 588C634.759 588 632.42 588.663 630.388 589.915C629.902 590.214 629.44 590.543 629.002 590.902C628.565 590.543 628.103 590.214 627.617 589.915C625.585 588.663 623.246 588 620.849 588C619.123 588 617.451 588.334 615.871 588.997C614.344 589.635 612.969 590.553 611.787 591.722C610.611 592.881 609.671 594.262 609.021 595.787C608.345 597.373 608 599.057 608 600.791C608 602.426 608.331 604.129 608.987 605.863C609.536 607.311 610.324 608.814 611.33 610.331C612.925 612.732 615.117 615.236 617.84 617.774C622.352 621.982 626.82 624.889 627.009 625.007L628.161 625.753C628.672 626.082 629.328 626.082 629.839 625.753L630.991 625.007C631.18 624.884 635.643 621.982 640.16 617.774C642.882 615.236 645.075 612.732 646.67 610.331C647.676 608.814 648.469 607.311 649.013 605.863C649.669 604.129 650 602.426 650 600.791C650.005 599.057 649.66 597.373 648.984 595.787V595.787Z" fill="#FA326C" fill-opacity="0.19"/>
<path d="M174.984 711.787C174.332 710.263 173.393 708.883 172.218 707.722C171.042 706.558 169.655 705.633 168.134 704.997C166.556 704.335 164.864 703.996 163.155 704C160.759 704 158.42 704.663 156.388 705.915C155.902 706.214 155.44 706.543 155.002 706.902C154.565 706.543 154.103 706.214 153.617 705.915C151.585 704.663 149.246 704 146.849 704C145.123 704 143.451 704.334 141.871 704.997C140.344 705.635 138.969 706.553 137.787 707.722C136.611 708.881 135.671 710.262 135.021 711.787C134.345 713.373 134 715.057 134 716.791C134 718.426 134.331 720.129 134.987 721.863C135.536 723.311 136.324 724.814 137.33 726.331C138.925 728.732 141.117 731.236 143.84 733.774C148.352 737.982 152.82 740.889 153.009 741.007L154.161 741.753C154.672 742.082 155.328 742.082 155.839 741.753L156.991 741.007C157.18 740.884 161.643 737.982 166.16 733.774C168.882 731.236 171.075 728.732 172.67 726.331C173.676 724.814 174.469 723.311 175.013 721.863C175.669 720.129 176 718.426 176 716.791C176.005 715.057 175.66 713.373 174.984 711.787V711.787Z" fill="#FA326C" fill-opacity="0.19"/>
<path d="M278.984 595.787C278.332 594.263 277.393 592.883 276.218 591.722C275.042 590.558 273.655 589.633 272.134 588.997C270.556 588.335 268.864 587.996 267.155 588C264.759 588 262.42 588.663 260.388 589.915C259.902 590.214 259.44 590.543 259.002 590.902C258.565 590.543 258.103 590.214 257.617 589.915C255.585 588.663 253.246 588 250.849 588C249.123 588 247.451 588.334 245.871 588.997C244.344 589.635 242.969 590.553 241.787 591.722C240.611 592.881 239.671 594.262 239.021 595.787C238.345 597.373 238 599.057 238 600.791C238 602.426 238.331 604.129 238.987 605.863C239.536 607.311 240.324 608.814 241.33 610.331C242.925 612.732 245.117 615.236 247.84 617.774C252.352 621.982 256.82 624.889 257.009 625.007L258.161 625.753C258.672 626.082 259.328 626.082 259.839 625.753L260.991 625.007C261.18 624.884 265.643 621.982 270.16 617.774C272.882 615.236 275.075 612.732 276.67 610.331C277.676 608.814 278.469 607.311 279.013 605.863C279.669 604.129 280 602.426 280 600.791C280.005 599.057 279.66 597.373 278.984 595.787V595.787Z" fill="#FA326C" fill-opacity="0.19"/>
<path d="M85.9839 60.7873C85.3322 59.2635 84.3926 57.8825 83.2176 56.7218C82.0417 55.5577 80.6553 54.6326 79.1338 53.9968C77.556 53.3349 75.8639 52.9961 74.1554 53C71.7586 53 69.4202 53.6629 67.388 54.9149C66.9018 55.2145 66.44 55.5434 66.0024 55.9019C65.5649 55.5434 65.103 55.2145 64.6168 54.9149C62.5847 53.6629 60.2462 53 57.8494 53C56.1235 53 54.4511 53.3339 52.871 53.9968C51.3445 54.6351 49.9686 55.5533 48.7872 56.7218C47.6107 57.8812 46.6708 59.2625 46.021 60.7873C45.3452 62.3733 45 64.0574 45 65.7907C45 67.4257 45.3306 69.1295 45.9869 70.8627C46.5363 72.3112 47.3239 73.8137 48.3302 75.3309C49.9249 77.7319 52.1175 80.236 54.84 82.7745C59.3516 86.9824 63.8195 89.8891 64.0091 90.0069L65.1613 90.7533C65.6718 91.0822 66.3281 91.0822 66.8386 90.7533L67.9908 90.0069C68.1804 89.8842 72.6434 86.9824 77.1599 82.7745C79.8825 80.236 82.0751 77.7319 83.6697 75.3309C84.6761 73.8137 85.4685 72.3112 86.013 70.8627C86.6694 69.1295 86.9999 67.4257 86.9999 65.7907C87.0048 64.0574 86.6596 62.3733 85.9839 60.7873V60.7873Z" fill="#FA326C" fill-opacity="0.19"/>
<path d="M463.984 60.7873C463.332 59.2635 462.393 57.8825 461.218 56.7218C460.042 55.5577 458.655 54.6326 457.134 53.9968C455.556 53.3349 453.864 52.9961 452.155 53C449.759 53 447.42 53.6629 445.388 54.9149C444.902 55.2145 444.44 55.5434 444.002 55.9019C443.565 55.5434 443.103 55.2145 442.617 54.9149C440.585 53.6629 438.246 53 435.849 53C434.123 53 432.451 53.3339 430.871 53.9968C429.344 54.6351 427.969 55.5533 426.787 56.7218C425.611 57.8812 424.671 59.2625 424.021 60.7873C423.345 62.3733 423 64.0574 423 65.7907C423 67.4257 423.331 69.1295 423.987 70.8627C424.536 72.3112 425.324 73.8137 426.33 75.3309C427.925 77.7319 430.117 80.236 432.84 82.7745C437.352 86.9824 441.82 89.8891 442.009 90.0069L443.161 90.7533C443.672 91.0822 444.328 91.0822 444.839 90.7533L445.991 90.0069C446.18 89.8842 450.643 86.9824 455.16 82.7745C457.882 80.236 460.075 77.7319 461.67 75.3309C462.676 73.8137 463.469 72.3112 464.013 70.8627C464.669 69.1295 465 67.4257 465 65.7907C465.005 64.0574 464.66 62.3733 463.984 60.7873V60.7873Z" fill="#FA326C" fill-opacity="0.19"/>
<path d="M648.984 312.787C648.332 311.263 647.393 309.883 646.218 308.722C645.042 307.558 643.655 306.633 642.134 305.997C640.556 305.335 638.864 304.996 637.155 305C634.759 305 632.42 305.663 630.388 306.915C629.902 307.214 629.44 307.543 629.002 307.902C628.565 307.543 628.103 307.214 627.617 306.915C625.585 305.663 623.246 305 620.849 305C619.123 305 617.451 305.334 615.871 305.997C614.344 306.635 612.969 307.553 611.787 308.722C610.611 309.881 609.671 311.262 609.021 312.787C608.345 314.373 608 316.057 608 317.791C608 319.426 608.331 321.129 608.987 322.863C609.536 324.311 610.324 325.814 611.33 327.331C612.925 329.732 615.117 332.236 617.84 334.774C622.352 338.982 626.82 341.889 627.009 342.007L628.161 342.753C628.672 343.082 629.328 343.082 629.839 342.753L630.991 342.007C631.18 341.884 635.643 338.982 640.16 334.774C642.882 332.236 645.075 329.732 646.67 327.331C647.676 325.814 648.469 324.311 649.013 322.863C649.669 321.129 650 319.426 650 317.791C650.005 316.057 649.66 314.373 648.984 312.787V312.787Z" fill="#FA326C" fill-opacity="0.19"/>
<path d="M841.984 312.787C841.332 311.263 840.393 309.883 839.218 308.722C838.042 307.558 836.655 306.633 835.134 305.997C833.556 305.335 831.864 304.996 830.155 305C827.759 305 825.42 305.663 823.388 306.915C822.902 307.214 822.44 307.543 822.002 307.902C821.565 307.543 821.103 307.214 820.617 306.915C818.585 305.663 816.246 305 813.849 305C812.123 305 810.451 305.334 808.871 305.997C807.344 306.635 805.969 307.553 804.787 308.722C803.611 309.881 802.671 311.262 802.021 312.787C801.345 314.373 801 316.057 801 317.791C801 319.426 801.331 321.129 801.987 322.863C802.536 324.311 803.324 325.814 804.33 327.331C805.925 329.732 808.117 332.236 810.84 334.774C815.352 338.982 819.82 341.889 820.009 342.007L821.161 342.753C821.672 343.082 822.328 343.082 822.839 342.753L823.991 342.007C824.18 341.884 828.643 338.982 833.16 334.774C835.882 332.236 838.075 329.732 839.67 327.331C840.676 325.814 841.469 324.311 842.013 322.863C842.669 321.129 843 319.426 843 317.791C843.005 316.057 842.66 314.373 841.984 312.787V312.787Z" fill="#FA326C" fill-opacity="0.19"/>
<path d="M1071.98 312.787C1071.33 311.263 1070.39 309.883 1069.22 308.722C1068.04 307.558 1066.66 306.633 1065.13 305.997C1063.56 305.335 1061.86 304.996 1060.16 305C1057.76 305 1055.42 305.663 1053.39 306.915C1052.9 307.214 1052.44 307.543 1052 307.902C1051.56 307.543 1051.1 307.214 1050.62 306.915C1048.58 305.663 1046.25 305 1043.85 305C1042.12 305 1040.45 305.334 1038.87 305.997C1037.34 306.635 1035.97 307.553 1034.79 308.722C1033.61 309.881 1032.67 311.262 1032.02 312.787C1031.35 314.373 1031 316.057 1031 317.791C1031 319.426 1031.33 321.129 1031.99 322.863C1032.54 324.311 1033.32 325.814 1034.33 327.331C1035.92 329.732 1038.12 332.236 1040.84 334.774C1045.35 338.982 1049.82 341.889 1050.01 342.007L1051.16 342.753C1051.67 343.082 1052.33 343.082 1052.84 342.753L1053.99 342.007C1054.18 341.884 1058.64 338.982 1063.16 334.774C1065.88 332.236 1068.08 329.732 1069.67 327.331C1070.68 325.814 1071.47 324.311 1072.01 322.863C1072.67 321.129 1073 319.426 1073 317.791C1073 316.057 1072.66 314.373 1071.98 312.787V312.787Z" fill="#FA326C" fill-opacity="0.19"/>
<path d="M648.984 60.7873C648.332 59.2635 647.393 57.8825 646.218 56.7218C645.042 55.5577 643.655 54.6326 642.134 53.9968C640.556 53.3349 638.864 52.9961 637.155 53C634.759 53 632.42 53.6629 630.388 54.9149C629.902 55.2145 629.44 55.5434 629.002 55.9019C628.565 55.5434 628.103 55.2145 627.617 54.9149C625.585 53.6629 623.246 53 620.849 53C619.123 53 617.451 53.3339 615.871 53.9968C614.344 54.6351 612.969 55.5533 611.787 56.7218C610.611 57.8812 609.671 59.2625 609.021 60.7873C608.345 62.3733 608 64.0574 608 65.7907C608 67.4257 608.331 69.1295 608.987 70.8627C609.536 72.3112 610.324 73.8137 611.33 75.3309C612.925 77.7319 615.117 80.236 617.84 82.7745C622.352 86.9824 626.82 89.8891 627.009 90.0069L628.161 90.7533C628.672 91.0822 629.328 91.0822 629.839 90.7533L630.991 90.0069C631.18 89.8842 635.643 86.9824 640.16 82.7745C642.882 80.236 645.075 77.7319 646.67 75.3309C647.676 73.8137 648.469 72.3112 649.013 70.8627C649.669 69.1295 650 67.4257 650 65.7907C650.005 64.0574 649.66 62.3733 648.984 60.7873V60.7873Z" fill="#FA326C" fill-opacity="0.19"/>
<path d="M1071.98 60.7873C1071.33 59.2635 1070.39 57.8825 1069.22 56.7218C1068.04 55.5577 1066.66 54.6326 1065.13 53.9968C1063.56 53.3349 1061.86 52.9961 1060.16 53C1057.76 53 1055.42 53.6629 1053.39 54.9149C1052.9 55.2145 1052.44 55.5434 1052 55.9019C1051.56 55.5434 1051.1 55.2145 1050.62 54.9149C1048.58 53.6629 1046.25 53 1043.85 53C1042.12 53 1040.45 53.3339 1038.87 53.9968C1037.34 54.6351 1035.97 55.5533 1034.79 56.7218C1033.61 57.8812 1032.67 59.2625 1032.02 60.7873C1031.35 62.3733 1031 64.0574 1031 65.7907C1031 67.4257 1031.33 69.1295 1031.99 70.8627C1032.54 72.3112 1033.32 73.8137 1034.33 75.3309C1035.92 77.7319 1038.12 80.236 1040.84 82.7745C1045.35 86.9824 1049.82 89.8891 1050.01 90.0069L1051.16 90.7533C1051.67 91.0822 1052.33 91.0822 1052.84 90.7533L1053.99 90.0069C1054.18 89.8842 1058.64 86.9824 1063.16 82.7745C1065.88 80.236 1068.08 77.7319 1069.67 75.3309C1070.68 73.8137 1071.47 72.3112 1072.01 70.8627C1072.67 69.1295 1073 67.4257 1073 65.7907C1073 64.0574 1072.66 62.3733 1071.98 60.7873V60.7873Z" fill="#FA326C" fill-opacity="0.19"/>
<path d="M844.984 60.7873C844.332 59.2635 843.393 57.8825 842.218 56.7218C841.042 55.5577 839.655 54.6326 838.134 53.9968C836.556 53.3349 834.864 52.9961 833.155 53C830.759 53 828.42 53.6629 826.388 54.9149C825.902 55.2145 825.44 55.5434 825.002 55.9019C824.565 55.5434 824.103 55.2145 823.617 54.9149C821.585 53.6629 819.246 53 816.849 53C815.123 53 813.451 53.3339 811.871 53.9968C810.344 54.6351 808.969 55.5533 807.787 56.7218C806.611 57.8812 805.671 59.2625 805.021 60.7873C804.345 62.3733 804 64.0574 804 65.7907C804 67.4257 804.331 69.1295 804.987 70.8627C805.536 72.3112 806.324 73.8137 807.33 75.3309C808.925 77.7319 811.117 80.236 813.84 82.7745C818.352 86.9824 822.82 89.8891 823.009 90.0069L824.161 90.7533C824.672 91.0822 825.328 91.0822 825.839 90.7533L826.991 90.0069C827.18 89.8842 831.643 86.9824 836.16 82.7745C838.882 80.236 841.075 77.7319 842.67 75.3309C843.676 73.8137 844.469 72.3112 845.013 70.8627C845.669 69.1295 846 67.4257 846 65.7907C846.005 64.0574 845.66 62.3733 844.984 60.7873V60.7873Z" fill="#FA326C" fill-opacity="0.19"/>
<path d="M278.984 60.7873C278.332 59.2635 277.393 57.8825 276.218 56.7218C275.042 55.5577 273.655 54.6326 272.134 53.9968C270.556 53.3349 268.864 52.9961 267.155 53C264.759 53 262.42 53.6629 260.388 54.9149C259.902 55.2145 259.44 55.5434 259.002 55.9019C258.565 55.5434 258.103 55.2145 257.617 54.9149C255.585 53.6629 253.246 53 250.849 53C249.123 53 247.451 53.3339 245.871 53.9968C244.344 54.6351 242.969 55.5533 241.787 56.7218C240.611 57.8812 239.671 59.2625 239.021 60.7873C238.345 62.3733 238 64.0574 238 65.7907C238 67.4257 238.331 69.1295 238.987 70.8627C239.536 72.3112 240.324 73.8137 241.33 75.3309C242.925 77.7319 245.117 80.236 247.84 82.7745C252.352 86.9824 256.82 89.8891 257.009 90.0069L258.161 90.7533C258.672 91.0822 259.328 91.0822 259.839 90.7533L260.991 90.0069C261.18 89.8842 265.643 86.9824 270.16 82.7745C272.882 80.236 275.075 77.7319 276.67 75.3309C277.676 73.8137 278.469 72.3112 279.013 70.8627C279.669 69.1295 280 67.4257 280 65.7907C280.005 64.0574 279.66 62.3733 278.984 60.7873V60.7873Z" fill="#FA326C" fill-opacity="0.19"/>
<path d="M841.984 595.787C841.332 594.263 840.393 592.883 839.218 591.722C838.042 590.558 836.655 589.633 835.134 588.997C833.556 588.335 831.864 587.996 830.155 588C827.759 588 825.42 588.663 823.388 589.915C822.902 590.214 822.44 590.543 822.002 590.902C821.565 590.543 821.103 590.214 820.617 589.915C818.585 588.663 816.246 588 813.849 588C812.123 588 810.451 588.334 808.871 588.997C807.344 589.635 805.969 590.553 804.787 591.722C803.611 592.881 802.671 594.262 802.021 595.787C801.345 597.373 801 599.057 801 600.791C801 602.426 801.331 604.129 801.987 605.863C802.536 607.311 803.324 608.814 804.33 610.331C805.925 612.732 808.117 615.236 810.84 617.774C815.352 621.982 819.82 624.889 820.009 625.007L821.161 625.753C821.672 626.082 822.328 626.082 822.839 625.753L823.991 625.007C824.18 624.884 828.643 621.982 833.16 617.774C835.882 615.236 838.075 612.732 839.67 610.331C840.676 608.814 841.469 607.311 842.013 605.863C842.669 604.129 843 602.426 843 600.791C843.005 599.057 842.66 597.373 841.984 595.787V595.787Z" fill="#FA326C" fill-opacity="0.19"/>
<path d="M85.9839 321.787C85.3322 320.263 84.3926 318.883 83.2176 317.722C82.0417 316.558 80.6553 315.633 79.1338 314.997C77.556 314.335 75.8639 313.996 74.1554 314C71.7586 314 69.4202 314.663 67.388 315.915C66.9018 316.214 66.44 316.543 66.0024 316.902C65.5649 316.543 65.103 316.214 64.6168 315.915C62.5847 314.663 60.2462 314 57.8494 314C56.1235 314 54.4511 314.334 52.871 314.997C51.3445 315.635 49.9686 316.553 48.7872 317.722C47.6107 318.881 46.6708 320.262 46.021 321.787C45.3452 323.373 45 325.057 45 326.791C45 328.426 45.3306 330.129 45.9869 331.863C46.5363 333.311 47.3239 334.814 48.3302 336.331C49.9249 338.732 52.1175 341.236 54.84 343.774C59.3516 347.982 63.8195 350.889 64.0091 351.007L65.1613 351.753C65.6718 352.082 66.3281 352.082 66.8386 351.753L67.9908 351.007C68.1804 350.884 72.6434 347.982 77.1599 343.774C79.8825 341.236 82.0751 338.732 83.6697 336.331C84.6761 334.814 85.4685 333.311 86.013 331.863C86.6694 330.129 86.9999 328.426 86.9999 326.791C87.0048 325.057 86.6596 323.373 85.9839 321.787V321.787Z" fill="#FA326C" fill-opacity="0.19"/>
<path d="M278.984 312.787C278.332 311.263 277.393 309.883 276.218 308.722C275.042 307.558 273.655 306.633 272.134 305.997C270.556 305.335 268.864 304.996 267.155 305C264.759 305 262.42 305.663 260.388 306.915C259.902 307.214 259.44 307.543 259.002 307.902C258.565 307.543 258.103 307.214 257.617 306.915C255.585 305.663 253.246 305 250.849 305C249.123 305 247.451 305.334 245.871 305.997C244.344 306.635 242.969 307.553 241.787 308.722C240.611 309.881 239.671 311.262 239.021 312.787C238.345 314.373 238 316.057 238 317.791C238 319.426 238.331 321.129 238.987 322.863C239.536 324.311 240.324 325.814 241.33 327.331C242.925 329.732 245.117 332.236 247.84 334.774C252.352 338.982 256.82 341.889 257.009 342.007L258.161 342.753C258.672 343.082 259.328 343.082 259.839 342.753L260.991 342.007C261.18 341.884 265.643 338.982 270.16 334.774C272.882 332.236 275.075 329.732 276.67 327.331C277.676 325.814 278.469 324.311 279.013 322.863C279.669 321.129 280 319.426 280 317.791C280.005 316.057 279.66 314.373 278.984 312.787V312.787Z" fill="#FA326C" fill-opacity="0.19"/>
<path d="M471.984 303.787C471.332 302.263 470.393 300.883 469.218 299.722C468.042 298.558 466.655 297.633 465.134 296.997C463.556 296.335 461.864 295.996 460.155 296C457.759 296 455.42 296.663 453.388 297.915C452.902 298.214 452.44 298.543 452.002 298.902C451.565 298.543 451.103 298.214 450.617 297.915C448.585 296.663 446.246 296 443.849 296C442.123 296 440.451 296.334 438.871 296.997C437.344 297.635 435.969 298.553 434.787 299.722C433.611 300.881 432.671 302.262 432.021 303.787C431.345 305.373 431 307.057 431 308.791C431 310.426 431.331 312.129 431.987 313.863C432.536 315.311 433.324 316.814 434.33 318.331C435.925 320.732 438.117 323.236 440.84 325.774C445.352 329.982 449.82 332.889 450.009 333.007L451.161 333.753C451.672 334.082 452.328 334.082 452.839 333.753L453.991 333.007C454.18 332.884 458.643 329.982 463.16 325.774C465.882 323.236 468.075 320.732 469.67 318.331C470.676 316.814 471.469 315.311 472.013 313.863C472.669 312.129 473 310.426 473 308.791C473.005 307.057 472.66 305.373 471.984 303.787V303.787Z" fill="#FA326C" fill-opacity="0.19"/>
<path d="M471.984 595.787C471.332 594.263 470.393 592.883 469.218 591.722C468.042 590.558 466.655 589.633 465.134 588.997C463.556 588.335 461.864 587.996 460.155 588C457.759 588 455.42 588.663 453.388 589.915C452.902 590.214 452.44 590.543 452.002 590.902C451.565 590.543 451.103 590.214 450.617 589.915C448.585 588.663 446.246 588 443.849 588C442.123 588 440.451 588.334 438.871 588.997C437.344 589.635 435.969 590.553 434.787 591.722C433.611 592.881 432.671 594.262 432.021 595.787C431.345 597.373 431 599.057 431 600.791C431 602.426 431.331 604.129 431.987 605.863C432.536 607.311 433.324 608.814 434.33 610.331C435.925 612.732 438.117 615.236 440.84 617.774C445.352 621.982 449.82 624.889 450.009 625.007L451.161 625.753C451.672 626.082 452.328 626.082 452.839 625.753L453.991 625.007C454.18 624.884 458.643 621.982 463.16 617.774C465.882 615.236 468.075 612.732 469.67 610.331C470.676 608.814 471.469 607.311 472.013 605.863C472.669 604.129 473 602.426 473 600.791C473.005 599.057 472.66 597.373 471.984 595.787V595.787Z" fill="#FA326C" fill-opacity="0.19"/>
<path d="M377.984 711.787C377.332 710.263 376.393 708.883 375.218 707.722C374.042 706.558 372.655 705.633 371.134 704.997C369.556 704.335 367.864 703.996 366.155 704C363.759 704 361.42 704.663 359.388 705.915C358.902 706.214 358.44 706.543 358.002 706.902C357.565 706.543 357.103 706.214 356.617 705.915C354.585 704.663 352.246 704 349.849 704C348.123 704 346.451 704.334 344.871 704.997C343.344 705.635 341.969 706.553 340.787 707.722C339.611 708.881 338.671 710.262 338.021 711.787C337.345 713.373 337 715.057 337 716.791C337 718.426 337.331 720.129 337.987 721.863C338.536 723.311 339.324 724.814 340.33 726.331C341.925 728.732 344.117 731.236 346.84 733.774C351.352 737.982 355.82 740.889 356.009 741.007L357.161 741.753C357.672 742.082 358.328 742.082 358.839 741.753L359.991 741.007C360.18 740.884 364.643 737.982 369.16 733.774C371.882 731.236 374.075 728.732 375.67 726.331C376.676 724.814 377.469 723.311 378.013 721.863C378.669 720.129 379 718.426 379 716.791C379.005 715.057 378.66 713.373 377.984 711.787V711.787Z" fill="#FA326C" fill-opacity="0.19"/>
<path d="M556.984 711.787C556.332 710.263 555.393 708.883 554.218 707.722C553.042 706.558 551.655 705.633 550.134 704.997C548.556 704.335 546.864 703.996 545.155 704C542.759 704 540.42 704.663 538.388 705.915C537.902 706.214 537.44 706.543 537.002 706.902C536.565 706.543 536.103 706.214 535.617 705.915C533.585 704.663 531.246 704 528.849 704C527.123 704 525.451 704.334 523.871 704.997C522.344 705.635 520.969 706.553 519.787 707.722C518.611 708.881 517.671 710.262 517.021 711.787C516.345 713.373 516 715.057 516 716.791C516 718.426 516.331 720.129 516.987 721.863C517.536 723.311 518.324 724.814 519.33 726.331C520.925 728.732 523.117 731.236 525.84 733.774C530.352 737.982 534.82 740.889 535.009 741.007L536.161 741.753C536.672 742.082 537.328 742.082 537.839 741.753L538.991 741.007C539.18 740.884 543.643 737.982 548.16 733.774C550.882 731.236 553.075 728.732 554.67 726.331C555.676 724.814 556.469 723.311 557.013 721.863C557.669 720.129 558 718.426 558 716.791C558.005 715.057 557.66 713.373 556.984 711.787V711.787Z" fill="#FA326C" fill-opacity="0.19"/>
<path d="M739.984 711.787C739.332 710.263 738.393 708.883 737.218 707.722C736.042 706.558 734.655 705.633 733.134 704.997C731.556 704.335 729.864 703.996 728.155 704C725.759 704 723.42 704.663 721.388 705.915C720.902 706.214 720.44 706.543 720.002 706.902C719.565 706.543 719.103 706.214 718.617 705.915C716.585 704.663 714.246 704 711.849 704C710.123 704 708.451 704.334 706.871 704.997C705.344 705.635 703.969 706.553 702.787 707.722C701.611 708.881 700.671 710.262 700.021 711.787C699.345 713.373 699 715.057 699 716.791C699 718.426 699.331 720.129 699.987 721.863C700.536 723.311 701.324 724.814 702.33 726.331C703.925 728.732 706.117 731.236 708.84 733.774C713.352 737.982 717.82 740.889 718.009 741.007L719.161 741.753C719.672 742.082 720.328 742.082 720.839 741.753L721.991 741.007C722.18 740.884 726.643 737.982 731.16 733.774C733.882 731.236 736.075 728.732 737.67 726.331C738.676 724.814 739.469 723.311 740.013 721.863C740.669 720.129 741 718.426 741 716.791C741.005 715.057 740.66 713.373 739.984 711.787V711.787Z" fill="#FA326C" fill-opacity="0.19"/>
<path d="M962.984 711.787C962.332 710.263 961.393 708.883 960.218 707.722C959.042 706.558 957.655 705.633 956.134 704.997C954.556 704.335 952.864 703.996 951.155 704C948.759 704 946.42 704.663 944.388 705.915C943.902 706.214 943.44 706.543 943.002 706.902C942.565 706.543 942.103 706.214 941.617 705.915C939.585 704.663 937.246 704 934.849 704C933.123 704 931.451 704.334 929.871 704.997C928.344 705.635 926.969 706.553 925.787 707.722C924.611 708.881 923.671 710.262 923.021 711.787C922.345 713.373 922 715.057 922 716.791C922 718.426 922.331 720.129 922.987 721.863C923.536 723.311 924.324 724.814 925.33 726.331C926.925 728.732 929.117 731.236 931.84 733.774C936.352 737.982 940.82 740.889 941.009 741.007L942.161 741.753C942.672 742.082 943.328 742.082 943.839 741.753L944.991 741.007C945.18 740.884 949.643 737.982 954.16 733.774C956.882 731.236 959.075 728.732 960.67 726.331C961.676 724.814 962.469 723.311 963.013 721.863C963.669 720.129 964 718.426 964 716.791C964.005 715.057 963.66 713.373 962.984 711.787V711.787Z" fill="#FA326C" fill-opacity="0.19"/>
<path d="M1185.98 711.787C1185.33 710.263 1184.39 708.883 1183.22 707.722C1182.04 706.558 1180.66 705.633 1179.13 704.997C1177.56 704.335 1175.86 703.996 1174.16 704C1171.76 704 1169.42 704.663 1167.39 705.915C1166.9 706.214 1166.44 706.543 1166 706.902C1165.56 706.543 1165.1 706.214 1164.62 705.915C1162.58 704.663 1160.25 704 1157.85 704C1156.12 704 1154.45 704.334 1152.87 704.997C1151.34 705.635 1149.97 706.553 1148.79 707.722C1147.61 708.881 1146.67 710.262 1146.02 711.787C1145.35 713.373 1145 715.057 1145 716.791C1145 718.426 1145.33 720.129 1145.99 721.863C1146.54 723.311 1147.32 724.814 1148.33 726.331C1149.92 728.732 1152.12 731.236 1154.84 733.774C1159.35 737.982 1163.82 740.889 1164.01 741.007L1165.16 741.753C1165.67 742.082 1166.33 742.082 1166.84 741.753L1167.99 741.007C1168.18 740.884 1172.64 737.982 1177.16 733.774C1179.88 731.236 1182.08 728.732 1183.67 726.331C1184.68 724.814 1185.47 723.311 1186.01 721.863C1186.67 720.129 1187 718.426 1187 716.791C1187 715.057 1186.66 713.373 1185.98 711.787V711.787Z" fill="#FA326C" fill-opacity="0.19"/>
<path d="M1408.98 711.787C1408.33 710.263 1407.39 708.883 1406.22 707.722C1405.04 706.558 1403.66 705.633 1402.13 704.997C1400.56 704.335 1398.86 703.996 1397.16 704C1394.76 704 1392.42 704.663 1390.39 705.915C1389.9 706.214 1389.44 706.543 1389 706.902C1388.56 706.543 1388.1 706.214 1387.62 705.915C1385.58 704.663 1383.25 704 1380.85 704C1379.12 704 1377.45 704.334 1375.87 704.997C1374.34 705.635 1372.97 706.553 1371.79 707.722C1370.61 708.881 1369.67 710.262 1369.02 711.787C1368.35 713.373 1368 715.057 1368 716.791C1368 718.426 1368.33 720.129 1368.99 721.863C1369.54 723.311 1370.32 724.814 1371.33 726.331C1372.92 728.732 1375.12 731.236 1377.84 733.774C1382.35 737.982 1386.82 740.889 1387.01 741.007L1388.16 741.753C1388.67 742.082 1389.33 742.082 1389.84 741.753L1390.99 741.007C1391.18 740.884 1395.64 737.982 1400.16 733.774C1402.88 731.236 1405.08 728.732 1406.67 726.331C1407.68 724.814 1408.47 723.311 1409.01 721.863C1409.67 720.129 1410 718.426 1410 716.791C1410 715.057 1409.66 713.373 1408.98 711.787V711.787Z" fill="#FA326C" fill-opacity="0.19"/>
</svg>
