<svg width="33" height="33" viewBox="0 0 33 33" fill="none" xmlns="http://www.w3.org/2000/svg">
<path fill-rule="evenodd" clip-rule="evenodd" d="M9.42813 0.09625C11.1388 0.0175 11.6842 0 16.0417 0C20.3992 0 20.9446 0.0189583 22.6538 0.09625C24.3629 0.173542 25.5296 0.44625 26.5504 0.841458C27.6194 1.24542 28.5892 1.87687 29.3913 2.69354C30.2079 3.49417 30.8379 4.4625 31.2404 5.53292C31.6371 6.55375 31.9083 7.72042 31.9871 9.42667C32.0658 11.1402 32.0833 11.6856 32.0833 16.0417C32.0833 20.3992 32.0644 20.9446 31.9871 22.6552C31.9098 24.3615 31.6371 25.5281 31.2404 26.549C30.8379 27.6195 30.2069 28.5895 29.3913 29.3912C28.5892 30.2079 27.6194 30.8379 26.5504 31.2404C25.5296 31.6371 24.3629 31.9083 22.6567 31.9871C20.9446 32.0658 20.3992 32.0833 16.0417 32.0833C11.6842 32.0833 11.1388 32.0644 9.42813 31.9871C7.72188 31.9098 6.55521 31.6371 5.53438 31.2404C4.46384 30.8379 3.49391 30.2068 2.69208 29.3912C1.87597 28.5901 1.24442 27.6207 0.841458 26.5504C0.44625 25.5296 0.175 24.3629 0.09625 22.6567C0.0175 20.9431 0 20.3977 0 16.0417C0 11.6842 0.0189583 11.1387 0.09625 9.42958C0.173542 7.72042 0.44625 6.55375 0.841458 5.53292C1.24501 4.46262 1.87705 3.49316 2.69354 2.69208C3.49423 1.87615 4.46319 1.2446 5.53292 0.841458C6.55375 0.44625 7.72042 0.175 9.42667 0.09625H9.42813ZM22.524 2.98375C20.8323 2.90646 20.3248 2.89042 16.0417 2.89042C11.7585 2.89042 11.251 2.90646 9.55938 2.98375C7.99458 3.05521 7.14583 3.31625 6.58 3.53646C5.83188 3.82812 5.29667 4.17375 4.73521 4.73521C4.20298 5.25299 3.79339 5.88333 3.53646 6.58C3.31625 7.14583 3.05521 7.99458 2.98375 9.55937C2.90646 11.251 2.89042 11.7585 2.89042 16.0417C2.89042 20.3248 2.90646 20.8323 2.98375 22.524C3.05521 24.0887 3.31625 24.9375 3.53646 25.5033C3.79313 26.199 4.20292 26.8304 4.73521 27.3481C5.25292 27.8804 5.88438 28.2902 6.58 28.5469C7.14583 28.7671 7.99458 29.0281 9.55938 29.0996C11.251 29.1769 11.7571 29.1929 16.0417 29.1929C20.3263 29.1929 20.8323 29.1769 22.524 29.0996C24.0888 29.0281 24.9375 28.7671 25.5033 28.5469C26.2515 28.2552 26.7867 27.9096 27.3481 27.3481C27.8804 26.8304 28.2902 26.199 28.5469 25.5033C28.7671 24.9375 29.0281 24.0887 29.0996 22.524C29.1769 20.8323 29.1929 20.3248 29.1929 16.0417C29.1929 11.7585 29.1769 11.251 29.0996 9.55937C29.0281 7.99458 28.7671 7.14583 28.5469 6.58C28.2552 5.83187 27.9096 5.29667 27.3481 4.73521C26.8303 4.20302 26.2 3.79343 25.5033 3.53646C24.9375 3.31625 24.0888 3.05521 22.524 2.98375V2.98375ZM13.9927 20.9869C15.137 21.4632 16.4112 21.5275 17.5976 21.1688C18.784 20.81 19.8091 20.0505 20.4978 19.0199C21.1864 17.9894 21.4959 16.7517 21.3734 15.5183C21.2509 14.2849 20.704 13.1323 19.826 12.2573C19.2664 11.698 18.5897 11.2697 17.8447 11.0033C17.0996 10.737 16.3048 10.6391 15.5174 10.7167C14.73 10.7944 13.9696 11.0457 13.291 11.4525C12.6123 11.8593 12.0323 12.4115 11.5927 13.0694C11.1531 13.7272 10.8649 14.4744 10.7487 15.257C10.6325 16.0397 10.6913 16.8383 10.9208 17.5955C11.1503 18.3527 11.5449 19.0496 12.0761 19.6361C12.6072 20.2225 13.2618 20.6838 13.9927 20.9869ZM10.2113 10.2112C10.9769 9.44559 11.8859 8.83823 12.8863 8.42386C13.8867 8.00949 14.9589 7.79621 16.0417 7.79621C17.1245 7.79621 18.1967 8.00949 19.1971 8.42386C20.1975 8.83823 21.1064 9.44559 21.8721 10.2112C22.6377 10.9769 23.2451 11.8859 23.6595 12.8863C24.0738 13.8867 24.2871 14.9589 24.2871 16.0417C24.2871 17.1245 24.0738 18.1967 23.6595 19.1971C23.2451 20.1974 22.6377 21.1064 21.8721 21.8721C20.3258 23.4184 18.2285 24.2871 16.0417 24.2871C13.8548 24.2871 11.7576 23.4184 10.2113 21.8721C8.66493 20.3258 7.79621 18.2285 7.79621 16.0417C7.79621 13.8548 8.66493 11.7576 10.2113 10.2112V10.2112ZM26.1158 9.02417C26.3056 8.84518 26.4575 8.62995 26.5625 8.39121C26.6676 8.15247 26.7237 7.89508 26.7275 7.63427C26.7313 7.37347 26.6827 7.11455 26.5847 6.87285C26.4866 6.63115 26.3411 6.41158 26.1566 6.22714C25.9722 6.0427 25.7526 5.89715 25.5109 5.79909C25.2692 5.70103 25.0103 5.65246 24.7495 5.65627C24.4887 5.66007 24.2313 5.71616 23.9925 5.82122C23.7538 5.92629 23.5386 6.07818 23.3596 6.26792C23.0115 6.63692 22.8209 7.12705 22.8283 7.63427C22.8357 8.14149 23.0405 8.62586 23.3992 8.98456C23.7579 9.34326 24.2423 9.54804 24.7495 9.55544C25.2567 9.56283 25.7468 9.37225 26.1158 9.02417V9.02417Z" fill="#5A5A5A"/>
</svg>
