<svg width="27" height="30" viewBox="0 0 27 30" fill="none" xmlns="http://www.w3.org/2000/svg">
<path fill-rule="evenodd" clip-rule="evenodd" d="M18.4838 10.9091C18.4838 12.3557 17.9816 13.7431 17.0875 14.766C16.1935 15.7889 14.9809 16.3636 13.7165 16.3636C12.4521 16.3636 11.2395 15.7889 10.3455 14.766C9.4514 13.7431 8.94913 12.3557 8.94913 10.9091C8.94913 9.46244 9.4514 8.07505 10.3455 7.05213C11.2395 6.0292 12.4521 5.45453 13.7165 5.45453C14.9809 5.45453 16.1935 6.0292 17.0875 7.05213C17.9816 8.07505 18.4838 9.46244 18.4838 10.9091ZM16.1002 10.9091C16.1002 11.6324 15.849 12.3261 15.402 12.8375C14.955 13.349 14.3487 13.6363 13.7165 13.6363C13.0843 13.6363 12.478 13.349 12.031 12.8375C11.5839 12.3261 11.3328 11.6324 11.3328 10.9091C11.3328 10.1858 11.5839 9.49206 12.031 8.9806C12.478 8.46914 13.0843 8.1818 13.7165 8.1818C14.3487 8.1818 14.955 8.46914 15.402 8.9806C15.849 9.49206 16.1002 10.1858 16.1002 10.9091Z" fill="white"/>
<path fill-rule="evenodd" clip-rule="evenodd" d="M13.7165 0C6.4761 0 0.606293 6.71591 0.606293 15C0.606293 23.2841 6.4761 30 13.7165 30C20.957 30 26.8268 23.2841 26.8268 15C26.8268 6.71591 20.957 0 13.7165 0ZM2.98997 15C2.98997 17.85 3.83975 20.4736 5.264 22.5573C6.26423 21.0544 7.5546 19.8365 9.03431 18.9986C10.514 18.1607 12.143 17.7256 13.794 17.7273C15.4236 17.7255 17.0321 18.1494 18.4969 18.9665C19.9617 19.7837 21.2441 20.9726 22.2465 22.4427C23.2792 20.8931 23.9745 19.0844 24.2749 17.1663C24.5753 15.2481 24.4722 13.2757 23.9741 11.4123C23.476 9.54877 22.5972 7.84779 21.4104 6.45005C20.2237 5.05231 18.7631 3.99799 17.1495 3.37433C15.5359 2.75067 13.8157 2.5756 12.1312 2.8636C10.4467 3.1516 8.84642 3.8944 7.46267 5.03053C6.07892 6.16666 4.95151 7.66346 4.17374 9.39709C3.39597 11.1307 2.99019 13.0513 2.98997 15ZM13.7165 27.2727C11.2541 27.277 8.86606 26.3077 6.95641 24.5291C7.72507 23.2701 8.74815 22.2422 9.93863 21.5328C11.1291 20.8233 12.4517 20.4535 13.794 20.4545C15.1195 20.4533 16.4262 20.814 17.6054 21.5065C18.7847 22.199 19.8025 23.2034 20.5744 24.4364C18.6499 26.2728 16.2225 27.2768 13.7165 27.2727Z" fill="white"/>
</svg>
