<svg width="40" height="41" viewBox="0 0 40 41" fill="none" xmlns="http://www.w3.org/2000/svg">
<path d="M20 17.7056L33.6862 21.1894C36.0687 20.2335 37.5 19.0215 37.5 17.7056V12.1014C37.5 9.01491 29.6625 6.50366 20 6.50366C10.3375 6.50366 2.5 9.01363 2.5 12.1014V17.7069C2.5 20.796 10.3338 23.3047 20 23.3047V17.7056Z" fill="#D33E44"/>
<path d="M33.685 21.1893L20 17.7043V23.3034L33.6862 26.7884C36.0675 25.83 37.5 24.6205 37.5 23.3034V17.7043C37.5 19.0214 36.0675 20.2322 33.685 21.1893Z" fill="white"/>
<path d="M2.5 17.7043V23.3034C2.5 26.3925 10.3338 28.8973 20 28.8973V23.3034C10.3338 23.3034 2.5 20.7921 2.5 17.7043Z" fill="white"/>
<path d="M33.685 26.7884L20 23.3034V28.9024L33.6862 32.3874C36.0675 31.4303 37.5 30.2196 37.5 28.9024V23.3034C37.5 24.6205 36.0675 25.8313 33.685 26.7884Z" fill="#D33E44"/>
<path d="M2.5 23.3034V28.9024C2.5 31.9915 10.3338 34.4964 20 34.4964V28.9024C10.3338 28.9024 2.5 26.3938 2.5 23.3034Z" fill="#D33E44"/>
</svg>
