<svg width="43" height="37" viewBox="0 0 43 37" fill="none" xmlns="http://www.w3.org/2000/svg">
<path d="M42.8558 13.8572C42.5089 12.8914 41.5885 12.1917 40.4795 12.0452L29.2489 10.5687L24.2261 1.36824C23.2348 -0.451524 19.9444 -0.451524 18.9532 1.36824L13.9303 10.5687L2.7259 12.0452C1.61737 12.1917 0.696986 12.8939 0.352742 13.8572C0.00579095 14.823 0.296799 15.8795 1.09989 16.5844L9.22233 23.7284L7.308 33.8392C7.11986 34.8368 7.57284 35.8479 8.47834 36.4439C9.387 37.037 10.5898 37.1146 11.5779 36.6435L21.5885 31.8675L31.6284 36.6435C32.0579 36.8484 32.5285 36.9497 32.9959 36.9497C33.6046 36.9497 34.2132 36.7794 34.7311 36.4443C35.6371 35.8455 36.0896 34.8372 35.9015 33.8396L33.9871 23.7288L42.1096 16.5848C42.9118 15.8819 43.2028 14.8202 42.8558 13.8572ZM28.7694 20.8893C28.0755 21.5012 27.7547 22.3821 27.9193 23.2467L29.0897 29.4249L22.9524 26.5062C22.526 26.3013 22.0555 26.2 21.5849 26.2C21.1143 26.2 20.6437 26.3013 20.2174 26.5062L14.1126 29.4171L15.2829 23.2471C15.4476 22.3825 15.1273 21.4992 14.4329 20.8897L9.48085 16.5342L16.3062 15.6349C17.2618 15.51 18.0883 14.9643 18.5178 14.1797L21.5849 8.55752L24.652 14.1797C25.0815 14.9671 25.9076 15.51 26.8663 15.6349L33.7183 16.5371L28.7694 20.8893Z" fill="#FFC107"/>
</svg>
