<svg width="30" height="30" viewBox="0 0 30 30" fill="none" xmlns="http://www.w3.org/2000/svg">
<path d="M0.00013777 10.7613C0.00013777 9.4643 0.294763 8.23896 0.87535 7.09531C1.43006 5.9845 2.2542 4.965 3.30385 4.09114C4.35137 3.22875 5.55009 2.48303 6.86536 1.87553C8.21482 1.24727 9.67578 0.773299 11.2024 0.46847C12.7475 0.156252 14.3385 -0.00120263 15.9359 6.91575e-06C18.4034 6.91575e-06 20.6998 0.401785 22.8293 1.20201C24.9311 1.98764 26.72 3.1933 28.0091 4.69298C29.3393 6.2184 30 7.94388 30 9.86774C30 11.0214 29.8527 12.15 29.5516 13.2537C29.2559 14.3567 28.7859 15.4277 28.1521 16.4429C27.548 17.4256 26.7581 18.334 25.8081 19.1387C24.8533 19.9305 23.6971 20.5626 22.4112 20.9958C21.0152 21.4666 19.5051 21.7036 17.981 21.691C16.9216 21.691 15.8645 21.4993 14.8203 21.1142C13.7761 20.7308 13.0265 20.2039 12.5759 19.5288C12.4178 19.9972 12.2011 20.6741 11.913 21.5593C11.6357 22.4429 11.4494 23.0131 11.3671 23.2715C11.2804 23.5282 11.1201 23.9567 10.8861 24.5502C10.7275 24.9892 10.5239 25.4179 10.2774 25.8322L9.53216 26.9558C9.20987 27.438 8.84958 27.9045 8.45331 28.3529C8.06119 28.7897 7.57593 29.3115 6.99751 29.9116L6.67472 30L6.46025 29.82C6.22845 27.9311 6.10929 26.8008 6.10929 26.4273C6.10929 25.322 6.28044 24.0817 6.61839 22.7046C6.94985 21.3293 7.47411 19.6004 8.17818 17.5215C8.88225 15.4443 9.28519 14.2223 9.39351 13.8605C8.89741 13.082 8.64611 12.065 8.64611 10.8147C8.64611 9.81606 9.05122 8.8808 9.86361 8.00056C10.6782 7.12365 11.7072 6.68519 12.955 6.68519C13.9104 6.68519 14.6513 6.9286 15.182 7.41707C15.715 7.90387 15.9749 8.51737 15.9749 9.26591C15.9749 10.0595 15.6326 11.2081 14.9437 12.7102C14.2548 14.214 13.9126 15.3359 13.9126 16.0811C13.9126 16.8363 14.2635 17.4682 14.9654 17.9633C15.6581 18.4587 16.5741 18.7272 17.5196 18.7119C18.3774 18.7119 19.1725 18.5618 19.9112 18.2601C20.6384 17.9672 21.2679 17.549 21.7505 17.0381C22.8016 15.9283 23.551 14.6666 23.9537 13.3287C24.1616 12.6252 24.322 11.9567 24.4216 11.3281C24.5278 10.6963 24.5732 10.0995 24.5732 9.53265C24.5732 7.45374 23.7154 5.83329 22.0104 4.67297C20.2968 3.51265 18.0655 2.93582 15.3207 2.93582C12.199 2.93582 9.58848 3.7127 7.49794 5.27147C5.40523 6.82523 4.35237 8.80078 4.35237 11.1964C4.35237 11.7249 4.45636 12.2351 4.6535 12.7285C4.8463 13.2203 5.05644 13.6121 5.28391 13.9022C5.50921 14.1873 5.72152 14.4657 5.91432 14.7224C6.1093 14.9792 6.21111 15.1625 6.21111 15.2726C6.21111 15.6093 6.0963 16.0478 5.8645 16.5896C5.62403 17.1314 5.34023 17.4015 4.99795 17.4015C4.96545 17.4015 4.83114 17.3832 4.59717 17.3448C3.78687 17.1587 3.0551 16.8107 2.4763 16.3362C1.862 15.8445 1.3772 15.2659 1.04866 14.6324C0.721057 14.0011 0.465896 13.349 0.286098 12.6835C0.0918436 12.0538 -0.00415407 11.4085 0.00013777 10.7613V10.7613Z" fill="#5A5A5A"/>
</svg>
