<svg width="43" height="37" viewBox="0 0 43 37" fill="none" xmlns="http://www.w3.org/2000/svg">
<path d="M42.647 13.8538C42.3001 12.888 41.3797 12.1883 40.2707 12.0418L29.0401 10.5649L24.0172 1.36483C23.026 -0.454942 19.7356 -0.454942 18.7444 1.36483L13.7215 10.5653L2.51708 12.0422C1.40855 12.1883 0.488155 12.8909 0.14391 13.8542C-0.203041 14.82 0.0879676 15.8764 0.891054 16.5814L9.0135 23.7254L7.09917 33.8362C6.91103 34.8338 7.36402 35.8449 8.26952 36.4409C9.17818 37.0344 10.381 37.1116 11.3691 36.6405L21.3797 31.8645L31.4196 36.6405C31.8491 36.8454 32.3197 36.9467 32.7871 36.9467C33.3957 36.9467 34.0044 36.7764 34.5223 36.4413C35.4283 35.8425 35.8808 34.8342 35.6926 33.8366L33.7783 23.7258L41.9008 16.5818C42.703 15.8813 42.994 14.8172 42.647 13.8538Z" fill="#FFC107"/>
</svg>
