<svg width="25" height="25" viewBox="0 0 25 25" fill="none" xmlns="http://www.w3.org/2000/svg">
<path d="M3.7813 23.4689C3.73848 23.6522 3.73771 23.8429 3.77905 24.0265C3.8204 24.2102 3.90278 24.3821 4.02003 24.5294C4.13728 24.6767 4.28636 24.7956 4.45608 24.8771C4.62581 24.9586 4.81178 25.0006 5.00006 25C5.24698 25 5.48838 24.927 5.69382 24.79L12.5001 20.253L19.3064 24.79C19.5193 24.9314 19.7704 25.0041 20.0259 24.9985C20.2815 24.9929 20.5291 24.9092 20.7356 24.7587C20.9422 24.6081 21.0976 24.3979 21.1811 24.1564C21.2646 23.9149 21.2721 23.6536 21.2027 23.4077L18.9164 15.4084L24.5864 10.3064C24.768 10.1429 24.8977 9.92981 24.9594 9.69339C25.0212 9.45698 25.0123 9.20765 24.9338 8.97625C24.8553 8.74485 24.7107 8.54152 24.5179 8.39141C24.3251 8.2413 24.0925 8.15099 23.8489 8.13166L16.7226 7.56421L13.6389 0.738637C13.5407 0.518799 13.3809 0.332079 13.1789 0.201012C12.9769 0.0699446 12.7413 0.000132336 12.5005 1.87955e-07C12.2597 -0.00013196 12.024 0.0694217 11.8219 0.200267C11.6197 0.331112 11.4598 0.517657 11.3613 0.737387L8.27758 7.56421L1.15129 8.13041C0.911857 8.14937 0.682959 8.23691 0.491979 8.38255C0.301 8.52818 0.156025 8.72575 0.0743997 8.95161C-0.00722551 9.17748 -0.0220451 9.42207 0.0317142 9.65614C0.0854734 9.8902 0.205535 10.1038 0.377535 10.2714L5.64506 15.4047L3.7813 23.4689ZM12.5001 4.28829L15.0526 9.93898L15.7876 9.99772H15.7889L20.7539 10.3914L16.6651 14.0711L16.6639 14.0736L16.0851 14.5935L16.2989 15.3397V15.3434L17.8651 20.8242L12.5001 17.2483V4.28829Z" fill="white"/>
</svg>
