<svg width="35" height="27" viewBox="0 0 35 27" fill="none" xmlns="http://www.w3.org/2000/svg">
<path d="M34.9417 3.13673C33.6567 3.65236 32.2584 4.02345 30.8181 4.16798C32.3135 3.34156 33.4333 2.03595 33.9675 0.49611C32.5642 1.27263 31.027 1.81714 29.4239 2.10548C28.7539 1.43918 27.9436 0.908375 27.0434 0.546139C26.1432 0.183903 25.1725 -0.00199916 24.1917 1.62125e-05C20.2234 1.62125e-05 17.032 2.9922 17.032 6.66408C17.032 7.1797 17.0992 7.69533 17.2084 8.19142C11.2665 7.90236 5.96709 5.26173 2.44395 1.21877C1.80199 2.23875 1.46558 3.40012 1.46973 4.58205C1.46973 6.89455 2.73369 8.93361 4.66113 10.1328C3.52526 10.0912 2.41599 9.80079 1.42354 9.28517V9.3672C1.42354 12.6055 3.88428 15.2891 7.16387 15.9063C6.54809 16.0551 5.91463 16.1312 5.27842 16.1328C4.81231 16.1328 4.37139 16.0899 3.92627 16.0313C4.8333 18.6719 7.47461 20.5899 10.6198 20.6524C8.15908 22.4453 5.07686 23.5 1.73008 23.5C1.12959 23.5 0.575293 23.4805 0 23.418C3.17461 25.3125 6.94131 26.4063 10.9978 26.4063C24.1665 26.4063 31.3724 16.2578 31.3724 7.44923C31.3724 7.16017 31.3724 6.87111 31.3514 6.58205C32.7455 5.63283 33.9675 4.45705 34.9417 3.13673Z" fill="#5A5A5A"/>
</svg>
