<svg width="105" height="160" viewBox="0 0 105 160" fill="none" xmlns="http://www.w3.org/2000/svg">
<path fill-rule="evenodd" clip-rule="evenodd" d="M83.9381 90.8923C83.1673 88.0772 82.3569 85.3226 81.6059 82.8202C76.9086 67.1804 70.7686 51.6819 65.4718 40.7946C60.0038 29.5642 39.3503 2.42164 35.3645 0L33.6385 6.50817C36.8798 8.46566 43.4415 17.2441 43.4415 17.2441C44.6075 18.7576 46.1557 27.5462 46.1426 28.979C46.1126 29.8731 46.1126 30.7689 46.1426 31.663C46.3204 37.8483 45.6287 44.6591 44.0146 52.4488C40.8128 67.9271 33.6253 80.8223 26.1479 91.1244C25.0674 90.8923 23.987 90.6199 22.8539 90.6199C10.2312 90.6199 0 106.149 0 125.31C0 144.471 10.2312 160 22.8539 160C35.4765 160 45.7077 144.471 45.7077 125.31C45.7077 110.881 39.9037 98.5306 31.6423 93.3039C38.7705 82.8404 45.3981 70.0359 48.5669 54.6787C50.3523 46.0516 51.1165 38.4133 50.8991 31.33C50.8793 30.7549 58.528 40.4515 61.8221 47.2321C66.9805 57.8268 72.8636 70.6817 77.5543 86.271C78.0088 87.7745 78.5029 89.4192 78.997 91.1042C67.8765 93.4452 59.2923 107.783 59.2923 125.31C59.2923 144.461 69.5235 160 82.1461 160C94.7688 160 105 144.471 105 125.31C105.007 107.067 95.7109 92.2949 83.9381 90.8923V90.8923Z" fill="#EA5A47"/>
</svg>
